<?xml version="1.0" standalone="no"?>
<!DOCTYPE svg PUBLIC "-//W3C//DTD SVG 1.1//EN" "http://www.w3.org/Graphics/SVG/1.1/DTD/svg11.dtd" >
<svg>
<metadata>
Created by FontForge 20090622 at Thu May  3 14:22:24 2018
 By deploy user
Copyright &#194;&#169; 2017 by Luzi Gantenbein. All rights reserved.
</metadata>
<defs>
<font id="BeirutText-Regular" horiz-adv-x="355" >
  <font-face 
    font-family="Beirut Text"
    font-weight="400"
    font-stretch="normal"
    units-per-em="1000"
    panose-1="0 0 5 0 0 0 0 0 0 0"
    ascent="757"
    descent="-243"
    x-height="506"
    cap-height="700"
    bbox="-97 -371 1366 950"
    underline-thickness="50"
    underline-position="-50"
    unicode-range="U+000D-U+FB04"
  />
<missing-glyph horiz-adv-x="280" 
 />
    <glyph glyph-name="ff" unicode="ff" horiz-adv-x="756" 
d="M573 506h171v-50h-171v-389l99 -37v-30h-286v30l79 37v389h-238v-389l99 -37v-30h-286v30l79 37v389h-109v50h109v53q0 85 59 133t142 48q79 0 151 -38l-65 -83l-91 78q-35 -2 -61.5 -33.5t-26.5 -95.5v-62h238v53q0 85 57.5 133t139.5 48q86 0 176 -49l-68 -87l-109 93
q-35 -2 -61.5 -33.5t-26.5 -95.5v-62z" />
    <glyph glyph-name="fi" unicode="fi" horiz-adv-x="672" 
d="M573 67l79 -37v-30h-266v30l79 37v389h-238v-389l99 -37v-30h-286v30l79 37v389h-109v50h109v53q0 85 57.5 133t139.5 48q86 0 176 -49l-68 -87l-109 93q-35 -2 -61.5 -33.5t-26.5 -95.5v-62h346v-439z" />
    <glyph glyph-name="ffi" unicode="ffi" horiz-adv-x="1018" 
d="M919 67l79 -37v-30h-266v30l79 37v389h-238v-389l99 -37v-30h-286v30l79 37v389h-238v-389l99 -37v-30h-286v30l79 37v389h-109v50h109v53q0 85 59 133t142 48q79 0 151 -38l-65 -83l-91 78q-35 -2 -61.5 -33.5t-26.5 -95.5v-62h238v53q0 85 57.5 133t139.5 48
q86 0 176 -49l-68 -87l-109 93q-35 -2 -61.5 -33.5t-26.5 -95.5v-62h346v-439z" />
    <glyph glyph-name="f_f_j" unicode="ffj" horiz-adv-x="994" 
d="M573 506h346v-409q0 -125 -67 -210t-199 -107l-10 30q168 93 168 299v347h-238v-389l99 -37v-30h-286v30l79 37v389h-238v-389l99 -37v-30h-286v30l79 37v389h-109v50h109v53q0 85 59 133t142 48q79 0 151 -38l-65 -83l-91 78q-35 -2 -61.5 -33.5t-26.5 -95.5v-62h238v53
q0 85 57.5 133t139.5 48q86 0 176 -49l-68 -87l-109 93q-35 -2 -61.5 -33.5t-26.5 -95.5v-62z" />
    <glyph glyph-name="f_f_t" unicode="fft" horiz-adv-x="1121" 
d="M1094 91l17 -25q-72 -77 -157 -77q-63 0 -103 41.5t-40 118.5v307h-238v-389l99 -37v-30h-286v30l79 37v389h-238v-389l99 -37v-30h-286v30l79 37v389h-109v50h109v53q0 85 59 133t142 48q79 0 151 -38l-65 -83l-91 78q-35 -2 -61.5 -33.5t-26.5 -95.5v-62h238v53
q0 85 57.5 133t139.5 48q86 0 176 -49l-72 -84l-105 90q-35 -2 -61.5 -33.5t-26.5 -95.5v-62h175l141 128h30v-128h159v-50h-159v-288q0 -101 92 -101q45 0 83 24z" />
    <glyph glyph-name="f_j" unicode="fj" horiz-adv-x="648" 
d="M227 506h346v-409q0 -125 -67 -210t-199 -107l-10 30q168 93 168 299v347h-238v-389l99 -37v-30h-286v30l79 37v389h-109v50h109v53q0 85 57.5 133t139.5 48q86 0 176 -49l-68 -87l-109 93q-35 -2 -61.5 -33.5t-26.5 -95.5v-62z" />
    <glyph glyph-name="f_t" unicode="ft" horiz-adv-x="775" 
d="M748 91l17 -25q-72 -77 -157 -77q-63 0 -103 41.5t-40 118.5v307h-238v-389l99 -37v-30h-286v30l79 37v389h-109v50h109v53q0 85 57.5 133t139.5 48q86 0 176 -49l-72 -84l-105 90q-35 -2 -61.5 -33.5t-26.5 -95.5v-62h175l141 128h30v-128h159v-50h-159v-288
q0 -101 92 -101q45 0 83 24z" />
    <glyph glyph-name=".notdef" horiz-adv-x="280" 
 />
    <glyph glyph-name=".null" horiz-adv-x="0" 
 />
    <glyph glyph-name="nonmarkingreturn" horiz-adv-x="333" 
 />
    <glyph glyph-name="CR" unicode="&#xd;" horiz-adv-x="280" 
 />
    <glyph glyph-name="space" unicode=" " horiz-adv-x="255" 
 />
    <glyph glyph-name="exclam" unicode="!" horiz-adv-x="284" 
d="M211 716l13 -21l-70 -478h-23l-71 481zM140 -11q-33 0 -55.5 23t-22.5 57q0 33 22.5 55t55.5 22q32 0 55 -22t23 -55q0 -34 -23 -57t-55 -23z" />
    <glyph glyph-name="quotedbl" unicode="&#x22;" horiz-adv-x="396" 
d="M180 700l-94 -275h-41v275h135zM361 700l-94 -275h-41v275h135z" />
    <glyph glyph-name="numbersign" unicode="#" horiz-adv-x="663" 
d="M115 0l49 212h-149v61h163l38 161h-158v60h173l47 207h68l-47 -207h136l47 207h69l-47 -207h144v-60h-159l-37 -161h162v-61h-176l-50 -212h-69l51 212h-137l-50 -212h-68zM246 273h137l37 161h-135z" />
    <glyph glyph-name="dollar" unicode="$" horiz-adv-x="593" 
d="M543 201q0 -90 -63.5 -144t-160.5 -59v-99h-45v99q-129 8 -224 99l103 104l121 -149v246h-1l-42 16.5t-40 17.5t-41.5 22.5t-33 26.5t-30 34.5t-17 42t-7.5 52.5q0 89 60 136.5t152 52.5v104h45v-104q116 -8 215 -81l-85 -95l-130 136v-246q104 -36 143 -62
q81 -55 81 -150zM176 546q0 -42 25 -68.5t73 -46.5v227q-47 -9 -72.5 -39.5t-25.5 -72.5zM319 39q59 7 87.5 38.5t28.5 75.5q0 47 -30 75.5t-86 51.5v-241z" />
    <glyph glyph-name="percent" unicode="%" horiz-adv-x="971" 
d="M228 711q84 0 136 -55t52 -141q0 -89 -55 -142t-138 -53q-84 0 -136 54.5t-52 139.5q0 90 55 143.5t138 53.5zM730 700l-437 -700h-57l437 700h57zM228 367q34 0 53.5 36t19.5 102q0 73 -20 116.5t-57 43.5q-34 0 -53.5 -36t-19.5 -102q0 -74 19.5 -117t57.5 -43z
M748 380q84 0 136 -55t52 -141q0 -89 -55 -142t-138 -53q-84 0 -136 54.5t-52 139.5q0 90 55 143.5t138 53.5zM748 36q34 0 53.5 36t19.5 102q0 73 -20 116.5t-57 43.5q-34 0 -53.5 -36t-19.5 -102q0 -74 19.5 -117t57.5 -43z" />
    <glyph glyph-name="ampersand" unicode="&#x26;" horiz-adv-x="744" 
d="M559 170l145 -149v-21h-109l-90 92q-45 -51 -106 -77t-125 -26q-98 0 -153.5 54.5t-55.5 130.5q0 66 45.5 119.5t132.5 71.5l-34 34q-73 73 -73 154q0 64 49.5 105.5t136.5 41.5q91 0 142.5 -44.5t51.5 -106.5q0 -55 -41.5 -102t-116.5 -71l167 -169q22 53 2 152l81 18
l18 -13q-4 -112 -67 -194zM240 562q0 -58 42 -104l44 -48q37 21 56.5 57.5t19.5 76.5q0 44 -23 74t-63 30q-35 0 -55.5 -24.5t-20.5 -61.5zM334 58q76 0 139 69l-199 207q-88 -28 -88 -124q0 -64 40.5 -108t107.5 -44z" />
    <glyph glyph-name="quotesingle" unicode="'" horiz-adv-x="215" 
d="M180 700l-94 -275h-41v275h135z" />
    <glyph glyph-name="parenleft" unicode="(" horiz-adv-x="425" 
d="M170 347q0 -151 68 -270t177 -190l-10 -19q-67 21 -128 59.5t-116 95.5t-88 141t-33 183q0 98 33 182t88 141.5t116 96t128 59.5l10 -20q-109 -71 -177 -190t-68 -269z" />
    <glyph glyph-name="parenright" unicode=")" horiz-adv-x="425" 
d="M255 347q0 150 -68 269t-177 190l10 20q67 -21 128 -59.5t116 -96t88 -141.5t33 -182q0 -99 -33 -183t-88 -141t-116 -95.5t-128 -59.5l-10 19q109 71 177 190t68 270z" />
    <glyph glyph-name="asterisk" unicode="*" horiz-adv-x="488" 
d="M160 321l-75 51l122 128l-172 28l26 85l159 -76l-27 174h94l-28 -174l155 74l29 -79l-173 -32l124 -126l-74 -51l-80 155z" />
    <glyph glyph-name="plus" unicode="+" horiz-adv-x="570" 
d="M510 375v-50h-199v-208h-52v208h-199v50h199v206h52v-206h199z" />
    <glyph glyph-name="comma" unicode="," horiz-adv-x="256" 
d="M125 174q35 0 60.5 -23.5t25.5 -70.5q0 -19 -4.5 -37t-10 -31.5t-17.5 -30l-19 -26t-24 -25t-23.5 -20.5l-25.5 -20.5t-22 -17.5l-30 34l123 115l-11 20q-12 -6 -31 -6q-25 0 -45.5 19t-20.5 50q0 29 22 49.5t53 20.5z" />
    <glyph glyph-name="hyphen" unicode="-" horiz-adv-x="347" 
d="M287 343v-57h-227v57h227z" />
    <glyph glyph-name="period" unicode="." horiz-adv-x="246" 
d="M123 -11q-33 0 -55.5 23t-22.5 57q0 33 22.5 55t55.5 22q32 0 55 -22t23 -55q0 -34 -23 -57t-55 -23z" />
    <glyph glyph-name="slash" unicode="/" horiz-adv-x="453" 
d="M438 701l-350 -701h-73l350 701h73z" />
    <glyph glyph-name="zero" unicode="0" horiz-adv-x="655" 
d="M322 700q135 0 209 -102.5t74 -262.5q0 -156 -70 -251t-201 -95q-136 0 -210 101.5t-74 262.5q0 156 70.5 251.5t201.5 95.5zM479 325q0 148 -41 236t-120 88q-69 0 -105.5 -73t-36.5 -212q0 -153 40.5 -238.5t119.5 -85.5q143 0 143 285z" />
    <glyph glyph-name="one" unicode="1" horiz-adv-x="463" 
d="M298 68l155 -34v-34h-423v34l154 34v499h-133v33l247 100v-632z" />
    <glyph glyph-name="two" unicode="2" horiz-adv-x="579" 
d="M512 176l27 -9l-26 -167h-503v34q163 101 260 224.5t97 232.5q0 58 -29.5 103t-88.5 63l-159 -147l-80 87q110 103 249 103q102 0 167.5 -54.5t65.5 -150.5q0 -88 -75.5 -177t-245.5 -219h278z" />
    <glyph glyph-name="three" unicode="3" horiz-adv-x="586" 
d="M331 369q102 -13 153.5 -63t51.5 -116q0 -80 -64 -140.5t-178 -60.5q-72 0 -141.5 25.5t-117.5 73.5l94 99l153 -159q57 0 99 49t42 110q0 63 -46.5 101.5t-146.5 38.5h-35v56h16q94 0 138 41.5t44 104.5q0 51 -31 87.5t-87 45.5l-147 -143l-86 92q107 89 243 89
q105 0 166 -50t61 -119q0 -58 -49 -105t-132 -57z" />
    <glyph glyph-name="four" unicode="4" horiz-adv-x="668" 
d="M471 190v-122l136 -34v-34h-385v34l135 34v122h-337v30l264 470h172l-362 -445h263v153l114 26v-179h157v-55h-157z" />
    <glyph glyph-name="five" unicode="5" horiz-adv-x="562" 
d="M192 461q158 0 239 -67t81 -166q0 -95 -69 -167t-180 -72q-124 0 -238 98l94 100l153 -159q56 0 93.5 44t37.5 102q0 71 -62.5 121.5t-189.5 50.5q-35 0 -78 -5l37 349h365l-16 -98h-305l-14 -133q28 2 52 2z" />
    <glyph glyph-name="six" unicode="6" horiz-adv-x="645" 
d="M367 451q94 0 161 -61t67 -157q0 -97 -68.5 -170.5t-186.5 -73.5q-93 0 -160.5 51t-98.5 127.5t-31 166.5q0 94 34 176t105 136t164 54q123 0 230 -88l-86 -92l-147 142q-87 -23 -132 -107t-46 -198q81 94 195 94zM342 40q56 0 92.5 45.5t36.5 116.5q0 77 -44 123
t-110 46q-78 0 -143 -62q7 -121 52 -195t116 -74z" />
    <glyph glyph-name="seven" unicode="7" horiz-adv-x="553" 
d="M30 690h513v-21l-289 -669h-140v30l338 562h-343l-72 -87l-27 8z" />
    <glyph glyph-name="eight" unicode="8" horiz-adv-x="619" 
d="M382 383q86 -36 136.5 -84.5t50.5 -125.5q0 -94 -74.5 -139t-185.5 -45q-110 0 -184.5 44t-74.5 136q0 133 180 172q-58 24 -102 71.5t-44 116.5q0 77 59.5 124t159.5 47q98 0 165.5 -44t67.5 -121q0 -36 -15 -64t-43 -45.5t-47.5 -25.5t-48.5 -17zM300 648
q-49 0 -77 -29.5t-28 -73.5q0 -40 32 -73t114 -72q73 34 73 125q0 59 -32 91t-82 32zM321 40q57 0 94 31.5t37 86.5q0 20 -5 37t-17 31.5t-22 24.5t-31.5 21.5t-33.5 17l-39.5 17.5t-37.5 17q-92 -53 -92 -146q0 -60 41 -99t106 -39z" />
    <glyph glyph-name="nine" unicode="9" horiz-adv-x="645" 
d="M283 238q-94 0 -161 61t-67 157q0 97 68.5 170.5t186.5 73.5q93 0 160.5 -51t98.5 -127.5t31 -166.5q0 -94 -34 -176t-105 -136t-164 -54q-123 0 -230 88l86 92l147 -142q87 23 132 107t46 198q-81 -94 -195 -94zM308 649q-56 0 -92.5 -45.5t-36.5 -116.5q0 -77 44 -123
t110 -46q78 0 143 62q-7 121 -52 195t-116 74z" />
    <glyph glyph-name="colon" unicode=":" horiz-adv-x="246" 
d="M123 297q-33 0 -55.5 23t-22.5 57q0 33 22.5 55t55.5 22q32 0 55 -22t23 -55q0 -34 -23 -57t-55 -23zM123 -11q-33 0 -55.5 23t-22.5 57q0 33 22.5 55t55.5 22q32 0 55 -22t23 -55q0 -34 -23 -57t-55 -23z" />
    <glyph glyph-name="semicolon" unicode=";" horiz-adv-x="256" 
d="M127 297q-33 0 -55.5 23t-22.5 57q0 33 22.5 55t55.5 22q32 0 55 -22t23 -55q0 -34 -23 -57t-55 -23zM125 174q35 0 60.5 -23.5t25.5 -70.5q0 -19 -4.5 -37t-10 -31.5t-17.5 -30l-19 -26t-24 -25t-23.5 -20.5l-25.5 -20.5t-22 -17.5l-30 34l123 115l-11 20q-12 -6 -31 -6
q-25 0 -45.5 19t-20.5 50q0 29 22 49.5t53 20.5z" />
    <glyph glyph-name="less" unicode="&#x3c;" horiz-adv-x="561" 
d="M492 547l19 -50l-401 -162l401 -162l-19 -50l-442 188v48z" />
    <glyph glyph-name="equal" unicode="=" horiz-adv-x="570" 
d="M510 468v-50h-450v50h450zM510 282v-50h-450v50h450z" />
    <glyph glyph-name="greater" unicode="&#x3e;" horiz-adv-x="561" 
d="M69 547l442 -188v-48l-442 -188l-19 50l401 162l-401 162z" />
    <glyph glyph-name="question" unicode="?" horiz-adv-x="550" 
d="M290 717q55 0 102 -15t80 -52t33 -91q0 -16 -4 -32t-7.5 -27t-14.5 -25.5t-15 -20.5t-21 -20t-19.5 -16.5t-23.5 -17.5l-20 -15q-51 -38 -78 -74.5t-27 -93.5h-22q-51 40 -51 105q0 14 3 27.5t6 23t11.5 21.5l13 18t16.5 17.5t16.5 15l19.5 15.5t18 15q36 30 54.5 54.5
t18.5 57.5q0 37 -24 62t-64 26l-133 -136l-88 98q109 80 220 80zM259 -11q-33 0 -55.5 23t-22.5 57q0 33 22.5 55t55.5 22q32 0 55 -22t23 -55q0 -34 -23 -57t-55 -23z" />
    <glyph glyph-name="at" unicode="@" horiz-adv-x="903" 
d="M494 741q68 0 130.5 -19t117.5 -58t88 -108t33 -159q0 -118 -52 -200t-137 -82q-57 0 -96 37t-39 97q0 15 1 23q-56 -156 -171 -156q-64 0 -100 47.5t-36 120.5q0 103 63.5 188.5t156.5 85.5q38 0 68.5 -16.5t42.5 -46.5l12 55h105l-65 -240q-11 -40 -11 -63
q0 -41 19.5 -66.5t55.5 -25.5q67 0 103.5 74t36.5 165q0 99 -47 171t-120.5 106t-162.5 34q-88 0 -165 -35.5t-129 -93.5t-82 -132.5t-30 -152.5q0 -147 97.5 -239.5t241.5 -92.5q67 0 130 26l11 -33q-76 -31 -152 -31q-162 0 -267 103.5t-105 269.5q0 126 62.5 229.5
t166 160.5t225.5 57zM409 195q58 0 91 75.5t33 154.5q0 94 -63 94q-41 0 -72 -36t-44 -84t-13 -97q0 -107 68 -107z" />
    <glyph glyph-name="A" unicode="A" horiz-adv-x="770" 
d="M689 64l71 -30v-34h-298v34l95 32l-63 149h-284l-61 -150l95 -31v-34h-229v34l72 31l236 554l-21 50v31h120zM231 265h241l-123 289z" />
    <glyph glyph-name="B" unicode="B" horiz-adv-x="680" 
d="M435 377q93 -13 149 -65.5t56 -120.5q0 -75 -63.5 -133t-171.5 -58h-370v34l85 34v564l-85 34v34h363q96 0 149.5 -46.5t53.5 -108.5q0 -56 -44 -103.5t-122 -64.5zM242 652v-258h98q60 0 93.5 38.5t33.5 89.5q0 53 -36.5 91.5t-99.5 38.5h-89zM355 49q75 0 113.5 38
t38.5 95q0 67 -50 115t-134 48h-81v-296h113z" />
    <glyph glyph-name="C" unicode="C" horiz-adv-x="721" 
d="M664 188l27 -22q-49 -92 -128.5 -137t-168.5 -45q-65 0 -127 23.5t-113 66.5t-82.5 113.5t-31.5 155.5q0 166 109.5 270t259.5 104q67 0 140.5 -23.5t133.5 -71.5l-94 -112l-186 167q-125 -10 -192.5 -95t-67.5 -193q0 -121 79.5 -206.5t208.5 -85.5q135 0 233 91z" />
    <glyph glyph-name="D" unicode="D" horiz-adv-x="751" 
d="M369 700q82 0 148.5 -27.5t108 -73.5t63.5 -104.5t22 -122.5q0 -69 -25.5 -134.5t-73 -119t-125.5 -86t-174 -32.5h-278v34l85 34v564l-85 34v34h334zM300 49q133 0 205.5 83t72.5 209q0 129 -76 220t-210 91h-50v-603h58z" />
    <glyph glyph-name="E" unicode="E" horiz-adv-x="712" 
d="M633 250l29 -11l-25 -239h-602v34l85 34v564l-85 34v34h589l23 -231l-29 -10l-140 193h-236v-273h150l55 101h28v-251h-28l-55 101h-150v-281h241z" />
    <glyph glyph-name="F" unicode="F" horiz-adv-x="657" 
d="M614 700l23 -231l-29 -10l-140 193h-226v-273h150l55 101h28v-251h-28l-55 101h-150v-262l104 -34v-34h-311v34l85 34v564l-85 34v34h579z" />
    <glyph glyph-name="G" unicode="G" horiz-adv-x="765" 
d="M369 357h316v-357h-31l-66 67q-99 -83 -217 -83q-135 0 -233 99t-98 258q0 168 109.5 272t259.5 104q67 0 140.5 -23.5t133.5 -71.5l-94 -112l-186 167q-125 -10 -192.5 -95.5t-67.5 -198.5q0 -126 81 -218t217 -92q73 0 123 33v201l-195 -63v113z" />
    <glyph glyph-name="H" unicode="H" horiz-adv-x="823" 
d="M788 666l-85 -34v-564l85 -34v-34h-292v34l85 34v263h-339v-263l85 -34v-34h-292v34l85 34v564l-85 34v34h292v-34l-85 -34v-251h339v251l-85 34v34h292v-34z" />
    <glyph glyph-name="I" unicode="I" horiz-adv-x="362" 
d="M327 666l-85 -34v-564l85 -34v-34h-292v34l85 34v564l-85 34v34h292v-34z" />
    <glyph glyph-name="J" unicode="J" horiz-adv-x="343" 
d="M6 700h312v-34l-85 -34v-462q0 -302 -322 -387l-8 33q103 49 155.5 139t52.5 203v474l-105 34v34z" />
    <glyph glyph-name="K" unicode="K" horiz-adv-x="717" 
d="M327 666l-85 -34v-564l85 -34v-34h-292v34l85 34v564l-85 34v34h292v-34zM573 153q71 -95 139 -128v-30q-38 -11 -70 -11q-104 0 -181 111l-199 285l284 245l-98 41v34h231v-34l-303 -249z" />
    <glyph glyph-name="L" unicode="L" horiz-adv-x="669" 
d="M595 250l29 -11l-25 -239h-564v34l85 34v564l-85 34v34h312v-34l-105 -34v-583h203z" />
    <glyph glyph-name="M" unicode="M" horiz-adv-x="1007" 
d="M917 65l80 -31v-34h-295v34l88 34l-71 442l-217 -510h-46l-223 522l-73 -452l92 -36v-34h-242v34l93 34l99 563l-88 35v34h186l214 -548l222 548h173v-34l-88 -35z" />
    <glyph glyph-name="N" unicode="N" horiz-adv-x="827" 
d="M551 700h246v-34l-85 -34v-632h-71l-465 528v-460l106 -34v-34h-247v34l85 34v526l-65 75v31h140l461 -533v465l-105 34v34z" />
    <glyph glyph-name="O" unicode="O" horiz-adv-x="792" 
d="M392 717q156 0 258 -99.5t102 -266.5q0 -163 -97.5 -265t-254.5 -102q-155 0 -257.5 99.5t-102.5 267.5q0 163 97.5 264.5t254.5 101.5zM411 35q100 0 153 84.5t53 207.5q0 137 -63 238t-172 101q-100 0 -153 -84t-53 -207q0 -88 26 -164t81 -126t128 -50z" />
    <glyph glyph-name="P" unicode="P" horiz-adv-x="649" 
d="M386 700q109 0 168.5 -56.5t59.5 -137.5q0 -88 -68.5 -152t-188.5 -64h-115v-222l105 -34v-34h-312v34l85 34v564l-85 34v34h351zM314 338q81 0 123 42.5t42 109.5q0 69 -44.5 115.5t-123.5 46.5h-69v-314h72z" />
    <glyph glyph-name="Q" unicode="Q" horiz-adv-x="813" 
d="M826 -28l26 -21q-23 -70 -62.5 -112t-92.5 -42q-41 0 -87 32t-105 81.5t-108 73.5q-154 1 -255.5 100.5t-101.5 266.5q0 163 97.5 264.5t254.5 101.5q156 0 258 -99.5t102 -266.5q0 -145 -77.5 -242.5t-207.5 -119.5q37 -9 82.5 -26.5t80.5 -27t74 -9.5q71 0 122 46z
M176 375q0 -88 26 -164t81 -126t128 -50q100 0 153 84.5t53 207.5q0 137 -63 238t-172 101q-100 0 -153 -84t-53 -207z" />
    <glyph glyph-name="R" unicode="R" horiz-adv-x="698" 
d="M556 150q57 -86 127 -117v-30q-42 -19 -82 -19q-96 0 -159 109l-131 227h-69v-252l85 -34v-34h-292v34l85 34v564l-85 34v34h337q109 0 167 -50t58 -126q0 -64 -42.5 -116t-118.5 -75zM242 368h53q81 0 124 40t43 104q0 62 -41.5 101t-117.5 39h-61v-284z" />
    <glyph glyph-name="S" unicode="S" horiz-adv-x="614" 
d="M564 197q0 -99 -73 -156t-183 -57q-147 0 -258 105l107 108l139 -171q79 0 117 34.5t38 86.5q0 25 -10 46t-23.5 35t-39.5 28.5t-44.5 22t-51.5 19.5l-44 17t-41.5 18t-42.5 23t-35 28t-30.5 36t-17.5 44t-8 55q0 97 69.5 147.5t171.5 50.5q135 0 250 -86l-88 -99
l-139 145q-70 0 -108 -34t-38 -87q0 -52 37 -81.5t110 -55.5q105 -37 143 -61q93 -57 93 -161z" />
    <glyph glyph-name="T" unicode="T" horiz-adv-x="706" 
d="M673 700l23 -231l-29 -10l-140 193h-113v-584l105 -34v-34h-332v34l105 34v584h-113l-140 -193l-29 10l24 231h639z" />
    <glyph glyph-name="U" unicode="U" horiz-adv-x="794" 
d="M523 700h246v-34l-86 -34v-374q0 -132 -78 -203t-195 -71q-123 0 -211.5 75.5t-88.5 209.5v363l-85 34v34h292v-34l-85 -34v-380q0 -102 51.5 -159.5t145.5 -57.5q100 0 149 61.5t49 160.5v375l-104 34v34z" />
    <glyph glyph-name="V" unicode="V" horiz-adv-x="732" 
d="M488 700h234v-34l-60 -27l-269 -639h-18l-296 634l-69 32v34h305v-34l-96 -34l200 -444l181 449l-112 29v34z" />
    <glyph glyph-name="W" unicode="W" horiz-adv-x="1024" 
d="M787 700h227v-34l-61 -33l-237 -633h-30l-166 413l-158 -413h-30l-256 634l-66 32v34h282v-34l-84 -32l175 -441l110 292l-74 181v34h197v-34l-32 -84l153 -386l157 439l-107 31v34z" />
    <glyph glyph-name="X" unicode="X" horiz-adv-x="728" 
d="M708 666l-74 -31l-208 -262l271 -339v-34h-284v34l105 29l-181 225l-169 -223l106 -31v-34h-254v34l74 29l211 265l-272 338v34h288v-34l-105 -31l178 -222l168 221l-104 32v34h250v-34z" />
    <glyph glyph-name="Y" unicode="Y" horiz-adv-x="635" 
d="M390 700h235v-34l-54 -28l-197 -313v-257l105 -34v-34h-332v34l105 34v214l-242 384v34h248v-34l-86 -32l159 -284l170 284l-111 32v34z" />
    <glyph glyph-name="Z" unicode="Z" horiz-adv-x="676" 
d="M607 250l29 -11l-25 -239h-571v30l421 622h-251l-141 -193l-28 10l23 231h550v-31l-420 -620h263z" />
    <glyph glyph-name="bracketleft" unicode="[" horiz-adv-x="315" 
d="M285 -60v-33h-195v821h195v-34l-87 -26v-702z" />
    <glyph glyph-name="backslash" unicode="\" horiz-adv-x="453" 
d="M15 700h73l350 -700h-73z" />
    <glyph glyph-name="bracketright" unicode="]" horiz-adv-x="315" 
d="M30 -60l87 26v702l-87 26v34h195v-821h-195v33z" />
    <glyph glyph-name="asciicircum" unicode="^" horiz-adv-x="425" 
d="M415 166h-58l-145 417l-144 -417h-58l185 509h35z" />
    <glyph glyph-name="underscore" unicode="_" horiz-adv-x="744" 
d="M684 -52v-50h-624v50h624z" />
    <glyph glyph-name="grave" unicode="`" horiz-adv-x="270" 
d="M57 770l213 -166l-14 -25l-256 86z" />
    <glyph glyph-name="a" unicode="a" horiz-adv-x="559" 
d="M455 91l89 -29v-30l-192 -48v111q-71 -106 -172 -106q-59 0 -99.5 39t-40.5 104q0 35 14 61t37.5 44t64 31.5t84 21.5t107.5 17v45q0 57 -27 86t-67 35l-133 -133l-85 91q106 85 225 85q84 0 139.5 -43.5t55.5 -131.5v-250zM347 136v134q-95 -18 -141.5 -45t-46.5 -78
q0 -37 22.5 -55.5t55.5 -18.5q64 0 110 63z" />
    <glyph glyph-name="b" unicode="b" horiz-adv-x="600" 
d="M354 516q97 0 151.5 -73.5t54.5 -178.5q0 -71 -25 -132t-79 -102t-128 -41q-82 0 -158 66l-46 -66h-30v636l-89 29v30l197 49v-308q52 91 152 91zM309 35q63 0 99.5 58.5t36.5 138.5q0 79 -37 134t-105 55q-63 0 -101 -38v-184q0 -84 29 -124t78 -40z" />
    <glyph glyph-name="c" unicode="c" horiz-adv-x="519" 
d="M282 473q-69 -14 -105.5 -67.5t-36.5 -126.5q0 -88 51.5 -139.5t128.5 -51.5q89 0 157 76l22 -17q-34 -79 -91.5 -118.5t-127.5 -39.5q-99 0 -169.5 70.5t-70.5 183.5q0 111 69 192t185 81q96 0 192 -66l-72 -93z" />
    <glyph glyph-name="d" unicode="d" horiz-adv-x="612" 
d="M508 91l89 -29v-30l-192 -48v98q-56 -93 -158 -93q-99 0 -153 73.5t-54 177.5q0 112 61 194t171 82q74 0 128 -40v149l-89 29v30l197 49v-642zM400 122v187q0 159 -107 159q-65 0 -101 -57.5t-36 -135.5q0 -79 37.5 -135t105.5 -56q61 0 101 38z" />
    <glyph glyph-name="e" unicode="e" horiz-adv-x="525" 
d="M476 164l22 -17q-27 -79 -87 -118.5t-130 -39.5q-97 0 -169 69t-72 188q0 121 74.5 195.5t178.5 74.5q98 0 146 -66.5t48 -168.5h-347q0 -93 53 -143t129 -50q94 0 154 76zM279 468q-49 0 -84.5 -40.5t-46.5 -96.5h221q2 14 2 26q0 48 -24.5 79.5t-67.5 31.5z" />
    <glyph glyph-name="f" unicode="f" horiz-adv-x="417" 
d="M315 697q-35 -2 -61.5 -33.5t-26.5 -95.5v-62h171v-50h-171v-389l99 -37v-30h-286v30l79 37v389h-109v50h109v53q0 85 60 133t143 48q93 0 177 -53l-69 -88z" />
    <glyph glyph-name="g" unicode="g" horiz-adv-x="588" 
d="M393 74q69 0 111 -33.5t42 -92.5q0 -71 -65.5 -119.5t-206.5 -48.5q-124 0 -184 37t-60 86q0 35 31 59t82 32q-42 12 -64.5 41t-22.5 65t23 63.5t66 40.5q-73 53 -73 141q0 75 58.5 123t144.5 48q41 0 99 -23l183 72l16 -99h-177q98 -45 98 -141q0 -69 -57.5 -116
t-147.5 -47q-61 0 -114 24q-41 -11 -41 -55q0 -25 19 -41t54 -16h186zM274 468q-41 0 -64 -35.5t-23 -81.5q0 -53 28.5 -97.5t75.5 -44.5q41 0 64 35.5t23 81.5q0 53 -28.5 97.5t-75.5 44.5zM285 -173q73 0 118 25t45 69q0 35 -27.5 47t-75.5 12h-178q-27 -30 -27 -65
q0 -44 38.5 -66t106.5 -22z" />
    <glyph glyph-name="h" unicode="h" horiz-adv-x="652" 
d="M553 67l79 -37v-30h-266v30l79 37v245q0 59 -28 87t-73 28q-35 0 -67 -17t-50 -44v-299l79 -37v-30h-266v30l79 37v558l-89 29v30l197 49v-316q30 48 75 73.5t96 25.5q68 0 111.5 -45t43.5 -132v-272z" />
    <glyph glyph-name="i" unicode="i" horiz-adv-x="326" 
d="M163 576q-33 0 -55 22t-22 56q0 33 22.5 55t54.5 22t54.5 -22t22.5 -55t-22.5 -55.5t-54.5 -22.5zM227 516v-449l79 -37v-30h-266v30l79 37v341l-89 29v30z" />
    <glyph glyph-name="j" unicode="j" horiz-adv-x="310" 
d="M158 576q-32 0 -54.5 22.5t-22.5 55.5q0 32 23 54.5t55 22.5t54 -22.5t22 -55.5t-22.5 -55t-54.5 -22zM29 437v30l197 49v-419q0 -125 -67 -210t-199 -107l-10 30q168 93 168 299v299z" />
    <glyph glyph-name="k" unicode="k" horiz-adv-x="613" 
d="M227 733v-666l79 -37v-30h-266v30l79 37v558l-89 29v30zM468 153q35 -49 61.5 -78t63.5 -50v-29q-33 -12 -65 -12q-51 0 -92 31t-82 97l-104 165l174 157l-96 43v29h233v-29l-205 -166z" />
    <glyph glyph-name="l" unicode="l" horiz-adv-x="336" 
d="M227 733v-666l79 -37v-30h-266v30l79 37v558l-89 29v30z" />
    <glyph glyph-name="m" unicode="m" horiz-adv-x="954" 
d="M855 67l79 -37v-30h-266v30l79 37v248q0 56 -29 84t-75 28q-58 0 -102 -50v-310l79 -37v-30h-266v30l79 37v245q0 58 -27 86.5t-72 28.5q-56 0 -107 -50v-310l79 -37v-30h-266v30l79 37v342l-89 29v30l191 48v-104q27 43 71 73.5t101 30.5q94 0 136 -102q63 102 174 102
q74 0 113 -49.5t39 -141.5v-258z" />
    <glyph glyph-name="n" unicode="n" horiz-adv-x="652" 
d="M553 67l79 -37v-30h-266v30l79 37v245q0 59 -28 87t-73 28q-35 0 -67 -17t-50 -44v-299l79 -37v-30h-266v30l79 37v342l-89 29v30l191 48v-109q30 53 77 81t100 28q68 0 111.5 -45t43.5 -132v-272z" />
    <glyph glyph-name="o" unicode="o" horiz-adv-x="591" 
d="M299 516q115 0 183.5 -74t68.5 -190q0 -118 -73 -190.5t-186 -72.5q-114 0 -183 74t-69 189q0 119 73 191.5t186 72.5zM305 37q61 0 93 55.5t32 141.5q0 96 -38 165t-106 69q-61 0 -93 -55.5t-32 -141.5q0 -97 38 -165.5t106 -68.5z" />
    <glyph glyph-name="p" unicode="p" horiz-adv-x="619" 
d="M372 516q96 0 151.5 -73.5t55.5 -176.5q0 -108 -61 -187t-171 -79q-68 0 -125 40v-173l99 -37v-30h-286v30l79 37v542l-89 29v30l191 48v-102q49 102 156 102zM328 48q65 0 100.5 55t35.5 132q0 78 -37 132t-105 54q-62 0 -100 -38v-173q0 -162 106 -162z" />
    <glyph glyph-name="q" unicode="q" horiz-adv-x="601" 
d="M507 -101l89 -29v-30l-197 -49v288q-59 -79 -152 -79q-98 0 -152.5 72t-54.5 174q0 110 61.5 190t171.5 80q80 0 131 -45l74 35h29v-607zM399 123v180q0 165 -108 165q-64 0 -99 -55t-35 -133q0 -81 37.5 -137.5t104.5 -56.5q60 0 100 37z" />
    <glyph glyph-name="r" unicode="r" horiz-adv-x="441" 
d="M431 502l-27 -112h-26q-24 21 -63 21q-32 0 -57.5 -18.5t-30.5 -49.5v-276l99 -37v-30h-286v30l79 37v342l-89 29v30l191 48v-126q37 124 139 124q35 0 71 -12z" />
    <glyph glyph-name="s" unicode="s" horiz-adv-x="482" 
d="M431 459l-67 -93l-116 108q-51 0 -77.5 -20t-26.5 -55q0 -20 9 -34.5t28.5 -25.5t36 -17t46.5 -15l48.5 -15.5t45.5 -20t44 -29.5t27.5 -40.5t12.5 -56.5q0 -75 -58.5 -115.5t-140.5 -40.5q-117 0 -203 65l78 101l124 -124q43 0 71 21t28 57q0 38 -30.5 58.5t-91.5 39.5
q-30 9 -47.5 15t-44 20t-41 29.5t-26 41t-11.5 56.5q0 74 53 110.5t136 36.5q95 0 193 -57z" />
    <glyph glyph-name="t" unicode="t" horiz-adv-x="400" 
d="M373 91l17 -25q-72 -77 -157 -77q-63 0 -103 41.5t-40 118.5v307h-85v30l163 148h30v-128h159v-50h-159v-288q0 -101 92 -101q45 0 83 24z" />
    <glyph glyph-name="u" unicode="u" horiz-adv-x="619" 
d="M515 91l89 -29v-30l-192 -48v113q-63 -108 -167 -108q-70 0 -113 44.5t-43 131.5v243l-89 29v30l197 49v-322q0 -115 94 -115q34 0 66 16.5t50 42.5v272l-83 28v30l191 48v-425z" />
    <glyph glyph-name="v" unicode="v" horiz-adv-x="547" 
d="M316 506h216v-29l-239 -477h-16l-210 423l-77 17v30l157 46l174 -361l130 271l-135 51v29z" />
    <glyph glyph-name="w" unicode="w" horiz-adv-x="803" 
d="M592 506h196v-29l-213 -477h-33l-131 289l-134 -289h-22l-186 419l-79 19v30l164 48l148 -357l81 192l-56 126v29h158v-29l-17 -39l124 -291l119 280l-119 50v29z" />
    <glyph glyph-name="x" unicode="x" horiz-adv-x="592" 
d="M572 477l-61 -20l-154 -178l210 -249v-30h-262v30l97 26l-129 153l-123 -153l87 -26v-30h-217v30l60 19l166 191l-200 237v29h263v-29l-97 -27l117 -139l112 139l-81 27v29h212v-29z" />
    <glyph glyph-name="y" unicode="y" horiz-adv-x="512" 
d="M288 506h214v-29l-220 -510q-59 -137 -182 -137q-56 0 -116 28l29 94h30q41 -32 87 -32q43 0 78.5 27t49.5 73l-203 403l-75 17v30l155 46l178 -365l112 275l-137 51v29z" />
    <glyph glyph-name="z" unicode="z" horiz-adv-x="541" 
d="M465 186l26 -10l-11 -176h-427v30l280 427h-171l-90 -136l-27 9l15 176h415v-29l-281 -428h184z" />
    <glyph glyph-name="braceleft" unicode="{" horiz-adv-x="361" 
d="M198 7q0 -49 23.5 -72t84.5 -39l-5 -26q-113 9 -162 42.5t-49 110.5q0 38 18.5 113t18.5 100q0 87 -102 87v47q102 0 102 87q0 25 -18.5 100.5t-18.5 113.5q0 76 49.5 109t161.5 42l5 -25q-62 -17 -85 -39.5t-23 -71.5q0 -26 17 -95t17 -108q0 -52 -35 -89t-102 -47
q68 -11 102.5 -48t34.5 -90q0 -39 -17 -107.5t-17 -94.5z" />
    <glyph glyph-name="bar" unicode="|" horiz-adv-x="281" 
d="M115 802h51v-903h-51v903z" />
    <glyph glyph-name="braceright" unicode="}" horiz-adv-x="361" 
d="M163 7q0 26 -17 94.5t-17 107.5q0 53 34.5 90t102.5 48q-67 10 -102 47t-35 89q0 39 17 108t17 95q0 49 -23 71.5t-85 39.5l5 25q112 -9 161.5 -42t49.5 -109q0 -38 -18.5 -113.5t-18.5 -100.5q0 -87 102 -87v-47q-102 0 -102 -87q0 -25 18.5 -100t18.5 -113
q0 -77 -49 -110.5t-162 -42.5l-5 26q61 16 84.5 39t23.5 72z" />
    <glyph glyph-name="asciitilde" unicode="~" horiz-adv-x="641" 
d="M177 389q49 0 144 -30.5t140 -30.5q62 0 120 55v-61q-50 -46 -113 -46q-49 0 -144.5 32t-143.5 32q-65 0 -120 -52v58q54 43 117 43z" />
    <glyph glyph-name="exclamdown" unicode="&#xa1;" horiz-adv-x="284" 
d="M144 507q33 0 55.5 -23t22.5 -57q0 -33 -22.5 -55t-55.5 -22q-32 0 -55 22t-23 55q0 34 23 57t55 23zM73 -220l-13 21l70 478h23l71 -481z" />
    <glyph glyph-name="cent" unicode="&#xa2;" horiz-adv-x="519" 
d="M499 147q-32 -74 -85 -113.5t-118 -43.5v-100h-45v101q-90 11 -150.5 79.5t-60.5 172.5q0 100 56.5 177t154.5 93v113h45v-110q95 0 190 -66l-72 -93l-118 104v-372q8 -1 24 -1q89 0 157 76zM140 279q0 -66 30 -112.5t81 -66.5v364q-54 -22 -82.5 -71.5t-28.5 -113.5z
" />
    <glyph glyph-name="sterling" unicode="&#xa3;" horiz-adv-x="682" 
d="M610 185l27 -10l-16 -175h-556v30q103 73 140 123t37 94q0 41 -25 84h-151v46h121q-23 33 -33.5 50t-22.5 48.5t-12 62.5q0 56 34 94t81.5 53t103.5 15q115 0 216 -70l-86 -101l-143 128q-36 0 -63 -29.5t-27 -73.5q0 -29 12 -56.5t38 -66.5t34 -54h214v-46h-193
q10 -30 10 -59q0 -59 -44 -113t-147 -110h308z" />
    <glyph glyph-name="currency" unicode="&#xa4;" horiz-adv-x="508" 
d="M429 253q0 -70 -45 -120l84 -103l-40 -30l-83 103q-42 -26 -91 -26q-47 0 -91 26l-83 -103l-40 30l84 104q-44 49 -44 119q0 71 47 120l-87 107l40 31l86 -107q38 23 88 23q47 0 88 -22l86 106l40 -31l-87 -106q48 -50 48 -121zM130 253q0 -53 36 -89t88 -36t88.5 36.5
t36.5 88.5t-36.5 88.5t-88.5 36.5t-88 -36t-36 -89z" />
    <glyph glyph-name="yen" unicode="&#xa5;" horiz-adv-x="635" 
d="M390 700h235v-34l-54 -28l-197 -313v-17h159v-41h-159v-58h159v-41h-159v-100l105 -34v-34h-332v34l105 34v100h-158v41h158v58h-158v41h142l-226 358v34h248v-34l-86 -32l159 -284l170 284l-111 32v34z" />
    <glyph glyph-name="brokenbar" unicode="&#xa6;" horiz-adv-x="281" 
d="M115 802h51v-403h-51v403zM115 302h51v-403h-51v403z" />
    <glyph glyph-name="section" unicode="&#xa7;" horiz-adv-x="502" 
d="M402 240q50 -35 50 -97q0 -73 -58 -113.5t-140 -40.5q-118 0 -204 65l78 101l124 -124q43 0 71 20t28 56q0 16 -7 29.5t-15.5 22t-28 17.5t-30.5 13l-37 13q-30 10 -46.5 16.5t-43.5 20.5t-41 29t-25.5 38.5t-11.5 52.5q0 61 52 92q-51 39 -51 103q0 70 51.5 108
t137.5 38q96 0 194 -57l-67 -93l-117 108q-51 0 -77 -19.5t-26 -54.5q0 -20 8.5 -35.5t28 -27.5t36 -18.5t46.5 -16.5q37 -12 53.5 -18.5t44 -20t40 -27t23 -35.5t10.5 -49q0 -62 -50 -96zM152 389q0 -16 8.5 -30t17.5 -22.5t31.5 -18.5t33 -14t38.5 -13q45 -15 71 -25
q9 14 9 34q0 16 -8.5 30t-17.5 22t-31.5 18t-32 13.5t-38.5 13.5q-55 19 -72 28q-9 -17 -9 -36z" />
    <glyph glyph-name="dieresis" unicode="&#xa8;" horiz-adv-x="327" 
d="M64 709q29 0 47.5 -18.5t18.5 -45.5q0 -28 -18.5 -47t-47.5 -19q-27 0 -45.5 19t-18.5 47q0 27 18.5 45.5t45.5 18.5zM262 709q28 0 46.5 -18.5t18.5 -45.5q0 -28 -18.5 -47t-46.5 -19t-46 19t-18 47q0 27 18 45.5t46 18.5z" />
    <glyph glyph-name="copyright" unicode="&#xa9;" horiz-adv-x="729" 
d="M365 73q-135 0 -230 93t-95 226t95 226t230 93q134 0 229 -93t95 -226t-95 -226t-229 -93zM365 101q119 0 204.5 86t85.5 205t-85.5 205t-204.5 86q-120 0 -205.5 -86t-85.5 -205t85.5 -205t205.5 -86zM360 556q-50 -10 -76 -47t-26 -86q0 -63 40 -101.5t95 -38.5
q63 0 109 57l16 -13q-19 -57 -60.5 -86t-92.5 -29q-71 0 -124 50t-53 132q0 78 48.5 135.5t135.5 57.5q76 0 135 -50l-56 -62z" />
    <glyph glyph-name="ordfeminine" unicode="&#xaa;" horiz-adv-x="426" 
d="M325 424l61 -21v-26l-146 -34v65q-44 -62 -106 -62q-39 0 -66.5 26.5t-27.5 70.5q0 51 46.5 78t150.5 40v30q0 72 -53 80l-83 -93l-60 65q74 57 149 57q58 0 96.5 -29.5t38.5 -83.5v-163zM181 405q33 0 56 29v102q-104 -22 -104 -81q0 -24 14 -37t34 -13z" />
    <glyph glyph-name="guillemotleft" unicode="&#xab;" horiz-adv-x="530" 
d="M254 477l-119 -196l119 -196l-28 -19l-216 215l216 215zM490 477l-110 -196l110 -196l-29 -19l-216 215l216 215z" />
    <glyph glyph-name="logicalnot" unicode="&#xac;" horiz-adv-x="665" 
d="M605 153h-52v161h-493v50h545v-211z" />
    <glyph glyph-name="uni00AD" unicode="&#xad;" horiz-adv-x="503" 
d="M443 338v-50h-383v50h383z" />
    <glyph glyph-name="registered" unicode="&#xae;" horiz-adv-x="729" 
d="M365 705q135 0 229.5 -93t94.5 -226t-95 -226t-229 -93q-135 0 -230 93t-95 226t95 226t230 93zM365 95q119 0 204.5 86t85.5 205t-85.5 205t-204.5 86q-120 0 -205.5 -86t-85.5 -205t85.5 -205t205.5 -86zM471 323l18 -27.5t15 -20t20 -18t22 -7.5v-16q-26 -8 -50 -8
q-58 0 -95 79l-39 87h-37v-120l51 -14v-19h-171v19l53 14v257l-53 16v19h167q125 0 125 -84q0 -31 -18.5 -53t-53.5 -31zM330 411q92 0 92 66q0 34 -23.5 49t-53.5 15h-20v-130h5z" />
    <glyph glyph-name="macron" unicode="&#xaf;" horiz-adv-x="325" 
d="M325 627h-325v66h325v-66z" />
    <glyph glyph-name="degree" unicode="&#xb0;" horiz-adv-x="451" 
d="M228 711q84 0 136 -55t52 -141q0 -89 -55 -142t-138 -53q-84 0 -136 54.5t-52 139.5q0 90 55 143.5t138 53.5zM228 367q34 0 53.5 36t19.5 102q0 73 -20 116.5t-57 43.5q-34 0 -53.5 -36t-19.5 -102q0 -74 19.5 -117t57.5 -43z" />
    <glyph glyph-name="plusminus" unicode="&#xb1;" horiz-adv-x="570" 
d="M510 513v-50h-199v-208h-52v208h-199v50h199v206h52v-206h199zM60 92v50h450v-50h-450z" />
    <glyph glyph-name="acute" unicode="&#xb4;" horiz-adv-x="270" 
d="M213 770l57 -105l-256 -86l-14 25z" />
    <glyph glyph-name="paragraph" unicode="&#xb6;" horiz-adv-x="674" 
d="M429 -128h-44v431h-98q-115 0 -181 62.5t-66 145.5q0 78 59.5 133.5t168.5 55.5h161v-828zM498 700h131v-34l-86 -35v-759h-45v828zM329 351h56v301h-44q-80 0 -123.5 -46t-43.5 -113q0 -61 40.5 -101.5t114.5 -40.5z" />
    <glyph glyph-name="periodcentered" unicode="&#xb7;" horiz-adv-x="236" 
d="M118 261q-33 0 -55.5 23t-22.5 57q0 33 22.5 55t55.5 22q32 0 55 -22t23 -55q0 -34 -23 -57t-55 -23z" />
    <glyph glyph-name="cedilla" unicode="&#xb8;" horiz-adv-x="208" 
d="M106 -61q47 1 74.5 -21t27.5 -56q0 -33 -26.5 -58.5t-74.5 -25.5q-60 0 -107 42l24 34q41 -38 84 -38q57 0 57 44q0 55 -107 55l16 85h32v-61z" />
    <glyph glyph-name="ordmasculine" unicode="&#xba;" horiz-adv-x="426" 
d="M215 700q79 0 125 -49.5t46 -127.5q0 -80 -49 -128.5t-126 -48.5q-79 0 -125 49.5t-46 127.5q0 80 49 128.5t126 48.5zM218 377q35 0 53 37t18 97q0 67 -21 112.5t-60 45.5q-35 0 -52.5 -36.5t-17.5 -97.5q0 -67 20.5 -112.5t59.5 -45.5z" />
    <glyph glyph-name="guillemotright" unicode="&#xbb;" horiz-adv-x="530" 
d="M40 477l29 19l216 -215l-216 -215l-29 19l110 196zM276 477l28 19l216 -215l-216 -215l-28 19l119 196z" />
    <glyph glyph-name="onequarter" unicode="&#xbc;" horiz-adv-x="988" 
d="M728 700l-437 -700h-57l437 700h57zM235 315l76 -20v-20h-251v20l76 20v302h-76v21l175 61v-384zM849 113v-71l76 -20v-20h-251v20l76 20v71h-191v18l142 285h145l-239 -270h143v81l99 22v-103h79v-33h-79z" />
    <glyph glyph-name="onehalf" unicode="&#xbd;" horiz-adv-x="983" 
d="M728 700l-437 -700h-57l437 700h57zM235 315l76 -20v-20h-251v20l76 20v302h-76v21l175 61v-384zM923 133l-19 -131h-313v20q199 145 199 266q0 35 -16.5 68t-42.5 46l-80 -106l-69 63q70 67 164 67q64 0 107 -32t43 -87q0 -52 -45.5 -102.5t-138.5 -113.5h157l37 48z
" />
    <glyph glyph-name="threequarters" unicode="&#xbe;" horiz-adv-x="1035" 
d="M256 499q58 -10 91.5 -40t33.5 -70q0 -46 -42.5 -83t-116.5 -37q-89 0 -162 61l66 71l97 -108q24 11 40.5 38t16.5 57q0 38 -25.5 62.5t-67.5 24.5h-30v33h10q42 0 69 22.5t27 65.5q0 51 -44 80l-92 -96l-61 65q63 55 158 55q63 0 103 -30.5t40 -70.5q0 -35 -30.5 -63
t-80.5 -37zM775 700l-437 -700h-57l437 700h57zM896 113v-71l76 -20v-20h-251v20l76 20v71h-191v18l142 285h145l-239 -270h143v81l99 22v-103h79v-33h-79z" />
    <glyph glyph-name="questiondown" unicode="&#xbf;" horiz-adv-x="515" 
d="M296 508q33 0 55.5 -23t22.5 -57q0 -33 -22.5 -55t-55.5 -22q-32 0 -55 22t-23 55q0 34 23 57t55 23zM265 -220q-55 0 -102 15t-80 52t-33 91q0 16 4 32t7.5 27t14.5 25.5t15 20.5t21 20t19.5 16.5t22.5 17.5l21 15q51 38 78 74.5t27 93.5h22q51 -40 51 -105
q0 -14 -3 -27.5t-6 -23t-11.5 -21.5l-13 -18t-16.5 -17.5t-16.5 -15l-19.5 -15.5t-18 -15q-36 -30 -54.5 -54.5t-18.5 -57.5q0 -37 24 -62t64 -26l133 136l88 -98q-109 -80 -220 -80z" />
    <glyph glyph-name="Agrave" unicode="&#xc0;" horiz-adv-x="770" 
d="M457 783l-11 -26l-264 59l46 110zM689 64l71 -30v-34h-298v34l95 32l-63 149h-284l-61 -150l95 -31v-34h-229v34l72 31l236 554l-21 50v31h120zM231 265h241l-123 289z" />
    <glyph glyph-name="Aacute" unicode="&#xc1;" horiz-adv-x="770" 
d="M576 816l-264 -59l-11 26l229 143zM689 64l71 -30v-34h-298v34l95 32l-63 149h-284l-61 -150l95 -31v-34h-229v34l72 31l236 554l-21 50v31h120zM231 265h241l-123 289z" />
    <glyph glyph-name="Acircumflex" unicode="&#xc2;" horiz-adv-x="770" 
d="M375 829l-141 -53l-18 25l159 137l160 -137l-19 -25zM689 64l71 -30v-34h-298v34l95 32l-63 149h-284l-61 -150l95 -31v-34h-229v34l72 31l236 554l-21 50v31h120zM231 265h241l-123 289z" />
    <glyph glyph-name="Atilde" unicode="&#xc3;" horiz-adv-x="770" 
d="M300 842l-61 -67l-25 14l71 161l162 -87l75 83l24 -14l-59 -156zM689 64l71 -30v-34h-298v34l95 32l-63 149h-284l-61 -150l95 -31v-34h-229v34l72 31l236 554l-21 50v31h120zM231 265h241l-123 289z" />
    <glyph glyph-name="Adieresis" unicode="&#xc4;" horiz-adv-x="770" 
d="M278 776q-27 0 -45.5 19t-18.5 47q0 27 18.5 45.5t45.5 18.5q29 0 47.5 -18.5t18.5 -45.5q0 -28 -18.5 -47t-47.5 -19zM486 776q-28 0 -46 19t-18 47q0 27 18 45.5t46 18.5t47 -18.5t19 -45.5q0 -28 -19 -47t-47 -19zM689 64l71 -30v-34h-298v34l95 32l-63 149h-284
l-61 -150l95 -31v-34h-229v34l72 31l236 554l-21 50v31h120zM231 265h241l-123 289z" />
    <glyph glyph-name="Aring" unicode="&#xc5;" horiz-adv-x="770" 
d="M373 761q-37 0 -66 25t-29 69q0 45 29 70t66 25t66 -25t29 -70q0 -44 -29 -69t-66 -25zM373 909q-21 0 -35.5 -14t-14.5 -40q0 -24 14.5 -38t35.5 -14t35.5 14t14.5 38q0 26 -14.5 40t-35.5 14zM689 64l71 -30v-34h-298v34l95 32l-63 149h-284l-61 -150l95 -31v-34h-229
v34l72 31l236 554l-21 50v31h120zM231 265h241l-123 289z" />
    <glyph glyph-name="AE" unicode="&#xc6;" horiz-adv-x="1150" 
d="M1071 250l29 -11l-25 -239h-612v34l85 34v262h-267l-135 -265l97 -31v-34h-228v34l69 31l328 635h650l23 -231l-29 -10l-140 193h-246v-273h160l55 101h28v-251h-28l-55 101h-160v-281h251zM305 379h243v273h-104z" />
    <glyph glyph-name="Ccedilla" unicode="&#xc7;" horiz-adv-x="721" 
d="M394 -16h-15v-45q47 1 74.5 -21t27.5 -56q0 -33 -26.5 -58.5t-74.5 -25.5q-60 0 -107 42l24 34q41 -38 84 -38q57 0 57 44q0 55 -107 55l14 72q-126 18 -215.5 111.5t-89.5 244.5q0 166 109.5 270t259.5 104q67 0 140.5 -23.5t133.5 -71.5l-94 -112l-186 167
q-125 -10 -192.5 -95t-67.5 -193q0 -121 79.5 -206.5t208.5 -85.5q135 0 233 91l27 -22q-49 -92 -128.5 -137t-168.5 -45z" />
    <glyph glyph-name="Egrave" unicode="&#xc8;" horiz-adv-x="712" 
d="M223 926l229 -143l-11 -26l-264 59zM633 250l29 -11l-25 -239h-602v34l85 34v564l-85 34v34h589l23 -231l-29 -10l-140 193h-236v-273h150l55 101h28v-251h-28l-55 101h-150v-281h241z" />
    <glyph glyph-name="Eacute" unicode="&#xc9;" horiz-adv-x="712" 
d="M539 926l46 -110l-264 -59l-11 26zM633 250l29 -11l-25 -239h-602v34l85 34v564l-85 34v34h589l23 -231l-29 -10l-140 193h-236v-273h150l55 101h28v-251h-28l-55 101h-150v-281h241z" />
    <glyph glyph-name="Ecircumflex" unicode="&#xca;" horiz-adv-x="712" 
d="M363 938l160 -137l-19 -25l-141 53l-141 -53l-18 25zM633 250l29 -11l-25 -239h-602v34l85 34v564l-85 34v34h589l23 -231l-29 -10l-140 193h-236v-273h150l55 101h28v-251h-28l-55 101h-150v-281h241z" />
    <glyph glyph-name="Edieresis" unicode="&#xcb;" horiz-adv-x="712" 
d="M252 906q29 0 47.5 -18.5t18.5 -45.5q0 -28 -18.5 -47t-47.5 -19q-27 0 -45.5 19t-18.5 47q0 27 18.5 45.5t45.5 18.5zM460 906q28 0 47 -18.5t19 -45.5q0 -28 -19 -47t-47 -19t-46 19t-18 47q0 27 18 45.5t46 18.5zM633 250l29 -11l-25 -239h-602v34l85 34v564l-85 34
v34h589l23 -231l-29 -10l-140 193h-236v-273h150l55 101h28v-251h-28l-55 101h-150v-281h241z" />
    <glyph glyph-name="Igrave" unicode="&#xcc;" horiz-adv-x="359" 
d="M79 926l229 -143l-11 -26l-264 59zM327 666l-85 -34v-564l85 -34v-34h-292v34l85 34v564l-85 34v34h292v-34z" />
    <glyph glyph-name="Iacute" unicode="&#xcd;" horiz-adv-x="363" 
d="M284 926l46 -110l-264 -59l-11 26zM327 666l-85 -34v-564l85 -34v-34h-292v34l85 34v564l-85 34v34h292v-34z" />
    <glyph glyph-name="Icircumflex" unicode="&#xce;" horiz-adv-x="362" 
d="M180 938l160 -137l-19 -25l-141 53l-141 -53l-18 25zM326 666l-85 -34v-564l85 -34v-34h-292v34l85 34v564l-85 34v34h292v-34z" />
    <glyph glyph-name="Idieresis" unicode="&#xcf;" horiz-adv-x="361" 
d="M75 906q29 0 47.5 -18.5t18.5 -45.5q0 -28 -18.5 -47t-47.5 -19q-27 0 -45.5 19t-18.5 47q0 27 18.5 45.5t45.5 18.5zM283 906q28 0 47 -18.5t19 -45.5q0 -28 -19 -47t-47 -19t-46 19t-18 47q0 27 18 45.5t46 18.5zM325 666l-85 -34v-564l85 -34v-34h-292v34l85 34v564
l-85 34v34h292v-34z" />
    <glyph glyph-name="Eth" unicode="&#xd0;" horiz-adv-x="753" 
d="M371 700q82 0 148.5 -27.5t108 -73.5t63.5 -104.5t22 -122.5q0 -69 -25.5 -134.5t-73 -119t-125.5 -86t-174 -32.5h-278v34l85 34v261h-87v46h87v257l-85 34v34h334zM302 49q133 0 205.5 83t72.5 209q0 129 -76 220t-210 91h-50v-277h144v-46h-144v-280h58z" />
    <glyph glyph-name="Ntilde" unicode="&#xd1;" horiz-adv-x="827" 
d="M523 776l-187 66l-61 -67l-25 14l71 161l162 -87l75 83l24 -14zM551 700h246v-34l-85 -34v-632h-71l-465 528v-460l106 -34v-34h-247v34l85 34v526l-65 75v31h140l461 -533v465l-105 34v34z" />
    <glyph glyph-name="Ograve" unicode="&#xd2;" horiz-adv-x="792" 
d="M240 926l229 -143l-11 -26l-264 59zM392 717q156 0 258 -99.5t102 -266.5q0 -163 -97.5 -265t-254.5 -102q-155 0 -257.5 99.5t-102.5 267.5q0 163 97.5 264.5t254.5 101.5zM411 35q100 0 153 84.5t53 207.5q0 137 -63 238t-172 101q-100 0 -153 -84t-53 -207
q0 -88 26 -164t81 -126t128 -50z" />
    <glyph glyph-name="Oacute" unicode="&#xd3;" horiz-adv-x="792" 
d="M558 926l46 -110l-264 -59l-11 26zM392 717q156 0 258 -99.5t102 -266.5q0 -163 -97.5 -265t-254.5 -102q-155 0 -257.5 99.5t-102.5 267.5q0 163 97.5 264.5t254.5 101.5zM411 35q100 0 153 84.5t53 207.5q0 137 -63 238t-172 101q-100 0 -153 -84t-53 -207
q0 -88 26 -164t81 -126t128 -50z" />
    <glyph glyph-name="Ocircumflex" unicode="&#xd4;" horiz-adv-x="792" 
d="M396 938l160 -137l-19 -25l-141 53l-141 -53l-18 25zM392 717q156 0 258 -99.5t102 -266.5q0 -163 -97.5 -265t-254.5 -102q-155 0 -257.5 99.5t-102.5 267.5q0 163 97.5 264.5t254.5 101.5zM411 35q100 0 153 84.5t53 207.5q0 137 -63 238t-172 101q-100 0 -153 -84
t-53 -207q0 -88 26 -164t81 -126t128 -50z" />
    <glyph glyph-name="Otilde" unicode="&#xd5;" horiz-adv-x="792" 
d="M510 776l-187 66l-61 -67l-25 14l71 161l162 -87l75 83l24 -14zM392 717q156 0 258 -99.5t102 -266.5q0 -163 -97.5 -265t-254.5 -102q-155 0 -257.5 99.5t-102.5 267.5q0 163 97.5 264.5t254.5 101.5zM411 35q100 0 153 84.5t53 207.5q0 137 -63 238t-172 101
q-100 0 -153 -84t-53 -207q0 -88 26 -164t81 -126t128 -50z" />
    <glyph glyph-name="Odieresis" unicode="&#xd6;" horiz-adv-x="792" 
d="M291 906q29 0 47.5 -18.5t18.5 -45.5q0 -28 -18.5 -47t-47.5 -19q-27 0 -45.5 19t-18.5 47q0 27 18.5 45.5t45.5 18.5zM499 906q28 0 47 -18.5t19 -45.5q0 -28 -19 -47t-47 -19t-46 19t-18 47q0 27 18 45.5t46 18.5zM392 717q156 0 258 -99.5t102 -266.5
q0 -163 -97.5 -265t-254.5 -102q-155 0 -257.5 99.5t-102.5 267.5q0 163 97.5 264.5t254.5 101.5zM411 35q100 0 153 84.5t53 207.5q0 137 -63 238t-172 101q-100 0 -153 -84t-53 -207q0 -88 26 -164t81 -126t128 -50z" />
    <glyph glyph-name="multiply" unicode="&#xd7;" horiz-adv-x="482" 
d="M60 472l34 37l145 -136l142 151l38 -35l-142 -152l145 -136l-34 -36l-145 136l-141 -151l-38 36l141 150z" />
    <glyph glyph-name="Oslash" unicode="&#xd8;" horiz-adv-x="792" 
d="M551 685q93 -42 147 -128.5t54 -205.5q0 -163 -97.5 -265t-254.5 -102q-69 0 -129 21l-39 -95h-57l47 116q-84 44 -133 128t-49 197q0 163 97.5 264.5t254.5 101.5q55 0 109 -14l44 108h58zM176 375q0 -165 82 -264l217 531q-43 24 -93 24q-100 0 -153 -84t-53 -207z
M411 35q100 0 153 84.5t53 207.5q0 84 -25.5 159t-72.5 122l-220 -536q48 -37 112 -37z" />
    <glyph glyph-name="Ugrave" unicode="&#xd9;" horiz-adv-x="794" 
d="M231 926l229 -143l-11 -26l-264 59zM523 700h246v-34l-86 -34v-374q0 -132 -78 -203t-195 -71q-123 0 -211.5 75.5t-88.5 209.5v363l-85 34v34h292v-34l-85 -34v-380q0 -102 51.5 -159.5t145.5 -57.5q100 0 149 61.5t49 160.5v375l-104 34v34z" />
    <glyph glyph-name="Uacute" unicode="&#xda;" horiz-adv-x="794" 
d="M587 926l46 -110l-264 -59l-11 26zM523 700h246v-34l-86 -34v-374q0 -132 -78 -203t-195 -71q-123 0 -211.5 75.5t-88.5 209.5v363l-85 34v34h292v-34l-85 -34v-380q0 -102 51.5 -159.5t145.5 -57.5q100 0 149 61.5t49 160.5v375l-104 34v34z" />
    <glyph glyph-name="Ucircumflex" unicode="&#xdb;" horiz-adv-x="794" 
d="M402 938l160 -137l-19 -25l-141 53l-141 -53l-18 25zM523 700h246v-34l-86 -34v-374q0 -132 -78 -203t-195 -71q-123 0 -211.5 75.5t-88.5 209.5v363l-85 34v34h292v-34l-85 -34v-380q0 -102 51.5 -159.5t145.5 -57.5q100 0 149 61.5t49 160.5v375l-104 34v34z" />
    <glyph glyph-name="Udieresis" unicode="&#xdc;" horiz-adv-x="794" 
d="M293 906q29 0 47.5 -18.5t18.5 -45.5q0 -28 -18.5 -47t-47.5 -19q-27 0 -45.5 19t-18.5 47q0 27 18.5 45.5t45.5 18.5zM501 906q28 0 47 -18.5t19 -45.5q0 -28 -19 -47t-47 -19t-46 19t-18 47q0 27 18 45.5t46 18.5zM523 700h246v-34l-86 -34v-374q0 -132 -78 -203
t-195 -71q-123 0 -211.5 75.5t-88.5 209.5v363l-85 34v34h292v-34l-85 -34v-380q0 -102 51.5 -159.5t145.5 -57.5q100 0 149 61.5t49 160.5v375l-104 34v34z" />
    <glyph glyph-name="Yacute" unicode="&#xdd;" horiz-adv-x="635" 
d="M487 926l46 -110l-264 -59l-11 26zM390 700h235v-34l-54 -28l-197 -313v-257l105 -34v-34h-332v34l105 34v214l-242 384v34h248v-34l-86 -32l159 -284l170 284l-111 32v34z" />
    <glyph glyph-name="Thorn" unicode="&#xde;" horiz-adv-x="649" 
d="M386 600q109 0 168.5 -56.5t59.5 -137.5q0 -88 -68.5 -152t-188.5 -64h-115v-122l104 -34v-34h-311v34l85 34v563l-85 35v34h293v-34l-86 -35v-31h144zM314 238q81 0 123 42.5t42 109.5q0 69 -44.5 115.5t-123.5 46.5h-69v-314h72z" />
    <glyph glyph-name="germandbls" unicode="&#xdf;" horiz-adv-x="639" 
d="M394 379q103 -23 154 -78t51 -123q0 -75 -55 -132t-139 -57q-70 0 -137 30l55 89l122 -91q72 31 72 116q0 63 -57.5 110.5t-165.5 56.5v90q74 9 106.5 55t32.5 109q0 50 -29.5 80t-72.5 30q-47 0 -80.5 -37.5t-33.5 -108.5v-518h-187v30l79 37v434q0 104 64 157t165 53
q88 0 149 -42.5t61 -115.5q0 -61 -44 -108t-110 -66z" />
    <glyph glyph-name="agrave" unicode="&#xe0;" horiz-adv-x="559" 
d="M127 770l213 -166l-14 -25l-256 86zM455 91l89 -29v-30l-192 -48v111q-71 -106 -172 -106q-59 0 -99.5 39t-40.5 104q0 35 14 61t37.5 44t64 31.5t84 21.5t107.5 17v45q0 57 -27 86t-67 35l-133 -133l-85 91q106 85 225 85q84 0 139.5 -43.5t55.5 -131.5v-250zM347 136
v134q-95 -18 -141.5 -45t-46.5 -78q0 -37 22.5 -55.5t55.5 -18.5q64 0 110 63z" />
    <glyph glyph-name="aacute" unicode="&#xe1;" horiz-adv-x="559" 
d="M423 770l57 -105l-256 -86l-14 25zM455 91l89 -29v-30l-192 -48v111q-71 -106 -172 -106q-59 0 -99.5 39t-40.5 104q0 35 14 61t37.5 44t64 31.5t84 21.5t107.5 17v45q0 57 -27 86t-67 35l-133 -133l-85 91q106 85 225 85q84 0 139.5 -43.5t55.5 -131.5v-250zM347 136
v134q-95 -18 -141.5 -45t-46.5 -78q0 -37 22.5 -55.5t55.5 -18.5q64 0 110 63z" />
    <glyph glyph-name="acircumflex" unicode="&#xe2;" horiz-adv-x="559" 
d="M258 741l160 -137l-19 -25l-141 53l-141 -53l-18 25zM455 91l89 -29v-30l-192 -48v111q-71 -106 -172 -106q-59 0 -99.5 39t-40.5 104q0 35 14 61t37.5 44t64 31.5t84 21.5t107.5 17v45q0 57 -27 86t-67 35l-133 -133l-85 91q106 85 225 85q84 0 139.5 -43.5t55.5 -131.5
v-250zM347 136v134q-95 -18 -141.5 -45t-46.5 -78q0 -37 22.5 -55.5t55.5 -18.5q64 0 110 63z" />
    <glyph glyph-name="atilde" unicode="&#xe3;" horiz-adv-x="559" 
d="M374 579l-187 66l-61 -67l-25 14l71 161l162 -87l75 83l24 -14zM455 91l89 -29v-30l-192 -48v111q-71 -106 -172 -106q-59 0 -99.5 39t-40.5 104q0 35 14 61t37.5 44t64 31.5t84 21.5t107.5 17v45q0 57 -27 86t-67 35l-133 -133l-85 91q106 85 225 85q84 0 139.5 -43.5
t55.5 -131.5v-250zM347 136v134q-95 -18 -141.5 -45t-46.5 -78q0 -37 22.5 -55.5t55.5 -18.5q64 0 110 63z" />
    <glyph glyph-name="adieresis" unicode="&#xe4;" horiz-adv-x="559" 
d="M165 709q29 0 47.5 -18.5t18.5 -45.5q0 -28 -18.5 -47t-47.5 -19q-27 0 -45.5 19t-18.5 47q0 27 18.5 45.5t45.5 18.5zM363 709q28 0 46.5 -18.5t18.5 -45.5q0 -28 -18.5 -47t-46.5 -19t-46 19t-18 47q0 27 18 45.5t46 18.5zM455 91l89 -29v-30l-192 -48v111
q-71 -106 -172 -106q-59 0 -99.5 39t-40.5 104q0 35 14 61t37.5 44t64 31.5t84 21.5t107.5 17v45q0 57 -27 86t-67 35l-133 -133l-85 91q106 85 225 85q84 0 139.5 -43.5t55.5 -131.5v-250zM347 136v134q-95 -18 -141.5 -45t-46.5 -78q0 -37 22.5 -55.5t55.5 -18.5
q64 0 110 63z" />
    <glyph glyph-name="aring" unicode="&#xe5;" horiz-adv-x="559" 
d="M364 683q0 49 -31.5 76.5t-72.5 27.5t-72.5 -27.5t-31.5 -76.5q0 -48 32 -76t72 -28t72 28t32 76zM315 683q0 -27 -16 -42.5t-39 -15.5t-39 15.5t-16 42.5q0 28 16 43.5t39 15.5t39 -15.5t16 -43.5zM455 91l89 -29v-30l-192 -48v111q-71 -106 -172 -106q-59 0 -99.5 39
t-40.5 104q0 35 14 61t37.5 44t64 31.5t84 21.5t107.5 17v45q0 57 -27 86t-67 35l-133 -133l-85 91q106 85 225 85q84 0 139.5 -43.5t55.5 -131.5v-250zM347 136v134q-95 -18 -141.5 -45t-46.5 -78q0 -37 22.5 -55.5t55.5 -18.5q64 0 110 63z" />
    <glyph glyph-name="ae" unicode="&#xe6;" horiz-adv-x="829" 
d="M780 164l22 -17q-27 -79 -87 -118.5t-130 -39.5q-64 0 -119.5 33t-86.5 93q-39 -63 -93.5 -94.5t-105.5 -31.5q-59 0 -99.5 39t-40.5 104q0 35 14 61t37.5 44t64 31.5t84 21.5t107.5 17v45q0 57 -27 86t-67 35l-133 -133l-85 91q106 85 225 85q112 0 164 -71
q69 71 173 71q98 0 146 -66.5t48 -168.5h-345q0 -88 53 -140.5t128 -52.5q94 0 153 76zM583 468q-50 0 -87 -41t-44 -96h221q2 14 2 26q0 48 -24.5 79.5t-67.5 31.5zM347 136v134q-95 -18 -141.5 -45t-46.5 -78q0 -37 22.5 -55.5t55.5 -18.5q64 0 110 63z" />
    <glyph glyph-name="ccedilla" unicode="&#xe7;" horiz-adv-x="519" 
d="M499 147q-34 -78 -91 -117.5t-126 -40.5v-50q47 1 74.5 -21t27.5 -56q0 -33 -26.5 -58.5t-74.5 -25.5q-60 0 -107 42l24 34q41 -38 84 -38q57 0 57 44q0 55 -107 55l14 76q-88 12 -148 80.5t-60 171.5q0 111 69 192t185 81q96 0 192 -66l-72 -93l-132 116
q-69 -14 -105.5 -67.5t-36.5 -126.5q0 -88 51.5 -139.5t128.5 -51.5q89 0 157 76z" />
    <glyph glyph-name="egrave" unicode="&#xe8;" horiz-adv-x="525" 
d="M162 770l213 -166l-14 -25l-256 86zM476 164l22 -17q-27 -79 -87 -118.5t-130 -39.5q-97 0 -169 69t-72 188q0 121 74.5 195.5t178.5 74.5q98 0 146 -66.5t48 -168.5h-347q0 -93 53 -143t129 -50q94 0 154 76zM279 468q-49 0 -84.5 -40.5t-46.5 -96.5h221q2 14 2 26
q0 48 -24.5 79.5t-67.5 31.5z" />
    <glyph glyph-name="eacute" unicode="&#xe9;" horiz-adv-x="525" 
d="M426 770l57 -105l-256 -86l-14 25zM476 164l22 -17q-27 -79 -87 -118.5t-130 -39.5q-97 0 -169 69t-72 188q0 121 74.5 195.5t178.5 74.5q98 0 146 -66.5t48 -168.5h-347q0 -93 53 -143t129 -50q94 0 154 76zM279 468q-49 0 -84.5 -40.5t-46.5 -96.5h221q2 14 2 26
q0 48 -24.5 79.5t-67.5 31.5z" />
    <glyph glyph-name="ecircumflex" unicode="&#xea;" horiz-adv-x="525" 
d="M277 741l160 -137l-19 -25l-141 53l-141 -53l-18 25zM476 164l22 -17q-27 -79 -87 -118.5t-130 -39.5q-97 0 -169 69t-72 188q0 121 74.5 195.5t178.5 74.5q98 0 146 -66.5t48 -168.5h-347q0 -93 53 -143t129 -50q94 0 154 76zM279 468q-49 0 -84.5 -40.5t-46.5 -96.5
h221q2 14 2 26q0 48 -24.5 79.5t-67.5 31.5z" />
    <glyph glyph-name="edieresis" unicode="&#xeb;" horiz-adv-x="525" 
d="M176 709q29 0 47.5 -18.5t18.5 -45.5q0 -28 -18.5 -47t-47.5 -19q-27 0 -45.5 19t-18.5 47q0 27 18.5 45.5t45.5 18.5zM374 709q28 0 46.5 -18.5t18.5 -45.5q0 -28 -18.5 -47t-46.5 -19t-46 19t-18 47q0 27 18 45.5t46 18.5zM476 164l22 -17q-27 -79 -87 -118.5
t-130 -39.5q-97 0 -169 69t-72 188q0 121 74.5 195.5t178.5 74.5q98 0 146 -66.5t48 -168.5h-347q0 -93 53 -143t129 -50q94 0 154 76zM279 468q-49 0 -84.5 -40.5t-46.5 -96.5h221q2 14 2 26q0 48 -24.5 79.5t-67.5 31.5z" />
    <glyph glyph-name="igrave" unicode="&#xec;" horiz-adv-x="326" 
d="M22 770l213 -166l-14 -25l-256 86zM227 516v-449l79 -37v-30h-266v30l79 37v341l-89 29v30z" />
    <glyph glyph-name="iacute" unicode="&#xed;" horiz-adv-x="326" 
d="M296 770l57 -105l-256 -86l-14 25zM227 516v-449l79 -37v-30h-266v30l79 37v341l-89 29v30z" />
    <glyph glyph-name="icircumflex" unicode="&#xee;" horiz-adv-x="326" 
d="M159 741l160 -137l-19 -25l-141 53l-141 -53l-18 25zM227 516v-449l79 -37v-30h-266v30l79 37v341l-89 29v30z" />
    <glyph glyph-name="idieresis" unicode="&#xef;" horiz-adv-x="326" 
d="M48 709q29 0 47.5 -18.5t18.5 -45.5q0 -28 -18.5 -47t-47.5 -19q-27 0 -45.5 19t-18.5 47q0 27 18.5 45.5t45.5 18.5zM246 709q28 0 46.5 -18.5t18.5 -45.5q0 -28 -18.5 -47t-46.5 -19t-46 19t-18 47q0 27 18 45.5t46 18.5zM227 516v-449l79 -37v-30h-266v30l79 37v341
l-89 29v30z" />
    <glyph glyph-name="eth" unicode="&#xf0;" horiz-adv-x="625" 
d="M421 663q78 -45 121 -135t43 -194q0 -90 -31 -166.5t-98.5 -127.5t-160.5 -51q-118 0 -186.5 73.5t-68.5 170.5q0 96 67 157t161 61q114 0 195 -94q-2 168 -88 253l-75 -86l-32 26l75 86q-22 16 -58 26l-147 -142l-86 92q107 88 230 88q54 0 101 -18l55 63l30 -28z
M293 40q71 0 116 74t52 195q-65 62 -143 62q-66 0 -110 -46t-44 -123q0 -71 36.5 -116.5t92.5 -45.5z" />
    <glyph glyph-name="ntilde" unicode="&#xf1;" horiz-adv-x="652" 
d="M461 579l-187 66l-61 -67l-25 14l71 161l162 -87l75 83l24 -14zM553 67l79 -37v-30h-266v30l79 37v245q0 59 -28 87t-73 28q-35 0 -67 -17t-50 -44v-299l79 -37v-30h-266v30l79 37v342l-89 29v30l191 48v-109q30 53 77 81t100 28q68 0 111.5 -45t43.5 -132v-272z" />
    <glyph glyph-name="ograve" unicode="&#xf2;" horiz-adv-x="591" 
d="M159 770l213 -166l-14 -25l-256 86zM299 516q115 0 183.5 -74t68.5 -190q0 -118 -73 -190.5t-186 -72.5q-114 0 -183 74t-69 189q0 119 73 191.5t186 72.5zM305 37q61 0 93 55.5t32 141.5q0 96 -38 165t-106 69q-61 0 -93 -55.5t-32 -141.5q0 -97 38 -165.5t106 -68.5z
" />
    <glyph glyph-name="oacute" unicode="&#xf3;" horiz-adv-x="591" 
d="M433 770l57 -105l-256 -86l-14 25zM299 516q115 0 183.5 -74t68.5 -190q0 -118 -73 -190.5t-186 -72.5q-114 0 -183 74t-69 189q0 119 73 191.5t186 72.5zM305 37q61 0 93 55.5t32 141.5q0 96 -38 165t-106 69q-61 0 -93 -55.5t-32 -141.5q0 -97 38 -165.5t106 -68.5z
" />
    <glyph glyph-name="ocircumflex" unicode="&#xf4;" horiz-adv-x="591" 
d="M295 741l160 -137l-19 -25l-141 53l-141 -53l-18 25zM299 516q115 0 183.5 -74t68.5 -190q0 -118 -73 -190.5t-186 -72.5q-114 0 -183 74t-69 189q0 119 73 191.5t186 72.5zM305 37q61 0 93 55.5t32 141.5q0 96 -38 165t-106 69q-61 0 -93 -55.5t-32 -141.5
q0 -97 38 -165.5t106 -68.5z" />
    <glyph glyph-name="otilde" unicode="&#xf5;" horiz-adv-x="591" 
d="M405 579l-187 66l-61 -67l-25 14l71 161l162 -87l75 83l24 -14zM299 516q115 0 183.5 -74t68.5 -190q0 -118 -73 -190.5t-186 -72.5q-114 0 -183 74t-69 189q0 119 73 191.5t186 72.5zM305 37q61 0 93 55.5t32 141.5q0 96 -38 165t-106 69q-61 0 -93 -55.5t-32 -141.5
q0 -97 38 -165.5t106 -68.5z" />
    <glyph glyph-name="odieresis" unicode="&#xf6;" horiz-adv-x="591" 
d="M196 709q29 0 47.5 -18.5t18.5 -45.5q0 -28 -18.5 -47t-47.5 -19q-27 0 -45.5 19t-18.5 47q0 27 18.5 45.5t45.5 18.5zM394 709q28 0 46.5 -18.5t18.5 -45.5q0 -28 -18.5 -47t-46.5 -19t-46 19t-18 47q0 27 18 45.5t46 18.5zM299 516q115 0 183.5 -74t68.5 -190
q0 -118 -73 -190.5t-186 -72.5q-114 0 -183 74t-69 189q0 119 73 191.5t186 72.5zM305 37q61 0 93 55.5t32 141.5q0 96 -38 165t-106 69q-61 0 -93 -55.5t-32 -141.5q0 -97 38 -165.5t106 -68.5z" />
    <glyph glyph-name="divide" unicode="&#xf7;" horiz-adv-x="570" 
d="M285 456q-33 0 -55.5 23t-22.5 57q0 33 22.5 55t55.5 22q32 0 55 -22t23 -55q0 -34 -23 -57t-55 -23zM510 375v-50h-450v50h450zM285 87q-33 0 -55.5 23t-22.5 57q0 33 22.5 55t55.5 22q32 0 55 -22t23 -55q0 -34 -23 -57t-55 -23z" />
    <glyph glyph-name="oslash" unicode="&#xf8;" horiz-adv-x="591" 
d="M418 489q63 -31 98 -93.5t35 -143.5q0 -118 -73 -190.5t-186 -72.5q-42 0 -75 10l-36 -89h-52l43 106q-62 32 -97 94t-35 142q0 119 73 191.5t186 72.5q39 0 73 -9l32 79h54zM161 271q0 -107 44 -175l143 353q-28 19 -62 19q-61 0 -93 -55.5t-32 -141.5zM305 37
q61 0 93 55.5t32 141.5q0 108 -44 175l-145 -352q29 -20 64 -20z" />
    <glyph glyph-name="ugrave" unicode="&#xf9;" horiz-adv-x="619" 
d="M147 770l213 -166l-14 -25l-256 86zM515 91l89 -29v-30l-192 -48v113q-63 -108 -167 -108q-70 0 -113 44.5t-43 131.5v243l-89 29v30l197 49v-322q0 -115 94 -115q34 0 66 16.5t50 42.5v272l-83 28v30l191 48v-425z" />
    <glyph glyph-name="uacute" unicode="&#xfa;" horiz-adv-x="619" 
d="M440 770l57 -105l-256 -86l-14 25zM515 91l89 -29v-30l-192 -48v113q-63 -108 -167 -108q-70 0 -113 44.5t-43 131.5v243l-89 29v30l197 49v-322q0 -115 94 -115q34 0 66 16.5t50 42.5v272l-83 28v30l191 48v-425z" />
    <glyph glyph-name="ucircumflex" unicode="&#xfb;" horiz-adv-x="619" 
d="M290 741l160 -137l-19 -25l-141 53l-141 -53l-18 25zM515 91l89 -29v-30l-192 -48v113q-63 -108 -167 -108q-70 0 -113 44.5t-43 131.5v243l-89 29v30l197 49v-322q0 -115 94 -115q34 0 66 16.5t50 42.5v272l-83 28v30l191 48v-425z" />
    <glyph glyph-name="udieresis" unicode="&#xfc;" horiz-adv-x="619" 
d="M189 709q29 0 47.5 -18.5t18.5 -45.5q0 -28 -18.5 -47t-47.5 -19q-27 0 -45.5 19t-18.5 47q0 27 18.5 45.5t45.5 18.5zM387 709q28 0 46.5 -18.5t18.5 -45.5q0 -28 -18.5 -47t-46.5 -19t-46 19t-18 47q0 27 18 45.5t46 18.5zM515 91l89 -29v-30l-192 -48v113
q-63 -108 -167 -108q-70 0 -113 44.5t-43 131.5v243l-89 29v30l197 49v-322q0 -115 94 -115q34 0 66 16.5t50 42.5v272l-83 28v30l191 48v-425z" />
    <glyph glyph-name="yacute" unicode="&#xfd;" horiz-adv-x="512" 
d="M402 770l57 -105l-256 -86l-14 25zM288 506h214v-29l-220 -510q-59 -137 -182 -137q-56 0 -116 28l29 94h30q41 -32 87 -32q43 0 78.5 27t49.5 73l-203 403l-75 17v30l155 46l178 -365l112 275l-137 51v29z" />
    <glyph glyph-name="thorn" unicode="&#xfe;" horiz-adv-x="619" 
d="M372 516q96 0 151.5 -73.5t55.5 -176.5q0 -108 -61 -187t-171 -79q-68 0 -125 40v-173l99 -37v-30h-286v30l79 37v758l-89 29v30l197 49v-307q49 90 150 90zM328 48q65 0 100.5 55t35.5 132q0 78 -37 132t-105 54q-62 0 -100 -38v-173q0 -162 106 -162z" />
    <glyph glyph-name="ydieresis" unicode="&#xff;" horiz-adv-x="512" 
d="M150 709q29 0 47.5 -18.5t18.5 -45.5q0 -28 -18.5 -47t-47.5 -19q-27 0 -45.5 19t-18.5 47q0 27 18.5 45.5t45.5 18.5zM348 709q28 0 46.5 -18.5t18.5 -45.5q0 -28 -18.5 -47t-46.5 -19t-46 19t-18 47q0 27 18 45.5t46 18.5zM288 506h214v-29l-220 -510
q-59 -137 -182 -137q-56 0 -116 28l29 94h30q41 -32 87 -32q43 0 78.5 27t49.5 73l-203 403l-75 17v30l155 46l178 -365l112 275l-137 51v29z" />
    <glyph glyph-name="Amacron" unicode="&#x100;" horiz-adv-x="770" 
d="M546 842v-66h-331v66h331zM689 64l71 -30v-34h-298v34l95 32l-63 149h-284l-61 -150l95 -31v-34h-229v34l72 31l236 554l-21 50v31h120zM231 265h241l-123 289z" />
    <glyph glyph-name="amacron" unicode="&#x101;" horiz-adv-x="559" 
d="M432 627h-325v66h325v-66zM455 91l89 -29v-30l-192 -48v111q-71 -106 -172 -106q-59 0 -99.5 39t-40.5 104q0 35 14 61t37.5 44t64 31.5t84 21.5t107.5 17v45q0 57 -27 86t-67 35l-133 -133l-85 91q106 85 225 85q84 0 139.5 -43.5t55.5 -131.5v-250zM347 136v134
q-95 -18 -141.5 -45t-46.5 -78q0 -37 22.5 -55.5t55.5 -18.5q64 0 110 63z" />
    <glyph glyph-name="Abreve" unicode="&#x102;" horiz-adv-x="770" 
d="M363 776q-61 0 -101.5 43t-45.5 119l29 8q37 -80 118 -80q84 0 119 80l29 -8q-5 -76 -45.5 -119t-102.5 -43zM689 64l71 -30v-34h-298v34l95 32l-63 149h-284l-61 -150l95 -31v-34h-229v34l72 31l236 554l-21 50v31h120zM231 265h241l-123 289z" />
    <glyph glyph-name="abreve" unicode="&#x103;" horiz-adv-x="559" 
d="M409 741q-5 -76 -45.5 -119t-102.5 -43q-61 0 -101.5 43t-45.5 119l29 8q37 -80 118 -80q84 0 119 80zM455 91l89 -29v-30l-192 -48v111q-71 -106 -172 -106q-59 0 -99.5 39t-40.5 104q0 35 14 61t37.5 44t64 31.5t84 21.5t107.5 17v45q0 57 -27 86t-67 35l-133 -133
l-85 91q106 85 225 85q84 0 139.5 -43.5t55.5 -131.5v-250zM347 136v134q-95 -18 -141.5 -45t-46.5 -78q0 -37 22.5 -55.5t55.5 -18.5q64 0 110 63z" />
    <glyph glyph-name="Aogonek" unicode="&#x104;" horiz-adv-x="770" 
d="M689 64l71 -30v-34q-42 -6 -75 -24.5t-33 -46.5q0 -43 86 -43v-85q-78 0 -125 24.5t-47 72.5q0 25 11.5 43.5t32.5 28.5t40.5 15.5t47.5 9.5v5h-236v34l95 32l-63 149h-284l-61 -150l95 -31v-34h-229v34l72 31l236 554l-21 50v31h120zM231 265h241l-123 289z" />
    <glyph glyph-name="aogonek" unicode="&#x105;" horiz-adv-x="559" 
d="M455 91l89 -29v-30l-155 -39q-61 -22 -61 -59q0 -43 86 -43v-85q-78 0 -125 24.5t-47 72.5q0 43 30 63.5t80 29.5v99q-71 -106 -172 -106q-59 0 -99.5 39t-40.5 104q0 35 14 61t37.5 44t64 31.5t84 21.5t107.5 17v45q0 57 -27 86t-67 35l-133 -133l-85 91q106 85 225 85
q84 0 139.5 -43.5t55.5 -131.5v-250zM347 136v134q-95 -18 -141.5 -45t-46.5 -78q0 -37 22.5 -55.5t55.5 -18.5q64 0 110 63z" />
    <glyph glyph-name="Cacute" unicode="&#x106;" horiz-adv-x="721" 
d="M604 926l46 -110l-264 -59l-11 26zM664 188l27 -22q-49 -92 -128.5 -137t-168.5 -45q-65 0 -127 23.5t-113 66.5t-82.5 113.5t-31.5 155.5q0 166 109.5 270t259.5 104q67 0 140.5 -23.5t133.5 -71.5l-94 -112l-186 167q-125 -10 -192.5 -95t-67.5 -193
q0 -121 79.5 -206.5t208.5 -85.5q135 0 233 91z" />
    <glyph glyph-name="cacute" unicode="&#x107;" horiz-adv-x="519" 
d="M427 770l57 -105l-256 -86l-14 25zM282 473q-69 -14 -105.5 -67.5t-36.5 -126.5q0 -88 51.5 -139.5t128.5 -51.5q89 0 157 76l22 -17q-34 -79 -91.5 -118.5t-127.5 -39.5q-99 0 -169.5 70.5t-70.5 183.5q0 111 69 192t185 81q96 0 192 -66l-72 -93z" />
    <glyph glyph-name="Ccircumflex" unicode="&#x108;" horiz-adv-x="721" 
d="M404 938l160 -137l-19 -25l-141 53l-141 -53l-18 25zM664 188l27 -22q-49 -92 -128.5 -137t-168.5 -45q-65 0 -127 23.5t-113 66.5t-82.5 113.5t-31.5 155.5q0 166 109.5 270t259.5 104q67 0 140.5 -23.5t133.5 -71.5l-94 -112l-186 167q-125 -10 -192.5 -95t-67.5 -193
q0 -121 79.5 -206.5t208.5 -85.5q135 0 233 91z" />
    <glyph glyph-name="ccircumflex" unicode="&#x109;" horiz-adv-x="519" 
d="M296 741l160 -137l-19 -25l-141 53l-141 -53l-18 25zM282 473q-69 -14 -105.5 -67.5t-36.5 -126.5q0 -88 51.5 -139.5t128.5 -51.5q89 0 157 76l22 -17q-34 -79 -91.5 -118.5t-127.5 -39.5q-99 0 -169.5 70.5t-70.5 183.5q0 111 69 192t185 81q96 0 192 -66l-72 -93z" />
    <glyph glyph-name="Cdotaccent" unicode="&#x10a;" horiz-adv-x="721" 
d="M402 776q-33 0 -55.5 23t-22.5 57q0 33 22.5 55t55.5 22q32 0 55 -22t23 -55q0 -34 -23 -57t-55 -23zM664 188l27 -22q-49 -92 -128.5 -137t-168.5 -45q-65 0 -127 23.5t-113 66.5t-82.5 113.5t-31.5 155.5q0 166 109.5 270t259.5 104q67 0 140.5 -23.5t133.5 -71.5
l-94 -112l-186 167q-125 -10 -192.5 -95t-67.5 -193q0 -121 79.5 -206.5t208.5 -85.5q135 0 233 91z" />
    <glyph glyph-name="cdotaccent" unicode="&#x10b;" horiz-adv-x="519" 
d="M298 580q-33 0 -55.5 23t-22.5 57q0 33 22.5 55t55.5 22q32 0 55 -22t23 -55q0 -34 -23 -57t-55 -23zM282 473q-69 -14 -105.5 -67.5t-36.5 -126.5q0 -88 51.5 -139.5t128.5 -51.5q89 0 157 76l22 -17q-34 -79 -91.5 -118.5t-127.5 -39.5q-99 0 -169.5 70.5t-70.5 183.5
q0 111 69 192t185 81q96 0 192 -66l-72 -93z" />
    <glyph glyph-name="Ccaron" unicode="&#x10c;" horiz-adv-x="721" 
d="M397 766l-159 137l18 25l141 -53l141 53l19 -25zM664 188l27 -22q-49 -92 -128.5 -137t-168.5 -45q-65 0 -127 23.5t-113 66.5t-82.5 113.5t-31.5 155.5q0 166 109.5 270t259.5 104q67 0 140.5 -23.5t133.5 -71.5l-94 -112l-186 167q-125 -10 -192.5 -95t-67.5 -193
q0 -121 79.5 -206.5t208.5 -85.5q135 0 233 91z" />
    <glyph glyph-name="ccaron" unicode="&#x10d;" horiz-adv-x="519" 
d="M293 569l-160 137l19 25l141 -53l141 53l18 -25zM282 473q-69 -14 -105.5 -67.5t-36.5 -126.5q0 -88 51.5 -139.5t128.5 -51.5q89 0 157 76l22 -17q-34 -79 -91.5 -118.5t-127.5 -39.5q-99 0 -169.5 70.5t-70.5 183.5q0 111 69 192t185 81q96 0 192 -66l-72 -93z" />
    <glyph glyph-name="Dcaron" unicode="&#x10e;" horiz-adv-x="751" 
d="M321 766l-159 137l18 25l141 -53l141 53l19 -25zM369 700q82 0 148.5 -27.5t108 -73.5t63.5 -104.5t22 -122.5q0 -69 -25.5 -134.5t-73 -119t-125.5 -86t-174 -32.5h-278v34l85 34v564l-85 34v34h334zM300 49q133 0 205.5 83t72.5 209q0 129 -76 220t-210 91h-50v-603h58
z" />
    <glyph glyph-name="dcaron" unicode="&#x10f;" horiz-adv-x="821" 
d="M508 91l89 -29v-30l-192 -48v98q-56 -93 -158 -93q-99 0 -153 73.5t-54 177.5q0 112 61 194t171 82q74 0 128 -40v149l-89 29v30l197 49v-642zM690 710q35 0 60.5 -23.5t25.5 -70.5q0 -19 -4.5 -37t-10 -31.5t-17.5 -30l-19 -26t-24 -25t-23.5 -20.5l-25.5 -20.5
t-22 -17.5l-30 34l123 115l-11 20q-12 -6 -31 -6q-25 0 -45.5 19t-20.5 50q0 29 22 49.5t53 20.5zM400 122v187q0 159 -107 159q-65 0 -101 -57.5t-36 -135.5q0 -79 37.5 -135t105.5 -56q61 0 101 38z" />
    <glyph glyph-name="Dcroat" unicode="&#x110;" horiz-adv-x="753" 
d="M371 700q82 0 148.5 -27.5t108 -73.5t63.5 -104.5t22 -122.5q0 -69 -25.5 -134.5t-73 -119t-125.5 -86t-174 -32.5h-278v34l85 34v261h-87v46h87v257l-85 34v34h334zM302 49q133 0 205.5 83t72.5 209q0 129 -76 220t-210 91h-50v-277h144v-46h-144v-280h58z" />
    <glyph glyph-name="dcroat" unicode="&#x111;" horiz-adv-x="612" 
d="M508 91l89 -29v-30l-192 -48v98q-56 -93 -158 -93q-99 0 -153 73.5t-54 177.5q0 112 61 194t171 82q74 0 128 -40v149l-89 29v30l197 49v-70h88v-45h-88v-527zM400 122v187q0 159 -107 159q-65 0 -101 -57.5t-36 -135.5q0 -79 37.5 -135t105.5 -56q61 0 101 38z" />
    <glyph glyph-name="Emacron" unicode="&#x112;" horiz-adv-x="712" 
d="M528 776h-331v66h331v-66zM633 250l29 -11l-25 -239h-602v34l85 34v564l-85 34v34h589l23 -231l-29 -10l-140 193h-236v-273h150l55 101h28v-251h-28l-55 101h-150v-281h241z" />
    <glyph glyph-name="emacron" unicode="&#x113;" horiz-adv-x="525" 
d="M432 627h-325v66h325v-66zM476 164l22 -17q-27 -79 -87 -118.5t-130 -39.5q-97 0 -169 69t-72 188q0 121 74.5 195.5t178.5 74.5q98 0 146 -66.5t48 -168.5h-347q0 -93 53 -143t129 -50q94 0 154 76zM279 468q-49 0 -84.5 -40.5t-46.5 -96.5h221q2 14 2 26
q0 48 -24.5 79.5t-67.5 31.5z" />
    <glyph glyph-name="Ebreve" unicode="&#x114;" horiz-adv-x="712" 
d="M513 938q-5 -76 -45.5 -119t-102.5 -43q-61 0 -101.5 43t-45.5 119l29 8q37 -80 118 -80q84 0 119 80zM633 250l29 -11l-25 -239h-602v34l85 34v564l-85 34v34h589l23 -231l-29 -10l-140 193h-236v-273h150l55 101h28v-251h-28l-55 101h-150v-281h241z" />
    <glyph glyph-name="ebreve" unicode="&#x115;" horiz-adv-x="525" 
d="M413 741q-5 -76 -45.5 -119t-102.5 -43q-61 0 -101.5 43t-45.5 119l29 8q37 -80 118 -80q84 0 119 80zM476 164l22 -17q-27 -79 -87 -118.5t-130 -39.5q-97 0 -169 69t-72 188q0 121 74.5 195.5t178.5 74.5q98 0 146 -66.5t48 -168.5h-347q0 -93 53 -143t129 -50
q94 0 154 76zM279 468q-49 0 -84.5 -40.5t-46.5 -96.5h221q2 14 2 26q0 48 -24.5 79.5t-67.5 31.5z" />
    <glyph glyph-name="Edotaccent" unicode="&#x116;" horiz-adv-x="712" 
d="M367 776q-33 0 -55.5 23t-22.5 57q0 33 22.5 55t55.5 22q32 0 55 -22t23 -55q0 -34 -23 -57t-55 -23zM633 250l29 -11l-25 -239h-602v34l85 34v564l-85 34v34h589l23 -231l-29 -10l-140 193h-236v-273h150l55 101h28v-251h-28l-55 101h-150v-281h241z" />
    <glyph glyph-name="edotaccent" unicode="&#x117;" horiz-adv-x="525" 
d="M261 580q-33 0 -55.5 23t-22.5 57q0 33 22.5 55t55.5 22q32 0 55 -22t23 -55q0 -34 -23 -57t-55 -23zM476 164l22 -17q-27 -79 -87 -118.5t-130 -39.5q-97 0 -169 69t-72 188q0 121 74.5 195.5t178.5 74.5q98 0 146 -66.5t48 -168.5h-347q0 -93 53 -143t129 -50
q94 0 154 76zM279 468q-49 0 -84.5 -40.5t-46.5 -96.5h221q2 14 2 26q0 48 -24.5 79.5t-67.5 31.5z" />
    <glyph glyph-name="Eogonek" unicode="&#x118;" horiz-adv-x="712" 
d="M633 250l29 -11l-25 -239h-35q-42 -6 -75 -24.5t-33 -46.5q0 -43 86 -43v-85q-78 0 -125 24.5t-47 72.5q0 25 11.5 43.5t32.5 28.5t40.5 15.5t47.5 9.5v5h-505v34l85 34v564l-85 34v34h589l23 -231l-29 -10l-140 193h-236v-273h150l55 101h28v-251h-28l-55 101h-150v-281
h241z" />
    <glyph glyph-name="eogonek" unicode="&#x119;" horiz-adv-x="525" 
d="M304 -10q-38 -8 -65 -25.5t-27 -42.5q0 -43 86 -43v-85q-78 0 -125 24.5t-47 72.5q0 25 11.5 43.5t32.5 28.5t40.5 15.5t47.5 9.5v2q-90 9 -154 77t-64 179q0 121 74.5 195.5t178.5 74.5q98 0 146 -66.5t48 -168.5h-347q0 -93 53 -143t129 -50q94 0 154 76l22 -17
q-25 -72 -77.5 -111t-116.5 -46zM279 468q-49 0 -84.5 -40.5t-46.5 -96.5h221q2 14 2 26q0 48 -24.5 79.5t-67.5 31.5z" />
    <glyph glyph-name="Ecaron" unicode="&#x11a;" horiz-adv-x="712" 
d="M375 766l-159 137l18 25l141 -53l141 53l19 -25zM633 250l29 -11l-25 -239h-602v34l85 34v564l-85 34v34h589l23 -231l-29 -10l-140 193h-236v-273h150l55 101h28v-251h-28l-55 101h-150v-281h241z" />
    <glyph glyph-name="ecaron" unicode="&#x11b;" horiz-adv-x="525" 
d="M286 569l-160 137l19 25l141 -53l141 53l18 -25zM476 164l22 -17q-27 -79 -87 -118.5t-130 -39.5q-97 0 -169 69t-72 188q0 121 74.5 195.5t178.5 74.5q98 0 146 -66.5t48 -168.5h-347q0 -93 53 -143t129 -50q94 0 154 76zM279 468q-49 0 -84.5 -40.5t-46.5 -96.5h221
q2 14 2 26q0 48 -24.5 79.5t-67.5 31.5z" />
    <glyph glyph-name="Gcircumflex" unicode="&#x11c;" horiz-adv-x="765" 
d="M403 938l160 -137l-19 -25l-141 53l-141 -53l-18 25zM369 357h316v-357h-31l-66 67q-99 -83 -217 -83q-135 0 -233 99t-98 258q0 168 109.5 272t259.5 104q67 0 140.5 -23.5t133.5 -71.5l-94 -112l-186 167q-125 -10 -192.5 -95.5t-67.5 -198.5q0 -126 81 -218t217 -92
q73 0 123 33v201l-195 -63v113z" />
    <glyph glyph-name="gcircumflex" unicode="&#x11d;" horiz-adv-x="588" 
d="M289 741l160 -137l-19 -25l-141 53l-141 -53l-18 25zM393 74q69 0 111 -33.5t42 -92.5q0 -71 -65.5 -119.5t-206.5 -48.5q-124 0 -184 37t-60 86q0 35 31 59t82 32q-42 12 -64.5 41t-22.5 65t23 63.5t66 40.5q-73 53 -73 141q0 75 58.5 123t144.5 48q41 0 99 -23l183 72
l16 -99h-177q98 -45 98 -141q0 -69 -57.5 -116t-147.5 -47q-61 0 -114 24q-41 -11 -41 -55q0 -25 19 -41t54 -16h186zM274 468q-41 0 -64 -35.5t-23 -81.5q0 -53 28.5 -97.5t75.5 -44.5q41 0 64 35.5t23 81.5q0 53 -28.5 97.5t-75.5 44.5zM285 -173q73 0 118 25t45 69
q0 35 -27.5 47t-75.5 12h-178q-27 -30 -27 -65q0 -44 38.5 -66t106.5 -22z" />
    <glyph glyph-name="Gbreve" unicode="&#x11e;" horiz-adv-x="765" 
d="M556 938q-5 -76 -45.5 -119t-102.5 -43q-61 0 -101.5 43t-45.5 119l29 8q37 -80 118 -80q84 0 119 80zM369 357h316v-357h-31l-66 67q-99 -83 -217 -83q-135 0 -233 99t-98 258q0 168 109.5 272t259.5 104q67 0 140.5 -23.5t133.5 -71.5l-94 -112l-186 167
q-125 -10 -192.5 -95.5t-67.5 -198.5q0 -126 81 -218t217 -92q73 0 123 33v201l-195 -63v113z" />
    <glyph glyph-name="gbreve" unicode="&#x11f;" horiz-adv-x="588" 
d="M446 741q-5 -76 -45.5 -119t-102.5 -43q-61 0 -101.5 43t-45.5 119l29 8q37 -80 118 -80q84 0 119 80zM393 74q69 0 111 -33.5t42 -92.5q0 -71 -65.5 -119.5t-206.5 -48.5q-124 0 -184 37t-60 86q0 35 31 59t82 32q-42 12 -64.5 41t-22.5 65t23 63.5t66 40.5
q-73 53 -73 141q0 75 58.5 123t144.5 48q41 0 99 -23l183 72l16 -99h-177q98 -45 98 -141q0 -69 -57.5 -116t-147.5 -47q-61 0 -114 24q-41 -11 -41 -55q0 -25 19 -41t54 -16h186zM274 468q-41 0 -64 -35.5t-23 -81.5q0 -53 28.5 -97.5t75.5 -44.5q41 0 64 35.5t23 81.5
q0 53 -28.5 97.5t-75.5 44.5zM285 -173q73 0 118 25t45 69q0 35 -27.5 47t-75.5 12h-178q-27 -30 -27 -65q0 -44 38.5 -66t106.5 -22z" />
    <glyph glyph-name="Gdotaccent" unicode="&#x120;" horiz-adv-x="765" 
d="M399 776q-33 0 -55.5 23t-22.5 57q0 33 22.5 55t55.5 22q32 0 55 -22t23 -55q0 -34 -23 -57t-55 -23zM369 357h316v-357h-31l-66 67q-99 -83 -217 -83q-135 0 -233 99t-98 258q0 168 109.5 272t259.5 104q67 0 140.5 -23.5t133.5 -71.5l-94 -112l-186 167
q-125 -10 -192.5 -95.5t-67.5 -198.5q0 -126 81 -218t217 -92q73 0 123 33v201l-195 -63v113z" />
    <glyph glyph-name="gdotaccent" unicode="&#x121;" horiz-adv-x="588" 
d="M298 580q-33 0 -55.5 23t-22.5 57q0 33 22.5 55t55.5 22q32 0 55 -22t23 -55q0 -34 -23 -57t-55 -23zM393 74q69 0 111 -33.5t42 -92.5q0 -71 -65.5 -119.5t-206.5 -48.5q-124 0 -184 37t-60 86q0 35 31 59t82 32q-42 12 -64.5 41t-22.5 65t23 63.5t66 40.5
q-73 53 -73 141q0 75 58.5 123t144.5 48q41 0 99 -23l183 72l16 -99h-177q98 -45 98 -141q0 -69 -57.5 -116t-147.5 -47q-61 0 -114 24q-41 -11 -41 -55q0 -25 19 -41t54 -16h186zM274 468q-41 0 -64 -35.5t-23 -81.5q0 -53 28.5 -97.5t75.5 -44.5q41 0 64 35.5t23 81.5
q0 53 -28.5 97.5t-75.5 44.5zM285 -173q73 0 118 25t45 69q0 35 -27.5 47t-75.5 12h-178q-27 -30 -27 -65q0 -44 38.5 -66t106.5 -22z" />
    <glyph glyph-name="Gcommaaccent" unicode="&#x122;" horiz-adv-x="765" 
d="M369 357h316v-357h-31l-66 67q-99 -83 -217 -83q-135 0 -233 99t-98 258q0 168 109.5 272t259.5 104q67 0 140.5 -23.5t133.5 -71.5l-94 -112l-186 167q-125 -10 -192.5 -95.5t-67.5 -198.5q0 -126 81 -218t217 -92q73 0 123 33v201l-195 -63v113zM373 -59
q35 0 60.5 -23.5t25.5 -70.5q0 -19 -4.5 -37t-10 -31.5t-17.5 -30l-19 -26t-24 -25t-23.5 -20.5l-25.5 -20.5t-22 -17.5l-30 34l123 115l-11 20q-12 -6 -31 -6q-25 0 -45.5 19t-20.5 50q0 29 22 49.5t53 20.5z" />
    <glyph glyph-name="gcommaaccent" unicode="&#x123;" horiz-adv-x="588" 
d="M295 566q-35 0 -60.5 23.5t-25.5 70.5q0 19 4.5 37t10 31.5t17.5 30l19 26t24 25t23.5 20.5l25.5 20.5t22 17.5l30 -34l-123 -115l11 -20q12 6 31 6q25 0 45.5 -19t20.5 -50q0 -29 -22 -49.5t-53 -20.5zM393 74q69 0 111 -33.5t42 -92.5q0 -71 -65.5 -119.5t-206.5 -48.5
q-124 0 -184 37t-60 86q0 35 31 59t82 32q-42 12 -64.5 41t-22.5 65t23 63.5t66 40.5q-73 53 -73 141q0 75 58.5 123t144.5 48q41 0 99 -23l183 72l16 -99h-177q98 -45 98 -141q0 -69 -57.5 -116t-147.5 -47q-61 0 -114 24q-41 -11 -41 -55q0 -25 19 -41t54 -16h186z
M274 468q-41 0 -64 -35.5t-23 -81.5q0 -53 28.5 -97.5t75.5 -44.5q41 0 64 35.5t23 81.5q0 53 -28.5 97.5t-75.5 44.5zM285 -173q73 0 118 25t45 69q0 35 -27.5 47t-75.5 12h-178q-27 -30 -27 -65q0 -44 38.5 -66t106.5 -22z" />
    <glyph glyph-name="Hcircumflex" unicode="&#x124;" horiz-adv-x="823" 
d="M411 938l160 -137l-19 -25l-141 53l-141 -53l-18 25zM788 666l-85 -34v-564l85 -34v-34h-292v34l85 34v263h-339v-263l85 -34v-34h-292v34l85 34v564l-85 34v34h292v-34l-85 -34v-251h339v251l-85 34v34h292v-34z" />
    <glyph glyph-name="hcircumflex" unicode="&#x125;" horiz-adv-x="652" 
d="M414 741l160 -137l-19 -25l-141 53l-141 -53l-18 25zM553 67l79 -37v-30h-266v30l79 37v245q0 59 -28 87t-73 28q-35 0 -67 -17t-50 -44v-299l79 -37v-30h-266v30l79 37v558l-89 29v30l197 49v-316q30 48 75 73.5t96 25.5q68 0 111.5 -45t43.5 -132v-272z" />
    <glyph glyph-name="Hbar" unicode="&#x126;" horiz-adv-x="823" 
d="M788 666l-85 -34v-121h81v-45h-81v-398l85 -34v-34h-292v34l85 34v263h-339v-263l85 -34v-34h-292v34l85 34v398h-83v45h83v121l-85 34v34h292v-34l-85 -34v-121h339v121l-85 34v34h292v-34zM581 381v85h-339v-85h339z" />
    <glyph glyph-name="hbar" unicode="&#x127;" horiz-adv-x="652" 
d="M553 67l79 -37v-30h-266v30l79 37v245q0 59 -28 87t-73 28q-35 0 -67 -17t-50 -44v-299l79 -37v-30h-266v30l79 37v558l-89 29v30l197 49v-70h113v-45h-113v-201q30 48 75 73.5t96 25.5q68 0 111.5 -45t43.5 -132v-272z" />
    <glyph glyph-name="Itilde" unicode="&#x128;" horiz-adv-x="361" 
d="M298 776l-187 66l-61 -67l-25 14l71 161l162 -87l75 83l24 -14zM329 666l-85 -34v-564l85 -34v-34h-292v34l85 34v564l-85 34v34h292v-34z" />
    <glyph glyph-name="itilde" unicode="&#x129;" horiz-adv-x="323" 
d="M258 579l-187 66l-61 -67l-25 14l71 161l162 -87l75 83l24 -14zM226 516v-449l79 -37v-30h-266v30l79 37v341l-89 29v30z" />
    <glyph glyph-name="Imacron" unicode="&#x12a;" horiz-adv-x="360" 
d="M345 776h-331v66h331v-66zM325 666l-85 -34v-564l85 -34v-34h-292v34l85 34v564l-85 34v34h292v-34z" />
    <glyph glyph-name="imacron" unicode="&#x12b;" horiz-adv-x="324" 
d="M308 627h-325v66h325v-66zM226 516v-449l79 -37v-30h-266v30l79 37v341l-89 29v30z" />
    <glyph glyph-name="Iogonek" unicode="&#x12e;" horiz-adv-x="364" 
d="M327 666l-85 -34v-564l85 -34v-34q-42 -6 -75 -24.5t-33 -46.5q0 -43 86 -43v-85q-78 0 -125 24.5t-47 72.5q0 25 11.5 43.5t32.5 28.5t40.5 15.5t47.5 9.5v5h-230v34l85 34v564l-85 34v34h292v-34z" />
    <glyph glyph-name="iogonek" unicode="&#x12f;" horiz-adv-x="326" 
d="M163 576q-33 0 -55 22t-22 56q0 33 22.5 55t54.5 22t54.5 -22t22.5 -55t-22.5 -55.5t-54.5 -22.5zM227 67l79 -37v-30q-42 -6 -75 -24.5t-33 -46.5q0 -43 86 -43v-85q-78 0 -125 24.5t-47 72.5q0 25 11.5 43.5t32.5 28.5t40.5 15.5t47.5 9.5v5h-204v30l79 37v341l-89 29
v30l197 49v-449z" />
    <glyph glyph-name="Idotaccent" unicode="&#x130;" horiz-adv-x="364" 
d="M182 776q-33 0 -55.5 23t-22.5 57q0 33 22.5 55t55.5 22q32 0 55 -22t23 -55q0 -34 -23 -57t-55 -23zM327 666l-85 -34v-564l85 -34v-34h-292v34l85 34v564l-85 34v34h292v-34z" />
    <glyph glyph-name="dotlessi" unicode="&#x131;" horiz-adv-x="326" 
d="M227 516v-449l79 -37v-30h-266v30l79 37v341l-89 29v30z" />
    <glyph glyph-name="IJ" unicode="&#x132;" horiz-adv-x="699" 
d="M327 666l-85 -34v-564l85 -34v-34h-292v34l85 34v564l-85 34v34h292v-34zM362 700h312v-34l-85 -34v-462q0 -302 -322 -387l-8 33q103 49 155.5 139t52.5 203v474l-105 34v34z" />
    <glyph glyph-name="ij" unicode="&#x133;" horiz-adv-x="636" 
d="M163 576q-33 0 -55 22t-22 56q0 33 22.5 55t54.5 22t54.5 -22t22.5 -55t-22.5 -55.5t-54.5 -22.5zM484 576q-32 0 -54.5 22.5t-22.5 55.5q0 32 23 54.5t55 22.5t54 -22.5t22 -55.5t-22.5 -55t-54.5 -22zM227 516v-449l79 -37v-30h-266v30l79 37v341l-89 29v30zM355 437
v30l197 49v-419q0 -125 -67 -210t-199 -107l-10 30q168 93 168 299v299z" />
    <glyph glyph-name="Jcircumflex" unicode="&#x134;" horiz-adv-x="350" 
d="M165 938l160 -137l-19 -25l-141 53l-141 -53l-18 25zM6 700h312v-34l-85 -34v-462q0 -302 -322 -387l-8 33q103 49 155.5 139t52.5 203v474l-105 34v34z" />
    <glyph glyph-name="jcircumflex" unicode="&#x135;" horiz-adv-x="310" 
d="M153 741l160 -137l-19 -25l-141 53l-141 -53l-18 25zM29 437v30l197 49v-419q0 -125 -67 -210t-199 -107l-10 30q168 93 168 299v299z" />
    <glyph glyph-name="Kcommaaccent" unicode="&#x136;" horiz-adv-x="717" 
d="M327 666l-85 -34v-564l85 -34v-34h-292v34l85 34v564l-85 34v34h292v-34zM573 153q71 -95 139 -128v-30q-38 -11 -70 -11q-104 0 -181 111l-199 285l284 245l-98 41v34h231v-34l-303 -249zM412 -29q35 0 60.5 -23.5t25.5 -70.5q0 -19 -4.5 -37t-10 -31.5t-17.5 -30
l-19 -26t-24 -25t-23.5 -20.5l-25.5 -20.5t-22 -17.5l-30 34l123 115l-11 20q-12 -6 -31 -6q-25 0 -45.5 19t-20.5 50q0 29 22 49.5t53 20.5z" />
    <glyph glyph-name="kcommaaccent" unicode="&#x137;" horiz-adv-x="613" 
d="M227 733v-666l79 -37v-30h-266v30l79 37v558l-89 29v30zM468 153q35 -49 61.5 -78t63.5 -50v-29q-33 -12 -65 -12q-51 0 -92 31t-82 97l-104 165l174 157l-96 43v29h233v-29l-205 -166zM361 -29q35 0 60.5 -23.5t25.5 -70.5q0 -19 -4.5 -37t-10 -31.5t-17.5 -30l-19 -26
t-24 -25t-23.5 -20.5l-25.5 -20.5t-22 -17.5l-30 34l123 115l-11 20q-12 -6 -31 -6q-25 0 -45.5 19t-20.5 50q0 29 22 49.5t53 20.5z" />
    <glyph glyph-name="kgreenlandic" unicode="&#x138;" horiz-adv-x="613" 
d="M227 516v-449l79 -37v-30h-266v30l79 37v341l-89 29v30zM468 153q35 -49 61.5 -78t63.5 -50v-29q-33 -12 -65 -12q-51 0 -92 31t-82 97l-104 165l174 157l-96 43v29h233v-29l-205 -166z" />
    <glyph glyph-name="Lacute" unicode="&#x139;" horiz-adv-x="669" 
d="M271 926l46 -110l-264 -59l-11 26zM595 250l29 -11l-25 -239h-564v34l85 34v564l-85 34v34h312v-34l-105 -34v-583h203z" />
    <glyph glyph-name="lacute" unicode="&#x13a;" horiz-adv-x="336" 
d="M246 926l46 -110l-264 -59l-11 26zM227 733v-666l79 -37v-30h-266v30l79 37v558l-89 29v30z" />
    <glyph glyph-name="Lcommaaccent" unicode="&#x13b;" horiz-adv-x="669" 
d="M595 250l29 -11l-25 -239h-564v34l85 34v564l-85 34v34h312v-34l-105 -34v-583h203zM352 -29q35 0 60.5 -23.5t25.5 -70.5q0 -19 -4.5 -37t-10 -31.5t-17.5 -30l-19 -26t-24 -25t-23.5 -20.5l-25.5 -20.5t-22 -17.5l-30 34l123 115l-11 20q-12 -6 -31 -6q-25 0 -45.5 19
t-20.5 50q0 29 22 49.5t53 20.5z" />
    <glyph glyph-name="lcommaaccent" unicode="&#x13c;" horiz-adv-x="336" 
d="M227 733v-666l79 -37v-30h-266v30l79 37v558l-89 29v30zM171 -29q35 0 60.5 -23.5t25.5 -70.5q0 -19 -4.5 -37t-10 -31.5t-17.5 -30l-19 -26t-24 -25t-23.5 -20.5l-25.5 -20.5t-22 -17.5l-30 34l123 115l-11 20q-12 -6 -31 -6q-25 0 -45.5 19t-20.5 50q0 29 22 49.5
t53 20.5z" />
    <glyph glyph-name="Lcaron" unicode="&#x13d;" horiz-adv-x="705" 
d="M574 710q35 0 60.5 -23.5t25.5 -70.5q0 -19 -4.5 -37t-10 -31.5t-17.5 -30l-19 -26t-24 -25t-23.5 -20.5l-25.5 -20.5t-22 -17.5l-30 34l123 115l-11 20q-12 -6 -31 -6q-25 0 -45.5 19t-20.5 50q0 29 22 49.5t53 20.5zM595 250l29 -11l-25 -239h-564v34l85 34v564l-85 34
v34h312v-34l-105 -34v-583h203z" />
    <glyph glyph-name="lcaron" unicode="&#x13e;" horiz-adv-x="551" 
d="M227 733v-666l79 -37v-30h-266v30l79 37v558l-89 29v30zM420 710q35 0 60.5 -23.5t25.5 -70.5q0 -19 -4.5 -37t-10 -31.5t-17.5 -30l-19 -26t-24 -25t-23.5 -20.5l-25.5 -20.5t-22 -17.5l-30 34l123 115l-11 20q-12 -6 -31 -6q-25 0 -45.5 19t-20.5 50q0 29 22 49.5
t53 20.5z" />
    <glyph glyph-name="Ldot" unicode="&#x13f;" horiz-adv-x="669" 
d="M595 250l29 -11l-25 -239h-564v34l85 34v564l-85 34v34h312v-34l-105 -34v-583h203zM489 376q-33 0 -55.5 23t-22.5 57q0 33 22.5 55t55.5 22q32 0 55 -22t23 -55q0 -34 -23 -57t-55 -23z" />
    <glyph glyph-name="ldot" unicode="&#x140;" horiz-adv-x="493" 
d="M227 733v-666l79 -37v-30h-266v30l79 37v558l-89 29v30zM385 350q-33 0 -55.5 23t-22.5 57q0 33 22.5 55t55.5 22q32 0 55 -22t23 -55q0 -34 -23 -57t-55 -23z" />
    <glyph glyph-name="Lslash" unicode="&#x141;" horiz-adv-x="669" 
d="M595 250l29 -11l-25 -239h-564v34l85 34v167l-85 -45v50l85 45v347l-85 34v34h312v-34l-105 -34v-283l184 96v-50l-184 -96v-250h203z" />
    <glyph glyph-name="lslash" unicode="&#x142;" horiz-adv-x="354" 
d="M324 409l-97 -50v-292l79 -37v-30h-266v30l79 37v235l-89 -46v50l89 46v273l-89 29v30l197 49v-324l97 50v-50z" />
    <glyph glyph-name="Nacute" unicode="&#x143;" horiz-adv-x="827" 
d="M544 926l46 -110l-264 -59l-11 26zM551 700h246v-34l-85 -34v-632h-71l-465 528v-460l106 -34v-34h-247v34l85 34v526l-65 75v31h140l461 -533v465l-105 34v34z" />
    <glyph glyph-name="nacute" unicode="&#x144;" horiz-adv-x="652" 
d="M481 770l57 -105l-256 -86l-14 25zM553 67l79 -37v-30h-266v30l79 37v245q0 59 -28 87t-73 28q-35 0 -67 -17t-50 -44v-299l79 -37v-30h-266v30l79 37v342l-89 29v30l191 48v-109q30 53 77 81t100 28q68 0 111.5 -45t43.5 -132v-272z" />
    <glyph glyph-name="Ncommaaccent" unicode="&#x145;" horiz-adv-x="827" 
d="M551 700h246v-34l-85 -34v-632h-71l-465 528v-460l106 -34v-34h-247v34l85 34v526l-65 75v31h140l461 -533v465l-105 34v34zM422 -29q35 0 60.5 -23.5t25.5 -70.5q0 -19 -4.5 -37t-10 -31.5t-17.5 -30l-19 -26t-24 -25t-23.5 -20.5l-25.5 -20.5t-22 -17.5l-30 34l123 115
l-11 20q-12 -6 -31 -6q-25 0 -45.5 19t-20.5 50q0 29 22 49.5t53 20.5z" />
    <glyph glyph-name="ncommaaccent" unicode="&#x146;" horiz-adv-x="652" 
d="M553 67l79 -37v-30h-266v30l79 37v245q0 59 -28 87t-73 28q-35 0 -67 -17t-50 -44v-299l79 -37v-30h-266v30l79 37v342l-89 29v30l191 48v-109q30 53 77 81t100 28q68 0 111.5 -45t43.5 -132v-272zM342 -29q35 0 60.5 -23.5t25.5 -70.5q0 -19 -4.5 -37t-10 -31.5
t-17.5 -30l-19 -26t-24 -25t-23.5 -20.5l-25.5 -20.5t-22 -17.5l-30 34l123 115l-11 20q-12 -6 -31 -6q-25 0 -45.5 19t-20.5 50q0 29 22 49.5t53 20.5z" />
    <glyph glyph-name="Ncaron" unicode="&#x147;" horiz-adv-x="827" 
d="M409 766l-159 137l18 25l141 -53l141 53l19 -25zM551 700h246v-34l-85 -34v-632h-71l-465 528v-460l106 -34v-34h-247v34l85 34v526l-65 75v31h140l461 -533v465l-105 34v34z" />
    <glyph glyph-name="ncaron" unicode="&#x148;" horiz-adv-x="652" 
d="M338 569l-160 137l19 25l141 -53l141 53l18 -25zM553 67l79 -37v-30h-266v30l79 37v245q0 59 -28 87t-73 28q-35 0 -67 -17t-50 -44v-299l79 -37v-30h-266v30l79 37v342l-89 29v30l191 48v-109q30 53 77 81t100 28q68 0 111.5 -45t43.5 -132v-272z" />
    <glyph glyph-name="napostrophe" unicode="&#x149;" horiz-adv-x="841" 
d="M125 710q35 0 60.5 -23.5t25.5 -70.5q0 -19 -4.5 -37t-10 -31.5t-17.5 -30l-19 -26t-24 -25t-23.5 -20.5l-25.5 -20.5t-22 -17.5l-30 34l123 115l-11 20q-12 -6 -31 -6q-25 0 -45.5 19t-20.5 50q0 29 22 49.5t53 20.5zM742 67l79 -37v-30h-266v30l79 37v245q0 59 -28 87
t-73 28q-35 0 -67 -17t-50 -44v-299l79 -37v-30h-266v30l79 37v342l-89 29v30l191 48v-109q30 53 77 81t100 28q68 0 111.5 -45t43.5 -132v-272z" />
    <glyph glyph-name="Eng" unicode="&#x14a;" horiz-adv-x="827" 
d="M551 700h246v-34l-85 -34v-535q0 -125 -67 -210t-199 -107l-10 30q144 80 164 238l-424 480v-460l106 -34v-34h-247v34l85 34v526l-65 75v31h140l461 -533v465l-105 34v34z" />
    <glyph glyph-name="eng" unicode="&#x14b;" horiz-adv-x="628" 
d="M398 516q68 0 111.5 -45t43.5 -132v-242q0 -125 -67 -210t-199 -107l-10 30q168 93 168 299v203q0 59 -28 87t-73 28q-35 0 -67 -17t-50 -44v-299l79 -37v-30h-266v30l79 37v342l-89 29v30l191 48v-109q30 53 77 81t100 28z" />
    <glyph glyph-name="Omacron" unicode="&#x14c;" horiz-adv-x="792" 
d="M562 776h-331v66h331v-66zM392 717q156 0 258 -99.5t102 -266.5q0 -163 -97.5 -265t-254.5 -102q-155 0 -257.5 99.5t-102.5 267.5q0 163 97.5 264.5t254.5 101.5zM411 35q100 0 153 84.5t53 207.5q0 137 -63 238t-172 101q-100 0 -153 -84t-53 -207q0 -88 26 -164
t81 -126t128 -50z" />
    <glyph glyph-name="omacron" unicode="&#x14d;" horiz-adv-x="591" 
d="M458 627h-325v66h325v-66zM299 516q115 0 183.5 -74t68.5 -190q0 -118 -73 -190.5t-186 -72.5q-114 0 -183 74t-69 189q0 119 73 191.5t186 72.5zM305 37q61 0 93 55.5t32 141.5q0 96 -38 165t-106 69q-61 0 -93 -55.5t-32 -141.5q0 -97 38 -165.5t106 -68.5z" />
    <glyph glyph-name="Obreve" unicode="&#x14e;" horiz-adv-x="792" 
d="M544 938q-5 -76 -45.5 -119t-102.5 -43q-61 0 -101.5 43t-45.5 119l29 8q37 -80 118 -80q84 0 119 80zM392 717q156 0 258 -99.5t102 -266.5q0 -163 -97.5 -265t-254.5 -102q-155 0 -257.5 99.5t-102.5 267.5q0 163 97.5 264.5t254.5 101.5zM411 35q100 0 153 84.5
t53 207.5q0 137 -63 238t-172 101q-100 0 -153 -84t-53 -207q0 -88 26 -164t81 -126t128 -50z" />
    <glyph glyph-name="obreve" unicode="&#x14f;" horiz-adv-x="591" 
d="M441 741q-5 -76 -45.5 -119t-102.5 -43q-61 0 -101.5 43t-45.5 119l29 8q37 -80 118 -80q84 0 119 80zM299 516q115 0 183.5 -74t68.5 -190q0 -118 -73 -190.5t-186 -72.5q-114 0 -183 74t-69 189q0 119 73 191.5t186 72.5zM305 37q61 0 93 55.5t32 141.5q0 96 -38 165
t-106 69q-61 0 -93 -55.5t-32 -141.5q0 -97 38 -165.5t106 -68.5z" />
    <glyph glyph-name="Ohungarumlaut" unicode="&#x150;" horiz-adv-x="792" 
d="M392 950l65 -56l-148 -155l-31 26zM601 929l57 -60l-187 -130l-28 27zM392 717q156 0 258 -99.5t102 -266.5q0 -163 -97.5 -265t-254.5 -102q-155 0 -257.5 99.5t-102.5 267.5q0 163 97.5 264.5t254.5 101.5zM411 35q100 0 153 84.5t53 207.5q0 137 -63 238t-172 101
q-100 0 -153 -84t-53 -207q0 -88 26 -164t81 -126t128 -50z" />
    <glyph glyph-name="ohungarumlaut" unicode="&#x151;" horiz-adv-x="598" 
d="M292 800l65 -56l-148 -165l-31 26zM501 779l57 -60l-187 -140l-28 27zM299 516q115 0 183.5 -74t68.5 -190q0 -118 -73 -190.5t-186 -72.5q-114 0 -183 74t-69 189q0 119 73 191.5t186 72.5zM305 37q61 0 93 55.5t32 141.5q0 96 -38 165t-106 69q-61 0 -93 -55.5
t-32 -141.5q0 -97 38 -165.5t106 -68.5z" />
    <glyph glyph-name="OE" unicode="&#x152;" horiz-adv-x="1189" 
d="M1139 239l-25 -239h-601q-56 -16 -113 -16q-155 0 -257.5 99.5t-102.5 267.5q0 163 97.5 264.5t254.5 101.5q61 0 118 -17h591l23 -231l-29 -10l-140 193h-346q132 -94 142 -273h118l55 101h28v-251h-28l-55 101h-117q-9 -186 -140 -281h348l150 201zM176 375
q0 -137 63 -238t172 -101q100 0 153 84t53 207q0 137 -63 238t-172 101q-100 0 -153 -84t-53 -207z" />
    <glyph glyph-name="oe" unicode="&#x153;" horiz-adv-x="949" 
d="M900 164l22 -17q-27 -79 -87 -118.5t-130 -39.5q-63 0 -115 31.5t-81 90.5q-67 -122 -217 -122q-114 0 -183 74t-69 189q0 119 73 191.5t186 72.5q74 0 129 -33t84 -92q30 59 84 92t121 33q98 0 146 -66.5t48 -168.5h-345q0 -88 53 -140.5t128 -52.5q94 0 153 76zM305 37
q61 0 93 55.5t32 141.5q0 96 -38 165t-106 69q-61 0 -93 -55.5t-32 -141.5q0 -97 38 -165.5t106 -68.5zM703 468q-50 0 -87 -41t-44 -96h221q2 14 2 26q0 48 -24.5 79.5t-67.5 31.5z" />
    <glyph glyph-name="Racute" unicode="&#x154;" horiz-adv-x="698" 
d="M480 926l46 -110l-264 -59l-11 26zM556 150q57 -86 127 -117v-30q-42 -19 -82 -19q-96 0 -159 109l-131 227h-69v-252l85 -34v-34h-292v34l85 34v564l-85 34v34h337q109 0 167 -50t58 -126q0 -64 -42.5 -116t-118.5 -75zM242 368h53q81 0 124 40t43 104q0 62 -41.5 101
t-117.5 39h-61v-284z" />
    <glyph glyph-name="racute" unicode="&#x155;" horiz-adv-x="441" 
d="M351 770l57 -105l-256 -86l-14 25zM431 502l-27 -112h-26q-24 21 -63 21q-32 0 -57.5 -18.5t-30.5 -49.5v-276l99 -37v-30h-286v30l79 37v342l-89 29v30l191 48v-126q37 124 139 124q35 0 71 -12z" />
    <glyph glyph-name="Rcommaaccent" unicode="&#x156;" horiz-adv-x="698" 
d="M556 150q57 -86 127 -117v-30q-42 -19 -82 -19q-96 0 -159 109l-131 227h-69v-252l85 -34v-34h-292v34l85 34v564l-85 34v34h337q109 0 167 -50t58 -126q0 -64 -42.5 -116t-118.5 -75zM242 368h53q81 0 124 40t43 104q0 62 -41.5 101t-117.5 39h-61v-284zM392 -29
q35 0 60.5 -23.5t25.5 -70.5q0 -19 -4.5 -37t-10 -31.5t-17.5 -30l-19 -26t-24 -25t-23.5 -20.5l-25.5 -20.5t-22 -17.5l-30 34l123 115l-11 20q-12 -6 -31 -6q-25 0 -45.5 19t-20.5 50q0 29 22 49.5t53 20.5z" />
    <glyph glyph-name="rcommaaccent" unicode="&#x157;" horiz-adv-x="441" 
d="M431 502l-27 -112h-26q-24 21 -63 21q-32 0 -57.5 -18.5t-30.5 -49.5v-276l99 -37v-30h-286v30l79 37v342l-89 29v30l191 48v-126q37 124 139 124q35 0 71 -12zM174 -29q35 0 60.5 -23.5t25.5 -70.5q0 -19 -4.5 -37t-10 -31.5t-17.5 -30l-19 -26t-24 -25t-23.5 -20.5
l-25.5 -20.5t-22 -17.5l-30 34l123 115l-11 20q-12 -6 -31 -6q-25 0 -45.5 19t-20.5 50q0 29 22 49.5t53 20.5z" />
    <glyph glyph-name="Rcaron" unicode="&#x158;" horiz-adv-x="698" 
d="M321 766l-159 137l18 25l141 -53l141 53l19 -25zM556 150q57 -86 127 -117v-30q-42 -19 -82 -19q-96 0 -159 109l-131 227h-69v-252l85 -34v-34h-292v34l85 34v564l-85 34v34h337q109 0 167 -50t58 -126q0 -64 -42.5 -116t-118.5 -75zM242 368h53q81 0 124 40t43 104
q0 62 -41.5 101t-117.5 39h-61v-284z" />
    <glyph glyph-name="rcaron" unicode="&#x159;" horiz-adv-x="441" 
d="M237 569l-160 137l19 25l141 -53l141 53l18 -25zM431 502l-27 -112h-26q-24 21 -63 21q-32 0 -57.5 -18.5t-30.5 -49.5v-276l99 -37v-30h-286v30l79 37v342l-89 29v30l191 48v-126q37 124 139 124q35 0 71 -12z" />
    <glyph glyph-name="Sacute" unicode="&#x15a;" horiz-adv-x="614" 
d="M475 926l46 -110l-264 -59l-11 26zM564 197q0 -99 -73 -156t-183 -57q-147 0 -258 105l107 108l139 -171q79 0 117 34.5t38 86.5q0 25 -10 46t-23.5 35t-39.5 28.5t-44.5 22t-51.5 19.5l-44 17t-41.5 18t-42.5 23t-35 28t-30.5 36t-17.5 44t-8 55q0 97 69.5 147.5
t171.5 50.5q135 0 250 -86l-88 -99l-139 145q-70 0 -108 -34t-38 -87q0 -52 37 -81.5t110 -55.5q105 -37 143 -61q93 -57 93 -161z" />
    <glyph glyph-name="sacute" unicode="&#x15b;" horiz-adv-x="482" 
d="M378 770l57 -105l-256 -86l-14 25zM431 459l-67 -93l-116 108q-51 0 -77.5 -20t-26.5 -55q0 -20 9 -34.5t28.5 -25.5t36 -17t46.5 -15l48.5 -15.5t45.5 -20t44 -29.5t27.5 -40.5t12.5 -56.5q0 -75 -58.5 -115.5t-140.5 -40.5q-117 0 -203 65l78 101l124 -124q43 0 71 21
t28 57q0 38 -30.5 58.5t-91.5 39.5q-30 9 -47.5 15t-44 20t-41 29.5t-26 41t-11.5 56.5q0 74 53 110.5t136 36.5q95 0 193 -57z" />
    <glyph glyph-name="Scircumflex" unicode="&#x15c;" horiz-adv-x="614" 
d="M299 938l160 -137l-19 -25l-141 53l-141 -53l-18 25zM564 197q0 -99 -73 -156t-183 -57q-147 0 -258 105l107 108l139 -171q79 0 117 34.5t38 86.5q0 25 -10 46t-23.5 35t-39.5 28.5t-44.5 22t-51.5 19.5l-44 17t-41.5 18t-42.5 23t-35 28t-30.5 36t-17.5 44t-8 55
q0 97 69.5 147.5t171.5 50.5q135 0 250 -86l-88 -99l-139 145q-70 0 -108 -34t-38 -87q0 -52 37 -81.5t110 -55.5q105 -37 143 -61q93 -57 93 -161z" />
    <glyph glyph-name="scircumflex" unicode="&#x15d;" horiz-adv-x="482" 
d="M244 741l160 -137l-19 -25l-141 53l-141 -53l-18 25zM431 459l-67 -93l-116 108q-51 0 -77.5 -20t-26.5 -55q0 -20 9 -34.5t28.5 -25.5t36 -17t46.5 -15l48.5 -15.5t45.5 -20t44 -29.5t27.5 -40.5t12.5 -56.5q0 -75 -58.5 -115.5t-140.5 -40.5q-117 0 -203 65l78 101
l124 -124q43 0 71 21t28 57q0 38 -30.5 58.5t-91.5 39.5q-30 9 -47.5 15t-44 20t-41 29.5t-26 41t-11.5 56.5q0 74 53 110.5t136 36.5q95 0 193 -57z" />
    <glyph glyph-name="Scedilla" unicode="&#x15e;" horiz-adv-x="614" 
d="M564 197q0 -98 -72 -155t-180 -58v-45q47 1 74.5 -21t27.5 -56q0 -33 -26.5 -58.5t-74.5 -25.5q-60 0 -107 42l24 34q41 -38 84 -38q57 0 57 44q0 55 -107 55l13 70q-130 11 -227 104l107 108l139 -171q79 0 117 34.5t38 86.5q0 25 -10 46t-23.5 35t-39.5 28.5t-44.5 22
t-51.5 19.5l-44 17t-41.5 18t-42.5 23t-35 28t-30.5 36t-17.5 44t-8 55q0 97 69.5 147.5t171.5 50.5q135 0 250 -86l-88 -99l-139 145q-70 0 -108 -34t-38 -87q0 -52 37 -81.5t110 -55.5q105 -37 143 -61q93 -57 93 -161z" />
    <glyph glyph-name="scedilla" unicode="&#x15f;" horiz-adv-x="482" 
d="M442 145q0 -73 -55 -113.5t-135 -42.5v-50q47 1 74.5 -21t27.5 -56q0 -33 -26.5 -58.5t-74.5 -25.5q-60 0 -107 42l24 34q41 -38 84 -38q57 0 57 44q0 55 -107 55l14 75q-104 8 -178 64l78 101l124 -124q43 0 71 21t28 57q0 38 -30.5 58.5t-91.5 39.5q-30 9 -47.5 15
t-44 20t-41 29.5t-26 41t-11.5 56.5q0 74 53 110.5t136 36.5q95 0 193 -57l-67 -93l-116 108q-51 0 -77.5 -20t-26.5 -55q0 -20 9 -34.5t28.5 -25.5t36 -17t46.5 -15l48.5 -15.5t45.5 -20t44 -29.5t27.5 -40.5t12.5 -56.5z" />
    <glyph glyph-name="Scaron" unicode="&#x160;" horiz-adv-x="614" 
d="M306 766l-159 137l18 25l141 -53l141 53l19 -25zM564 197q0 -99 -73 -156t-183 -57q-147 0 -258 105l107 108l139 -171q79 0 117 34.5t38 86.5q0 25 -10 46t-23.5 35t-39.5 28.5t-44.5 22t-51.5 19.5l-44 17t-41.5 18t-42.5 23t-35 28t-30.5 36t-17.5 44t-8 55
q0 97 69.5 147.5t171.5 50.5q135 0 250 -86l-88 -99l-139 145q-70 0 -108 -34t-38 -87q0 -52 37 -81.5t110 -55.5q105 -37 143 -61q93 -57 93 -161z" />
    <glyph glyph-name="scaron" unicode="&#x161;" horiz-adv-x="482" 
d="M252 569l-160 137l19 25l141 -53l141 53l18 -25zM431 459l-67 -93l-116 108q-51 0 -77.5 -20t-26.5 -55q0 -20 9 -34.5t28.5 -25.5t36 -17t46.5 -15l48.5 -15.5t45.5 -20t44 -29.5t27.5 -40.5t12.5 -56.5q0 -75 -58.5 -115.5t-140.5 -40.5q-117 0 -203 65l78 101
l124 -124q43 0 71 21t28 57q0 38 -30.5 58.5t-91.5 39.5q-30 9 -47.5 15t-44 20t-41 29.5t-26 41t-11.5 56.5q0 74 53 110.5t136 36.5q95 0 193 -57z" />
    <glyph glyph-name="uni0162" unicode="&#x162;" horiz-adv-x="706" 
d="M673 700l23 -231l-29 -10l-140 193h-113v-584l105 -34v-34h-143v-51q47 1 74.5 -21t27.5 -56q0 -33 -26.5 -58.5t-74.5 -25.5q-60 0 -107 42l24 34q41 -38 84 -38q57 0 57 44q0 55 -107 55l14 75h-155v34l105 34v584h-113l-140 -193l-29 10l24 231h639z" />
    <glyph glyph-name="uni0163" unicode="&#x163;" horiz-adv-x="400" 
d="M390 66q-60 -65 -131 -75v-52q47 1 74.5 -21t27.5 -56q0 -33 -26.5 -58.5t-74.5 -25.5q-60 0 -107 42l24 34q41 -38 84 -38q57 0 57 44q0 55 -107 55l14 74q-60 3 -97.5 44.5t-37.5 115.5v307h-85v30l163 148h30v-128h159v-50h-159v-288q0 -101 92 -101q45 0 83 24z" />
    <glyph glyph-name="Tcaron" unicode="&#x164;" horiz-adv-x="706" 
d="M353 766l-159 137l18 25l141 -53l141 53l19 -25zM673 700l23 -231l-29 -10l-140 193h-113v-584l105 -34v-34h-332v34l105 34v584h-113l-140 -193l-29 10l24 231h639z" />
    <glyph glyph-name="tcaron" unicode="&#x165;" horiz-adv-x="683" 
d="M552 710q35 0 60.5 -23.5t25.5 -70.5q0 -19 -4.5 -37t-10 -31.5t-17.5 -30l-19 -26t-24 -25t-23.5 -20.5l-25.5 -20.5t-22 -17.5l-30 34l123 115l-11 20q-12 -6 -31 -6q-25 0 -45.5 19t-20.5 50q0 29 22 49.5t53 20.5zM373 91l17 -25q-72 -77 -157 -77q-63 0 -103 41.5
t-40 118.5v307h-85v30l163 148h30v-128h159v-50h-159v-288q0 -101 92 -101q45 0 83 24z" />
    <glyph glyph-name="Tbar" unicode="&#x166;" horiz-adv-x="706" 
d="M527 652h-113v-277h118v-46h-118v-261l105 -34v-34h-332v34l105 34v261h-118v46h118v277h-113l-140 -193l-29 10l24 231h639l23 -231l-29 -10z" />
    <glyph glyph-name="tbar" unicode="&#x167;" horiz-adv-x="400" 
d="M373 91l17 -25q-72 -77 -157 -77q-63 0 -103 41.5t-40 118.5v136h-80v50h80v121h-85v30l163 148h30v-128h159v-50h-159v-121h160v-50h-160v-117q0 -101 92 -101q45 0 83 24z" />
    <glyph glyph-name="Utilde" unicode="&#x168;" horiz-adv-x="794" 
d="M513 776l-187 66l-61 -67l-25 14l71 161l162 -87l75 83l24 -14zM523 700h246v-34l-86 -34v-374q0 -132 -78 -203t-195 -71q-123 0 -211.5 75.5t-88.5 209.5v363l-85 34v34h292v-34l-85 -34v-380q0 -102 51.5 -159.5t145.5 -57.5q100 0 149 61.5t49 160.5v375l-104 34v34z
" />
    <glyph glyph-name="utilde" unicode="&#x169;" horiz-adv-x="619" 
d="M397 579l-187 66l-61 -67l-25 14l71 161l162 -87l75 83l24 -14zM515 91l89 -29v-30l-192 -48v113q-63 -108 -167 -108q-70 0 -113 44.5t-43 131.5v243l-89 29v30l197 49v-322q0 -115 94 -115q34 0 66 16.5t50 42.5v272l-83 28v30l191 48v-425z" />
    <glyph glyph-name="Umacron" unicode="&#x16a;" horiz-adv-x="794" 
d="M561 776h-331v66h331v-66zM523 700h246v-34l-86 -34v-374q0 -132 -78 -203t-195 -71q-123 0 -211.5 75.5t-88.5 209.5v363l-85 34v34h292v-34l-85 -34v-380q0 -102 51.5 -159.5t145.5 -57.5q100 0 149 61.5t49 160.5v375l-104 34v34z" />
    <glyph glyph-name="umacron" unicode="&#x16b;" horiz-adv-x="619" 
d="M443 627h-325v66h325v-66zM515 91l89 -29v-30l-192 -48v113q-63 -108 -167 -108q-70 0 -113 44.5t-43 131.5v243l-89 29v30l197 49v-322q0 -115 94 -115q34 0 66 16.5t50 42.5v272l-83 28v30l191 48v-425z" />
    <glyph glyph-name="Ubreve" unicode="&#x16c;" horiz-adv-x="794" 
d="M544 938q-5 -76 -45.5 -119t-102.5 -43q-61 0 -101.5 43t-45.5 119l29 8q37 -80 118 -80q84 0 119 80zM523 700h246v-34l-86 -34v-374q0 -132 -78 -203t-195 -71q-123 0 -211.5 75.5t-88.5 209.5v363l-85 34v34h292v-34l-85 -34v-380q0 -102 51.5 -159.5t145.5 -57.5
q100 0 149 61.5t49 160.5v375l-104 34v34z" />
    <glyph glyph-name="ubreve" unicode="&#x16d;" horiz-adv-x="619" 
d="M418 741q-5 -76 -45.5 -119t-102.5 -43q-61 0 -101.5 43t-45.5 119l29 8q37 -80 118 -80q84 0 119 80zM515 91l89 -29v-30l-192 -48v113q-63 -108 -167 -108q-70 0 -113 44.5t-43 131.5v243l-89 29v30l197 49v-322q0 -115 94 -115q34 0 66 16.5t50 42.5v272l-83 28v30
l191 48v-425z" />
    <glyph glyph-name="Uring" unicode="&#x16e;" horiz-adv-x="794" 
d="M508 855q0 45 -29 70t-66 25t-66 -25t-29 -70q0 -44 29 -69t66 -25t66 25t29 69zM463 855q0 -24 -14.5 -38t-35.5 -14t-35.5 14t-14.5 38q0 26 14.5 40t35.5 14t35.5 -14t14.5 -40zM523 700h246v-34l-86 -34v-374q0 -132 -78 -203t-195 -71q-123 0 -211.5 75.5
t-88.5 209.5v363l-85 34v34h292v-34l-85 -34v-380q0 -102 51.5 -159.5t145.5 -57.5q100 0 149 61.5t49 160.5v375l-104 34v34z" />
    <glyph glyph-name="uring" unicode="&#x16f;" horiz-adv-x="619" 
d="M390 683q0 49 -31.5 76.5t-72.5 27.5t-72.5 -27.5t-31.5 -76.5q0 -48 32 -76t72 -28t72 28t32 76zM341 683q0 -27 -16 -42.5t-39 -15.5t-39 15.5t-16 42.5q0 28 16 43.5t39 15.5t39 -15.5t16 -43.5zM515 91l89 -29v-30l-192 -48v113q-63 -108 -167 -108q-70 0 -113 44.5
t-43 131.5v243l-89 29v30l197 49v-322q0 -115 94 -115q34 0 66 16.5t50 42.5v272l-83 28v30l191 48v-425z" />
    <glyph glyph-name="Uhungarumlaut" unicode="&#x170;" horiz-adv-x="794" 
d="M374 950l65 -56l-148 -155l-31 26zM583 929l57 -60l-187 -130l-28 27zM523 700h246v-34l-86 -34v-374q0 -132 -78 -203t-195 -71q-123 0 -211.5 75.5t-88.5 209.5v363l-85 34v34h292v-34l-85 -34v-380q0 -102 51.5 -159.5t145.5 -57.5q100 0 149 61.5t49 160.5v375
l-104 34v34z" />
    <glyph glyph-name="uhungarumlaut" unicode="&#x171;" horiz-adv-x="619" 
d="M285 800l65 -56l-148 -165l-31 26zM494 779l57 -60l-187 -140l-28 27zM515 91l89 -29v-30l-192 -48v113q-63 -108 -167 -108q-70 0 -113 44.5t-43 131.5v243l-89 29v30l197 49v-322q0 -115 94 -115q34 0 66 16.5t50 42.5v272l-83 28v30l191 48v-425z" />
    <glyph glyph-name="Uogonek" unicode="&#x172;" horiz-adv-x="794" 
d="M523 700h246v-34l-86 -34v-374q0 -128 -74.5 -199t-187.5 -75q-40 -8 -68.5 -25.5t-28.5 -43.5q0 -43 86 -43v-85q-78 0 -125 24.5t-47 72.5q0 25 11.5 43.5t32.5 28.5t40.5 15.5t47.5 9.5v5q-111 13 -185.5 86.5t-74.5 196.5v363l-85 34v34h292v-34l-85 -34v-380
q0 -102 51.5 -159.5t145.5 -57.5q100 0 149 61.5t49 160.5v375l-104 34v34z" />
    <glyph glyph-name="uogonek" unicode="&#x173;" horiz-adv-x="619" 
d="M604 62v-30l-103 -26v-1l-22 -4l-4 -1q-82 -22 -82 -66q0 -43 86 -43v-85q-78 0 -125 24.5t-47 72.5q0 72 105 92v102q-63 -108 -167 -108q-70 0 -113 44.5t-43 131.5v243l-89 29v30l197 49v-322q0 -115 94 -115q34 0 66 16.5t50 42.5v272l-83 28v30l191 48v-425z" />
    <glyph glyph-name="Wcircumflex" unicode="&#x174;" horiz-adv-x="1024" 
d="M547 938l160 -137l-19 -25l-141 53l-141 -53l-18 25zM787 700h227v-34l-61 -33l-237 -633h-30l-166 413l-158 -413h-30l-256 634l-66 32v34h282v-34l-84 -32l175 -441l110 292l-74 181v34h197v-34l-32 -84l153 -386l157 439l-107 31v34z" />
    <glyph glyph-name="wcircumflex" unicode="&#x175;" horiz-adv-x="803" 
d="M406 741l160 -137l-19 -25l-141 53l-141 -53l-18 25zM592 506h196v-29l-213 -477h-33l-131 289l-134 -289h-22l-186 419l-79 19v30l164 48l148 -357l81 192l-56 126v29h158v-29l-17 -39l124 -291l119 280l-119 50v29z" />
    <glyph glyph-name="Ycircumflex" unicode="&#x176;" horiz-adv-x="635" 
d="M314 938l160 -137l-19 -25l-141 53l-141 -53l-18 25zM390 700h235v-34l-54 -28l-197 -313v-257l105 -34v-34h-332v34l105 34v214l-242 384v34h248v-34l-86 -32l159 -284l170 284l-111 32v34z" />
    <glyph glyph-name="ycircumflex" unicode="&#x177;" horiz-adv-x="512" 
d="M253 741l160 -137l-19 -25l-141 53l-141 -53l-18 25zM288 506h214v-29l-220 -510q-59 -137 -182 -137q-56 0 -116 28l29 94h30q41 -32 87 -32q43 0 78.5 27t49.5 73l-203 403l-75 17v30l155 46l178 -365l112 275l-137 51v29z" />
    <glyph glyph-name="Ydieresis" unicode="&#x178;" horiz-adv-x="635" 
d="M216 906q29 0 47.5 -18.5t18.5 -45.5q0 -28 -18.5 -47t-47.5 -19q-27 0 -45.5 19t-18.5 47q0 27 18.5 45.5t45.5 18.5zM424 906q28 0 47 -18.5t19 -45.5q0 -28 -19 -47t-47 -19t-46 19t-18 47q0 27 18 45.5t46 18.5zM390 700h235v-34l-54 -28l-197 -313v-257l105 -34v-34
h-332v34l105 34v214l-242 384v34h248v-34l-86 -32l159 -284l170 284l-111 32v34z" />
    <glyph glyph-name="Zacute" unicode="&#x179;" horiz-adv-x="676" 
d="M485 926l46 -110l-264 -59l-11 26zM607 250l29 -11l-25 -239h-571v30l421 622h-251l-141 -193l-28 10l23 231h550v-31l-420 -620h263z" />
    <glyph glyph-name="zacute" unicode="&#x17a;" horiz-adv-x="541" 
d="M413 770l57 -105l-256 -86l-14 25zM465 186l26 -10l-11 -176h-427v30l280 427h-171l-90 -136l-27 9l15 176h415v-29l-281 -428h184z" />
    <glyph glyph-name="Zdotaccent" unicode="&#x17b;" horiz-adv-x="676" 
d="M353 776q-33 0 -55.5 23t-22.5 57q0 33 22.5 55t55.5 22q32 0 55 -22t23 -55q0 -34 -23 -57t-55 -23zM607 250l29 -11l-25 -239h-571v30l421 622h-251l-141 -193l-28 10l23 231h550v-31l-420 -620h263z" />
    <glyph glyph-name="zdotaccent" unicode="&#x17c;" horiz-adv-x="541" 
d="M278 580q-33 0 -55.5 23t-22.5 57q0 33 22.5 55t55.5 22q32 0 55 -22t23 -55q0 -34 -23 -57t-55 -23zM465 186l26 -10l-11 -176h-427v30l280 427h-171l-90 -136l-27 9l15 176h415v-29l-281 -428h184z" />
    <glyph glyph-name="Zcaron" unicode="&#x17d;" horiz-adv-x="676" 
d="M343 766l-159 137l18 25l141 -53l141 53l19 -25zM607 250l29 -11l-25 -239h-571v30l421 622h-251l-141 -193l-28 10l23 231h550v-31l-420 -620h263z" />
    <glyph glyph-name="zcaron" unicode="&#x17e;" horiz-adv-x="541" 
d="M288 569l-160 137l19 25l141 -53l141 53l18 -25zM465 186l26 -10l-11 -176h-427v30l280 427h-171l-90 -136l-27 9l15 176h415v-29l-281 -428h184z" />
    <glyph glyph-name="longs" unicode="&#x17f;" horiz-adv-x="417" 
d="M315 697q-35 -2 -61.5 -33.5t-26.5 -95.5v-501l99 -37v-30h-286v30l79 37v389h-109v50h109v53q0 85 60 133t143 48q93 0 177 -53l-69 -88z" />
    <glyph glyph-name="florin" unicode="&#x192;" horiz-adv-x="601" 
d="M504 697q-35 -2 -68 -33.5t-47 -95.5l-14 -72h170l-10 -50h-171l-76 -359q-28 -135 -109 -209.5t-223 -97.5l-6 30q94 48 152 116.5t80 172.5l74 347h-141l10 50h142l12 63q18 86 79.5 133.5t141.5 47.5q93 0 183 -59l-86 -83z" />
    <glyph glyph-name="Scommaaccent" unicode="&#x218;" horiz-adv-x="614" 
d="M564 197q0 -99 -73 -156t-183 -57q-147 0 -258 105l107 108l139 -171q79 0 117 34.5t38 86.5q0 25 -10 46t-23.5 35t-39.5 28.5t-44.5 22t-51.5 19.5l-44 17t-41.5 18t-42.5 23t-35 28t-30.5 36t-17.5 44t-8 55q0 97 69.5 147.5t171.5 50.5q135 0 250 -86l-88 -99
l-139 145q-70 0 -108 -34t-38 -87q0 -52 37 -81.5t110 -55.5q105 -37 143 -61q93 -57 93 -161zM306 -69q35 0 60.5 -23.5t25.5 -70.5q0 -19 -4.5 -37t-10 -31.5t-17.5 -30l-19 -26t-24 -25t-23.5 -20.5l-25.5 -20.5t-22 -17.5l-30 34l123 115l-11 20q-12 -6 -31 -6
q-25 0 -45.5 19t-20.5 50q0 29 22 49.5t53 20.5z" />
    <glyph glyph-name="scommaaccent" unicode="&#x219;" horiz-adv-x="482" 
d="M431 459l-67 -93l-116 108q-51 0 -77.5 -20t-26.5 -55q0 -20 9 -34.5t28.5 -25.5t36 -17t46.5 -15l48.5 -15.5t45.5 -20t44 -29.5t27.5 -40.5t12.5 -56.5q0 -75 -58.5 -115.5t-140.5 -40.5q-117 0 -203 65l78 101l124 -124q43 0 71 21t28 57q0 38 -30.5 58.5t-91.5 39.5
q-30 9 -47.5 15t-44 20t-41 29.5t-26 41t-11.5 56.5q0 74 53 110.5t136 36.5q95 0 193 -57zM251 -41q35 0 60.5 -23.5t25.5 -70.5q0 -19 -4.5 -37t-10 -31.5t-17.5 -30l-19 -26t-24 -25t-23.5 -20.5l-25.5 -20.5t-22 -17.5l-30 34l123 115l-11 20q-12 -6 -31 -6
q-25 0 -45.5 19t-20.5 50q0 29 22 49.5t53 20.5z" />
    <glyph glyph-name="uni021A" unicode="&#x21a;" horiz-adv-x="706" 
d="M673 700l23 -231l-29 -10l-140 193h-113v-584l105 -34v-34h-332v34l105 34v584h-113l-140 -193l-29 10l24 231h639zM358 -29q35 0 60.5 -23.5t25.5 -70.5q0 -19 -4.5 -37t-10 -31.5t-17.5 -30l-19 -26t-24 -25t-23.5 -20.5l-25.5 -20.5t-22 -17.5l-30 34l123 115l-11 20
q-12 -6 -31 -6q-25 0 -45.5 19t-20.5 50q0 29 22 49.5t53 20.5z" />
    <glyph glyph-name="uni021B" unicode="&#x21b;" horiz-adv-x="400" 
d="M373 91l17 -25q-72 -77 -157 -77q-63 0 -103 41.5t-40 118.5v307h-85v30l163 148h30v-128h159v-50h-159v-288q0 -101 92 -101q45 0 83 24zM221 -39q35 0 60.5 -23.5t25.5 -70.5q0 -19 -4.5 -37t-10 -31.5t-17.5 -30l-19 -26t-24 -25t-23.5 -20.5l-25.5 -20.5t-22 -17.5
l-30 34l123 115l-11 20q-12 -6 -31 -6q-25 0 -45.5 19t-20.5 50q0 29 22 49.5t53 20.5z" />
    <glyph glyph-name="circumflex" unicode="&#x2c6;" horiz-adv-x="319" 
d="M159 741l160 -137l-19 -25l-141 53l-141 -53l-18 25z" />
    <glyph glyph-name="caron" unicode="&#x2c7;" horiz-adv-x="319" 
d="M160 569l-160 137l19 25l141 -53l141 53l18 -25z" />
    <glyph glyph-name="uni02C9" unicode="&#x2c9;" horiz-adv-x="362" 
d="M362 801h-362v74h362v-74z" />
    <glyph glyph-name="breve" unicode="&#x2d8;" horiz-adv-x="295" 
d="M295 741q-5 -76 -45.5 -119t-102.5 -43q-61 0 -101.5 43t-45.5 119l29 8q37 -80 118 -80q84 0 119 80z" />
    <glyph glyph-name="dotaccent" unicode="&#x2d9;" horiz-adv-x="156" 
d="M78 580q-33 0 -55.5 23t-22.5 57q0 33 22.5 55t55.5 22q32 0 55 -22t23 -55q0 -34 -23 -57t-55 -23z" />
    <glyph glyph-name="ring" unicode="&#x2da;" horiz-adv-x="208" 
d="M208 683q0 49 -31.5 76.5t-72.5 27.5t-72.5 -27.5t-31.5 -76.5q0 -48 32 -76t72 -28t72 28t32 76zM159 683q0 -27 -16 -42.5t-39 -15.5t-39 15.5t-16 42.5q0 28 16 43.5t39 15.5t39 -15.5t16 -43.5z" />
    <glyph glyph-name="ogonek" unicode="&#x2db;" horiz-adv-x="194" 
d="M194 0q-42 -6 -75 -24.5t-33 -46.5q0 -43 86 -43v-85q-78 0 -125 24.5t-47 72.5q0 25 11.5 43.5t32.5 28.5t40.5 15.5t47.5 9.5v26h62v-21z" />
    <glyph glyph-name="tilde" unicode="&#x2dc;" horiz-adv-x="332" 
d="M273 579l-187 66l-61 -67l-25 14l71 161l162 -87l75 83l24 -14z" />
    <glyph glyph-name="hungarumlaut" unicode="&#x2dd;" horiz-adv-x="380" 
d="M114 800l65 -56l-148 -165l-31 26zM323 779l57 -60l-187 -140l-28 27z" />
    <glyph glyph-name="uni0394" unicode="&#x394;" horiz-adv-x="681" 
d="M377 700l294 -700h-656l263 619l-21 50v31h120zM97 50h421l-214 504z" />
    <glyph glyph-name="uni03A9" unicode="&#x3a9;" horiz-adv-x="756" 
d="M462 49h189v-49h-240v136q82 47 128 108t46 162q0 111 -58.5 181t-148.5 70t-148.5 -70t-58.5 -181q0 -101 46 -162t128 -108v-136h-240v49h189v65q-43 17 -82 40.5t-80.5 60t-66.5 91t-25 117.5q0 124 88 209t250 85t250 -85t88 -209q0 -63 -25 -117.5t-66.5 -91
t-80.5 -60t-82 -40.5v-65z" />
    <glyph glyph-name="uni03BC" unicode="&#x3bc;" horiz-adv-x="644" 
d="M540 91l89 -29v-30l-192 -48v113q-63 -108 -165 -108q-28 0 -50 7v-134l96 -32v-30h-283v30l79 32v536l-89 29v30l197 49v-312q0 -115 94 -115q34 0 66 16.5t50 42.5v261l-83 28v30l191 48v-414z" />
    <glyph glyph-name="pi" unicode="&#x3c0;" horiz-adv-x="765" 
d="M738 91l17 -25q-72 -77 -157 -77q-63 0 -103 41.5t-40 118.5v297h-215v-384l78 -32v-30h-264v30l78 32v384h-127v50h717v-50h-159v-278q0 -101 92 -101q45 0 83 24z" />
    <glyph glyph-name="uni1E02" unicode="&#x1e02;" horiz-adv-x="680" 
d="M322 776q-33 0 -55.5 23t-22.5 57q0 33 22.5 55t55.5 22q32 0 55 -22t23 -55q0 -34 -23 -57t-55 -23zM435 377q93 -13 149 -65.5t56 -120.5q0 -75 -63.5 -133t-171.5 -58h-370v34l85 34v564l-85 34v34h363q96 0 149.5 -46.5t53.5 -108.5q0 -56 -44 -103.5t-122 -64.5z
M242 652v-258h98q60 0 93.5 38.5t33.5 89.5q0 53 -36.5 91.5t-99.5 38.5h-89zM355 49q75 0 113.5 38t38.5 95q0 67 -50 115t-134 48h-81v-296h113z" />
    <glyph glyph-name="uni1E03" unicode="&#x1e03;" horiz-adv-x="600" 
d="M354 516q97 0 151.5 -73.5t54.5 -178.5q0 -71 -25 -132t-79 -102t-128 -41q-82 0 -158 66l-46 -66h-30v636l-89 29v30l197 49v-308q52 91 152 91zM386 571q-33 0 -55.5 23t-22.5 57q0 33 22.5 55t55.5 22q32 0 55 -22t23 -55q0 -34 -23 -57t-55 -23zM309 35
q63 0 99.5 58.5t36.5 138.5q0 79 -37 134t-105 55q-63 0 -101 -38v-184q0 -84 29 -124t78 -40z" />
    <glyph glyph-name="uni1E0A" unicode="&#x1e0a;" horiz-adv-x="751" 
d="M322 776q-33 0 -55.5 23t-22.5 57q0 33 22.5 55t55.5 22q32 0 55 -22t23 -55q0 -34 -23 -57t-55 -23zM369 700q82 0 148.5 -27.5t108 -73.5t63.5 -104.5t22 -122.5q0 -69 -25.5 -134.5t-73 -119t-125.5 -86t-174 -32.5h-278v34l85 34v564l-85 34v34h334zM300 49
q133 0 205.5 83t72.5 209q0 129 -76 220t-210 91h-50v-603h58z" />
    <glyph glyph-name="uni1E0B" unicode="&#x1e0b;" horiz-adv-x="637" 
d="M154 580q-33 0 -55.5 23t-22.5 57q0 33 22.5 55t55.5 22q32 0 55 -22t23 -55q0 -34 -23 -57t-55 -23zM508 91l89 -29v-30l-192 -48v98q-56 -93 -158 -93q-99 0 -153 73.5t-54 177.5q0 112 61 194t171 82q74 0 128 -40v149l-89 29v30l197 49v-642zM400 122v187
q0 159 -107 159q-65 0 -101 -57.5t-36 -135.5q0 -79 37.5 -135t105.5 -56q61 0 101 38z" />
    <glyph glyph-name="uni1E1E" unicode="&#x1e1e;" horiz-adv-x="657" 
d="M363 776q-33 0 -55.5 23t-22.5 57q0 33 22.5 55t55.5 22q32 0 55 -22t23 -55q0 -34 -23 -57t-55 -23zM614 700l23 -231l-29 -10l-140 193h-226v-273h150l55 101h28v-251h-28l-55 101h-150v-262l104 -34v-34h-311v34l85 34v564l-85 34v34h579z" />
    <glyph glyph-name="uni1E1F" unicode="&#x1e1f;" horiz-adv-x="417" 
d="M320 776q-33 0 -55.5 23t-22.5 57q0 33 22.5 55t55.5 22q32 0 55 -22t23 -55q0 -34 -23 -57t-55 -23zM315 697q-35 -2 -61.5 -33.5t-26.5 -95.5v-62h171v-50h-171v-389l99 -37v-30h-286v30l79 37v389h-109v50h109v53q0 85 60 133t143 48q93 0 177 -53l-69 -88z" />
    <glyph glyph-name="uni1E40" unicode="&#x1e40;" horiz-adv-x="1007" 
d="M503 776q-33 0 -55.5 23t-22.5 57q0 33 22.5 55t55.5 22q32 0 55 -22t23 -55q0 -34 -23 -57t-55 -23zM917 65l80 -31v-34h-295v34l88 34l-71 442l-217 -510h-46l-223 522l-73 -452l92 -36v-34h-242v34l93 34l99 563l-88 35v34h186l214 -548l222 548h173v-34l-88 -35z" />
    <glyph glyph-name="uni1E41" unicode="&#x1e41;" horiz-adv-x="954" 
d="M505 580q-33 0 -55.5 23t-22.5 57q0 33 22.5 55t55.5 22q32 0 55 -22t23 -55q0 -34 -23 -57t-55 -23zM855 67l79 -37v-30h-266v30l79 37v248q0 56 -29 84t-75 28q-58 0 -102 -50v-310l79 -37v-30h-266v30l79 37v245q0 58 -27 86.5t-72 28.5q-56 0 -107 -50v-310l79 -37
v-30h-266v30l79 37v342l-89 29v30l191 48v-104q27 43 71 73.5t101 30.5q94 0 136 -102q63 102 174 102q74 0 113 -49.5t39 -141.5v-258z" />
    <glyph glyph-name="uni1E56" unicode="&#x1e56;" horiz-adv-x="649" 
d="M317 776q-33 0 -55.5 23t-22.5 57q0 33 22.5 55t55.5 22q32 0 55 -22t23 -55q0 -34 -23 -57t-55 -23zM386 700q109 0 168.5 -56.5t59.5 -137.5q0 -88 -68.5 -152t-188.5 -64h-115v-222l105 -34v-34h-312v34l85 34v564l-85 34v34h351zM314 338q81 0 123 42.5t42 109.5
q0 69 -44.5 115.5t-123.5 46.5h-69v-314h72z" />
    <glyph glyph-name="uni1E57" unicode="&#x1e57;" horiz-adv-x="619" 
d="M368 580q-33 0 -55.5 23t-22.5 57q0 33 22.5 55t55.5 22q32 0 55 -22t23 -55q0 -34 -23 -57t-55 -23zM372 516q96 0 151.5 -73.5t55.5 -176.5q0 -108 -61 -187t-171 -79q-68 0 -125 40v-173l99 -37v-30h-286v30l79 37v542l-89 29v30l191 48v-102q49 102 156 102zM328 48
q65 0 100.5 55t35.5 132q0 78 -37 132t-105 54q-62 0 -100 -38v-173q0 -162 106 -162z" />
    <glyph glyph-name="uni1E60" unicode="&#x1e60;" horiz-adv-x="614" 
d="M295 776q-33 0 -55.5 23t-22.5 57q0 33 22.5 55t55.5 22q32 0 55 -22t23 -55q0 -34 -23 -57t-55 -23zM564 197q0 -99 -73 -156t-183 -57q-147 0 -258 105l107 108l139 -171q79 0 117 34.5t38 86.5q0 25 -10 46t-23.5 35t-39.5 28.5t-44.5 22t-51.5 19.5l-44 17t-41.5 18
t-42.5 23t-35 28t-30.5 36t-17.5 44t-8 55q0 97 69.5 147.5t171.5 50.5q135 0 250 -86l-88 -99l-139 145q-70 0 -108 -34t-38 -87q0 -52 37 -81.5t110 -55.5q105 -37 143 -61q93 -57 93 -161z" />
    <glyph glyph-name="uni1E61" unicode="&#x1e61;" horiz-adv-x="482" 
d="M245 580q-33 0 -55.5 23t-22.5 57q0 33 22.5 55t55.5 22q32 0 55 -22t23 -55q0 -34 -23 -57t-55 -23zM431 459l-67 -93l-116 108q-51 0 -77.5 -20t-26.5 -55q0 -20 9 -34.5t28.5 -25.5t36 -17t46.5 -15l48.5 -15.5t45.5 -20t44 -29.5t27.5 -40.5t12.5 -56.5
q0 -75 -58.5 -115.5t-140.5 -40.5q-117 0 -203 65l78 101l124 -124q43 0 71 21t28 57q0 38 -30.5 58.5t-91.5 39.5q-30 9 -47.5 15t-44 20t-41 29.5t-26 41t-11.5 56.5q0 74 53 110.5t136 36.5q95 0 193 -57z" />
    <glyph glyph-name="uni1E6A" unicode="&#x1e6a;" horiz-adv-x="706" 
d="M353 776q-33 0 -55.5 23t-22.5 57q0 33 22.5 55t55.5 22q32 0 55 -22t23 -55q0 -34 -23 -57t-55 -23zM673 700l23 -231l-29 -10l-140 193h-113v-584l105 -34v-34h-332v34l105 34v584h-113l-140 -193l-29 10l24 231h639z" />
    <glyph glyph-name="uni1E6B" unicode="&#x1e6b;" horiz-adv-x="400" 
d="M166 690q-33 0 -55.5 23t-22.5 57q0 33 22.5 55t55.5 22q32 0 55 -22t23 -55q0 -34 -23 -57t-55 -23zM373 91l17 -25q-72 -77 -157 -77q-63 0 -103 41.5t-40 118.5v307h-85v30l163 148h30v-128h159v-50h-159v-288q0 -101 92 -101q45 0 83 24z" />
    <glyph glyph-name="Wgrave" unicode="&#x1e80;" horiz-adv-x="1024" 
d="M417 926l229 -143l-11 -26l-264 59zM787 700h227v-34l-61 -33l-237 -633h-30l-166 413l-158 -413h-30l-256 634l-66 32v34h282v-34l-84 -32l175 -441l110 292l-74 181v34h197v-34l-32 -84l153 -386l157 439l-107 31v34z" />
    <glyph glyph-name="wgrave" unicode="&#x1e81;" horiz-adv-x="803" 
d="M268 770l213 -166l-14 -25l-256 86zM592 506h196v-29l-213 -477h-33l-131 289l-134 -289h-22l-186 419l-79 19v30l164 48l148 -357l81 192l-56 126v29h158v-29l-17 -39l124 -291l119 280l-119 50v29z" />
    <glyph glyph-name="Wacute" unicode="&#x1e82;" horiz-adv-x="1024" 
d="M679 926l46 -110l-264 -59l-11 26zM787 700h227v-34l-61 -33l-237 -633h-30l-166 413l-158 -413h-30l-256 634l-66 32v34h282v-34l-84 -32l175 -441l110 292l-74 181v34h197v-34l-32 -84l153 -386l157 439l-107 31v34z" />
    <glyph glyph-name="wacute" unicode="&#x1e83;" horiz-adv-x="803" 
d="M519 770l57 -105l-256 -86l-14 25zM592 506h196v-29l-213 -477h-33l-131 289l-134 -289h-22l-186 419l-79 19v30l164 48l148 -357l81 192l-56 126v29h158v-29l-17 -39l124 -291l119 280l-119 50v29z" />
    <glyph glyph-name="Wdieresis" unicode="&#x1e84;" horiz-adv-x="1024" 
d="M442 906q29 0 47.5 -18.5t18.5 -45.5q0 -28 -18.5 -47t-47.5 -19q-27 0 -45.5 19t-18.5 47q0 27 18.5 45.5t45.5 18.5zM650 906q28 0 47 -18.5t19 -45.5q0 -28 -19 -47t-47 -19t-46 19t-18 47q0 27 18 45.5t46 18.5zM787 700h227v-34l-61 -33l-237 -633h-30l-166 413
l-158 -413h-30l-256 634l-66 32v34h282v-34l-84 -32l175 -441l110 292l-74 181v34h197v-34l-32 -84l153 -386l157 439l-107 31v34z" />
    <glyph glyph-name="wdieresis" unicode="&#x1e85;" horiz-adv-x="803" 
d="M306 709q29 0 47.5 -18.5t18.5 -45.5q0 -28 -18.5 -47t-47.5 -19q-27 0 -45.5 19t-18.5 47q0 27 18.5 45.5t45.5 18.5zM504 709q28 0 46.5 -18.5t18.5 -45.5q0 -28 -18.5 -47t-46.5 -19t-46 19t-18 47q0 27 18 45.5t46 18.5zM592 506h196v-29l-213 -477h-33l-131 289
l-134 -289h-22l-186 419l-79 19v30l164 48l148 -357l81 192l-56 126v29h158v-29l-17 -39l124 -291l119 280l-119 50v29z" />
    <glyph glyph-name="Ygrave" unicode="&#x1ef2;" horiz-adv-x="635" 
d="M146 926l229 -143l-11 -26l-264 59zM390 700h235v-34l-54 -28l-197 -313v-257l105 -34v-34h-332v34l105 34v214l-242 384v34h248v-34l-86 -32l159 -284l170 284l-111 32v34z" />
    <glyph glyph-name="ygrave" unicode="&#x1ef3;" horiz-adv-x="512" 
d="M77 770l213 -166l-14 -25l-256 86zM288 506h214v-29l-220 -510q-59 -137 -182 -137q-56 0 -116 28l29 94h30q41 -32 87 -32q43 0 78.5 27t49.5 73l-203 403l-75 17v30l155 46l178 -365l112 275l-137 51v29z" />
    <glyph glyph-name="endash" unicode="&#x2013;" horiz-adv-x="573" 
d="M513 338v-50h-453v50h453z" />
    <glyph glyph-name="emdash" unicode="&#x2014;" horiz-adv-x="801" 
d="M741 338v-50h-681v50h681z" />
    <glyph glyph-name="quoteleft" unicode="&#x2018;" horiz-adv-x="256" 
d="M121 496q-35 0 -60.5 23.5t-25.5 70.5q0 19 4.5 37t10 31.5t17.5 30l19 26t24 25t23.5 20.5l25.5 20.5t22 17.5l30 -34l-123 -115l11 -20q12 6 31 6q25 0 45.5 -19t20.5 -50q0 -29 -22 -49.5t-53 -20.5z" />
    <glyph glyph-name="quoteright" unicode="&#x2019;" horiz-adv-x="256" 
d="M125 710q35 0 60.5 -23.5t25.5 -70.5q0 -19 -4.5 -37t-10 -31.5t-17.5 -30l-19 -26t-24 -25t-23.5 -20.5l-25.5 -20.5t-22 -17.5l-30 34l123 115l-11 20q-12 -6 -31 -6q-25 0 -45.5 19t-20.5 50q0 29 22 49.5t53 20.5z" />
    <glyph glyph-name="quotesinglbase" unicode="&#x201a;" horiz-adv-x="256" 
d="M125 174q35 0 60.5 -23.5t25.5 -70.5q0 -19 -4.5 -37t-10 -31.5t-17.5 -30l-19 -26t-24 -25t-23.5 -20.5l-25.5 -20.5t-22 -17.5l-30 34l123 115l-11 20q-12 -6 -31 -6q-25 0 -45.5 19t-20.5 50q0 29 22 49.5t53 20.5z" />
    <glyph glyph-name="quotedblleft" unicode="&#x201c;" horiz-adv-x="462" 
d="M121 496q-35 0 -60.5 23.5t-25.5 70.5q0 19 4.5 37t10 31.5t17.5 30l19 26t24 25t23.5 20.5l25.5 20.5t22 17.5l30 -34l-123 -115l11 -20q12 6 31 6q25 0 45.5 -19t20.5 -50q0 -29 -22 -49.5t-53 -20.5zM327 496q-35 0 -60.5 23.5t-25.5 70.5q0 19 4.5 37t10 31.5
t17.5 30l19 26t24 25t23.5 20.5l25.5 20.5t22 17.5l30 -34l-123 -115l11 -20q12 6 31 6q25 0 45.5 -19t20.5 -50q0 -29 -22 -49.5t-53 -20.5z" />
    <glyph glyph-name="quotedblright" unicode="&#x201d;" horiz-adv-x="462" 
d="M125 710q35 0 60.5 -23.5t25.5 -70.5q0 -19 -4.5 -37t-10 -31.5t-17.5 -30l-19 -26t-24 -25t-23.5 -20.5l-25.5 -20.5t-22 -17.5l-30 34l123 115l-11 20q-12 -6 -31 -6q-25 0 -45.5 19t-20.5 50q0 29 22 49.5t53 20.5zM331 710q35 0 60.5 -23.5t25.5 -70.5
q0 -19 -4.5 -37t-10 -31.5t-17.5 -30l-19 -26t-24 -25t-23.5 -20.5l-25.5 -20.5t-22 -17.5l-30 34l123 115l-11 20q-12 -6 -31 -6q-25 0 -45.5 19t-20.5 50q0 29 22 49.5t53 20.5z" />
    <glyph glyph-name="quotedblbase" unicode="&#x201e;" horiz-adv-x="462" 
d="M125 174q35 0 60.5 -23.5t25.5 -70.5q0 -19 -4.5 -37t-10 -31.5t-17.5 -30l-19 -26t-24 -25t-23.5 -20.5l-25.5 -20.5t-22 -17.5l-30 34l123 115l-11 20q-12 -6 -31 -6q-25 0 -45.5 19t-20.5 50q0 29 22 49.5t53 20.5zM331 174q35 0 60.5 -23.5t25.5 -70.5
q0 -19 -4.5 -37t-10 -31.5t-17.5 -30l-19 -26t-24 -25t-23.5 -20.5l-25.5 -20.5t-22 -17.5l-30 34l123 115l-11 20q-12 -6 -31 -6q-25 0 -45.5 19t-20.5 50q0 29 22 49.5t53 20.5z" />
    <glyph glyph-name="dagger" unicode="&#x2020;" horiz-adv-x="530" 
d="M251 0l-48 241l46 193l-189 -53v138l189 -52l-53 233h138l-53 -233l189 52v-138l-189 53l46 -193l-49 -241h-27z" />
    <glyph glyph-name="daggerdbl" unicode="&#x2021;" horiz-adv-x="530" 
d="M470 428l-190 52l45 -127l-45 -134l190 53v-139l-189 53l53 -186h-138l52 186l-188 -53v139l189 -53l-44 134l44 127l-189 -52v138l188 -53l-52 187h138l-53 -187l189 53v-138z" />
    <glyph glyph-name="bullet" unicode="&#x2022;" horiz-adv-x="282" 
d="M141 458q43 0 72 -29.5t29 -71.5q0 -43 -29 -72t-72 -29t-72 29t-29 72q0 42 29 71.5t72 29.5z" />
    <glyph glyph-name="ellipsis" unicode="&#x2026;" horiz-adv-x="816" 
d="M136 -11q-33 0 -55.5 23t-22.5 57q0 33 22.5 55t55.5 22q32 0 55 -22t23 -55q0 -34 -23 -57t-55 -23zM408 -11q-33 0 -55.5 23t-22.5 57q0 33 22.5 55t55.5 22q32 0 55 -22t23 -55q0 -34 -23 -57t-55 -23zM680 -11q-33 0 -55.5 23t-22.5 57q0 33 22.5 55t55.5 22
q32 0 55 -22t23 -55q0 -34 -23 -57t-55 -23z" />
    <glyph glyph-name="perthousand" unicode="&#x2030;" horiz-adv-x="1401" 
d="M228 711q84 0 136 -55t52 -141q0 -89 -55 -142t-138 -53q-84 0 -136 54.5t-52 139.5q0 90 55 143.5t138 53.5zM730 700l-437 -700h-57l437 700h57zM228 367q34 0 53.5 36t19.5 102q0 73 -20 116.5t-57 43.5q-34 0 -53.5 -36t-19.5 -102q0 -74 19.5 -117t57.5 -43z
M748 380q84 0 136 -55t52 -141q0 -89 -55 -142t-138 -53q-84 0 -136 54.5t-52 139.5q0 90 55 143.5t138 53.5zM1178 380q84 0 136 -55t52 -141q0 -89 -55 -142t-138 -53q-84 0 -136 54.5t-52 139.5q0 90 55 143.5t138 53.5zM748 36q34 0 53.5 36t19.5 102q0 73 -20 116.5
t-57 43.5q-34 0 -53.5 -36t-19.5 -102q0 -74 19.5 -117t57.5 -43zM1178 36q34 0 53.5 36t19.5 102q0 73 -20 116.5t-57 43.5q-34 0 -53.5 -36t-19.5 -102q0 -74 19.5 -117t57.5 -43z" />
    <glyph glyph-name="guilsinglleft" unicode="&#x2039;" horiz-adv-x="294" 
d="M254 477l-119 -196l119 -196l-28 -19l-216 215l216 215z" />
    <glyph glyph-name="guilsinglright" unicode="&#x203a;" horiz-adv-x="294" 
d="M40 477l28 19l216 -215l-216 -215l-28 19l119 196z" />
    <glyph glyph-name="fraction" unicode="&#x2044;" horiz-adv-x="614" 
d="M554 700l-437 -700h-57l437 700h57z" />
    <glyph glyph-name="Euro" unicode="&#x20ac;" horiz-adv-x="793" 
d="M736 188l27 -22q-49 -92 -128.5 -137t-168.5 -45q-124 0 -226.5 79t-123.5 218h-96v41h92v21q0 30 5 65h-97v41h106q33 123 132.5 195.5t222.5 72.5q67 0 140.5 -23.5t133.5 -71.5l-94 -112l-186 167q-106 -9 -171.5 -73t-82.5 -155h275v-41h-280q-1 -6 -1 -19
q0 -36 7 -67h274v-41h-262q30 -82 100.5 -133t168.5 -51q135 0 233 91z" />
    <glyph glyph-name="uni2113" unicode="&#x2113;" horiz-adv-x="430" 
d="M405 626q0 -97 -127 -166l-68 -37l-68 -297q-14 -71 25 -71q49 0 115 88l19 -24q-87 -130 -181 -130q-42 0 -64.5 23.5t-22.5 64.5q0 18 5 46l59 254l-72 -39l12 53l70 36l33 134q17 78 64.5 116.5t101.5 38.5q40 0 69.5 -22t29.5 -68zM252 606l-30 -131l22 13
q107 59 107 129q0 25 -11.5 39t-30.5 14q-20 0 -35 -17t-22 -47z" />
    <glyph glyph-name="uni2116" unicode="&#x2116;" horiz-adv-x="1281" 
d="M1058 711q84 0 136 -55t52 -141q0 -89 -55 -142t-138 -53q-84 0 -136 54.5t-52 139.5q0 90 55 143.5t138 53.5zM551 700h246v-34l-85 -34v-632h-71l-465 528v-460l106 -34v-34h-247v34l85 34v526l-65 75v31h140l461 -533v465l-105 34v34zM1058 367q34 0 53.5 36t19.5 102
q0 73 -20 116.5t-57 43.5q-34 0 -53.5 -36t-19.5 -102q0 -74 19.5 -117t57.5 -43z" />
    <glyph glyph-name="trademark" unicode="&#x2122;" horiz-adv-x="778" 
d="M249 674h-32v-226l54 -15v-25h-184v25l53 15v226h-33l-60 -82l-17 3l10 105h278l11 -105l-17 -3zM724 447l34 -14v-25h-137v25l32 15l-27 176l-93 -216h-20l-86 198l-25 -157l39 -16v-25h-119v25l44 15l37 213l-35 14v25h94l81 -187l80 187h98v-25l-36 -14z" />
    <glyph glyph-name="estimated" unicode="&#x212e;" horiz-adv-x="589" 
d="M312 564q116 0 183 -71t67 -194q0 -36 -2 -55h-440v-97q29 -50 85.5 -81t120.5 -31q88 0 163 57l26 -36q-82 -67 -191 -67q-125 0 -204.5 82t-79.5 210q0 123 76 203t196 80zM311 518q-61 0 -112 -26t-79 -71v-130h358v148q-23 37 -67.5 58t-99.5 21z" />
    <glyph glyph-name="uni2153" unicode="&#x2153;" horiz-adv-x="987" 
d="M728 700l-437 -700h-57l437 700h57zM235 315l76 -20v-20h-251v20l76 20v302h-76v21l175 61v-384zM802 225q58 -10 91.5 -40t33.5 -70q0 -46 -42.5 -83t-116.5 -37q-89 0 -162 61l66 71l97 -108q24 11 40.5 38t16.5 57q0 38 -25.5 62.5t-67.5 24.5h-30v33h10q42 0 69 22.5
t27 65.5q0 51 -44 80l-92 -96l-61 65q63 55 158 55q63 0 103 -30.5t40 -70.5q0 -35 -30.5 -63t-80.5 -37z" />
    <glyph glyph-name="uni2154" unicode="&#x2154;" horiz-adv-x="1018" 
d="M401 407l-19 -131h-313v20q199 145 199 266q0 35 -16.5 68t-42.5 46l-80 -106l-69 63q70 67 164 67q64 0 107 -32t43 -87q0 -52 -45.5 -102.5t-138.5 -113.5h157l37 48zM784 700l-437 -700h-57l437 700h57zM833 225q58 -10 91.5 -40t33.5 -70q0 -46 -42.5 -83t-116.5 -37
q-89 0 -162 61l66 71l97 -108q24 11 40.5 38t16.5 57q0 38 -25.5 62.5t-67.5 24.5h-30v33h10q42 0 69 22.5t27 65.5q0 51 -44 80l-92 -96l-61 65q63 55 158 55q63 0 103 -30.5t40 -70.5q0 -35 -30.5 -63t-80.5 -37z" />
    <glyph glyph-name="uni2155" unicode="&#x2155;" horiz-adv-x="943" 
d="M728 700l-437 -700h-57l437 700h57zM235 315l76 -20v-20h-251v20l76 20v302h-76v21l175 61v-384zM700 274q89 0 136 -39.5t47 -97.5t-42 -100.5t-114 -42.5q-87 0 -161 61l67 71l96 -108q32 9 49 31t17 47q0 39 -35.5 67t-99.5 28q-24 0 -52 -5l24 230h228l-16 -90h-190
l-6 -55q25 3 52 3z" />
    <glyph glyph-name="uni2156" unicode="&#x2156;" horiz-adv-x="999" 
d="M401 407l-19 -131h-313v20q199 145 199 266q0 35 -16.5 68t-42.5 46l-80 -106l-69 63q70 67 164 67q64 0 107 -32t43 -87q0 -52 -45.5 -102.5t-138.5 -113.5h157l37 48zM784 700l-437 -700h-57l437 700h57zM756 274q89 0 136 -39.5t47 -97.5t-42 -100.5t-114 -42.5
q-87 0 -161 61l67 71l96 -108q32 9 49 31t17 47q0 39 -35.5 67t-99.5 28q-24 0 -52 -5l24 230h228l-16 -90h-190l-6 -55q26 3 52 3z" />
    <glyph glyph-name="uni2157" unicode="&#x2157;" horiz-adv-x="967" 
d="M256 499q58 -10 91.5 -40t33.5 -70q0 -46 -42.5 -83t-116.5 -37q-89 0 -162 61l66 71l97 -108q24 11 40.5 38t16.5 57q0 38 -25.5 62.5t-67.5 24.5h-30v33h10q42 0 69 22.5t27 65.5q0 51 -44 80l-92 -96l-61 65q63 55 158 55q63 0 103 -30.5t40 -70.5q0 -35 -30.5 -63
t-80.5 -37zM752 700l-437 -700h-57l437 700h57zM724 274q89 0 136 -39.5t47 -97.5t-42 -100.5t-114 -42.5q-87 0 -161 61l67 71l96 -108q32 9 49 31t17 47q0 39 -35.5 67t-99.5 28q-24 0 -52 -5l24 230h228l-16 -90h-190l-6 -55q26 3 52 3z" />
    <glyph glyph-name="uni2158" unicode="&#x2158;" horiz-adv-x="1023" 
d="M808 700l-437 -700h-57l437 700h57zM350 387v-71l76 -20v-20h-251v20l76 20v71h-191v18l142 285h145l-239 -270h143v81l99 22v-103h79v-33h-79zM780 274q89 0 136 -39.5t47 -97.5t-42 -100.5t-114 -42.5q-87 0 -161 61l67 71l96 -108q32 9 49 31t17 47q0 39 -35.5 67
t-99.5 28q-24 0 -52 -5l24 230h228l-16 -90h-190l-6 -55q26 3 52 3z" />
    <glyph glyph-name="uni2159" unicode="&#x2159;" horiz-adv-x="981" 
d="M728 700l-437 -700h-57l437 700h57zM235 315l76 -20v-20h-251v20l76 20v302h-76v21l175 61v-384zM784 275q57 0 97 -36.5t40 -95.5t-40.5 -103.5t-113.5 -44.5q-86 0 -134 62t-48 148q0 89 50.5 155t139.5 66q76 0 142 -56l-69 -63l-73 95q-36 -18 -60.5 -65.5
t-26.5 -106.5q38 45 96 45zM762 26q27 0 41 29.5t14 69.5q0 47 -19.5 73.5t-52.5 26.5q-31 0 -56 -20q0 -75 19.5 -127t53.5 -52z" />
    <glyph glyph-name="uni215A" unicode="&#x215a;" horiz-adv-x="998" 
d="M745 700l-437 -700h-57l437 700h57zM194 548q89 0 136 -39.5t47 -97.5t-42 -100.5t-114 -42.5q-87 0 -161 61l67 71l96 -108q32 9 49 31t17 47q0 39 -35.5 67t-99.5 28q-24 0 -52 -5l24 230h228l-16 -90h-190l-6 -55q25 3 52 3zM801 275q57 0 97 -36.5t40 -95.5
t-40.5 -103.5t-113.5 -44.5q-86 0 -134 62t-48 148q0 89 50.5 155t139.5 66q76 0 142 -56l-69 -63l-73 95q-36 -18 -60.5 -65.5t-26.5 -106.5q37 45 96 45zM779 26q27 0 41 29.5t14 69.5q0 47 -19.5 73.5t-52.5 26.5q-31 0 -56 -20q0 -75 19.5 -127t53.5 -52z" />
    <glyph glyph-name="oneeighth" unicode="&#x215b;" horiz-adv-x="981" 
d="M728 700l-437 -700h-57l437 700h57zM235 315l76 -20v-20h-251v20l76 20v302h-76v21l175 61v-384zM798 243q60 -26 91.5 -55t31.5 -75q0 -58 -49.5 -88t-121.5 -30q-70 0 -119.5 28t-49.5 84q0 79 117 93q-96 46 -96 118q0 50 40.5 79t107.5 29q61 0 106 -24t45 -70
q0 -63 -103 -89zM745 394q-23 0 -38 -15t-15 -39q0 -16 6.5 -29.5t20 -24t24 -16.5t28.5 -14q30 26 30 70q0 33 -15.5 50.5t-40.5 17.5zM756 26q28 0 49 17.5t21 49.5q0 11 -3 20.5t-6.5 16.5t-11.5 14l-13.5 11.5t-17 10.5t-16 8l-18 8t-16.5 7q-41 -24 -41 -81
q0 -40 21.5 -61t51.5 -21z" />
    <glyph glyph-name="threeeighths" unicode="&#x215c;" horiz-adv-x="1014" 
d="M256 499q58 -10 91.5 -40t33.5 -70q0 -46 -42.5 -83t-116.5 -37q-89 0 -162 61l66 71l97 -108q24 11 40.5 38t16.5 57q0 38 -25.5 62.5t-67.5 24.5h-30v33h10q42 0 69 22.5t27 65.5q0 51 -44 80l-92 -96l-61 65q63 55 158 55q63 0 103 -30.5t40 -70.5q0 -35 -30.5 -63
t-80.5 -37zM751 700l-437 -700h-57l437 700h57zM831 243q60 -26 91.5 -55t31.5 -75q0 -58 -49.5 -88t-121.5 -30q-70 0 -119.5 28t-49.5 84q0 79 117 93q-96 46 -96 118q0 50 40.5 79t107.5 29q61 0 106 -24t45 -70q0 -63 -103 -89zM778 394q-23 0 -38 -15t-15 -39
q0 -16 6.5 -29.5t20 -24t24 -16.5t28.5 -14q30 26 30 70q0 33 -15.5 50.5t-40.5 17.5zM789 26q28 0 49 17.5t21 49.5q0 11 -3 20.5t-6.5 16.5t-11.5 14l-13.5 11.5t-17 10.5t-16 8l-18 8t-16.5 7q-41 -24 -41 -81q0 -40 21.5 -61t51.5 -21z" />
    <glyph glyph-name="fiveeighths" unicode="&#x215d;" horiz-adv-x="1011" 
d="M744 700l-437 -700h-57l437 700h57zM194 548q89 0 136 -39.5t47 -97.5t-42 -100.5t-114 -42.5q-87 0 -161 61l67 71l96 -108q32 9 49 31t17 47q0 39 -35.5 67t-99.5 28q-24 0 -52 -5l24 230h228l-16 -90h-190l-6 -55q25 3 52 3zM828 243q60 -26 91.5 -55t31.5 -75
q0 -58 -49.5 -88t-121.5 -30q-70 0 -119.5 28t-49.5 84q0 79 117 93q-96 46 -96 118q0 50 40.5 79t107.5 29q61 0 106 -24t45 -70q0 -63 -103 -89zM775 394q-23 0 -38 -15t-15 -39q0 -16 6.5 -29.5t20 -24t24 -16.5t28.5 -14q30 26 30 70q0 33 -15.5 50.5t-40.5 17.5z
M786 26q28 0 49 17.5t21 49.5q0 11 -3 20.5t-6.5 16.5t-11.5 14l-13.5 11.5t-17 10.5t-16 8l-18 8t-16.5 7q-41 -24 -41 -81q0 -40 21.5 -61t51.5 -21z" />
    <glyph glyph-name="seveneighths" unicode="&#x215e;" horiz-adv-x="978" 
d="M727 700l-437 -700h-57l437 700h57zM74 690h311v-13l-149 -401h-123v18l217 306h-210l-44 -51l-16 5zM795 243q60 -26 91.5 -55t31.5 -75q0 -58 -49.5 -88t-121.5 -30q-70 0 -119.5 28t-49.5 84q0 79 117 93q-96 46 -96 118q0 50 40.5 79t107.5 29q61 0 106 -24t45 -70
q0 -63 -103 -89zM742 394q-23 0 -38 -15t-15 -39q0 -16 6.5 -29.5t20 -24t24 -16.5t28.5 -14q30 26 30 70q0 33 -15.5 50.5t-40.5 17.5zM753 26q28 0 49 17.5t21 49.5q0 11 -3 20.5t-6.5 16.5t-11.5 14l-13.5 11.5t-17 10.5t-16 8l-18 8t-16.5 7q-41 -24 -41 -81
q0 -40 21.5 -61t51.5 -21z" />
    <glyph glyph-name="partialdiff" unicode="&#x2202;" horiz-adv-x="625" 
d="M268 452q114 0 195 -94q-1 114 -46 198t-132 107l-147 -142l-86 92q107 88 230 88q93 0 164 -54t105 -136t34 -176q0 -90 -31 -166.5t-98.5 -127.5t-160.5 -51q-118 0 -186.5 73.5t-68.5 170.5q0 96 67 157t161 61zM293 41q71 0 116 74t52 195q-65 62 -143 62
q-66 0 -110 -46t-44 -123q0 -71 36.5 -116.5t92.5 -45.5z" />
    <glyph glyph-name="product" unicode="&#x220f;" horiz-adv-x="852" 
d="M817 650h-99v-582l86 -34v-34h-293v34l85 34v582h-339v-582l86 -34v-34h-293v34l85 34v582h-100v50h782v-50z" />
    <glyph glyph-name="summation" unicode="&#x2211;" horiz-adv-x="702" 
d="M623 250l29 -11l-25 -239h-587v30l213 316l-213 323v31h574l23 -231l-29 -10l-140 193h-266l197 -302l-209 -301h283z" />
    <glyph glyph-name="minus" unicode="&#x2212;" horiz-adv-x="570" 
d="M510 375v-50h-450v50h450z" />
    <glyph glyph-name="uni2215" unicode="&#x2215;" horiz-adv-x="453" 
d="M438 701l-350 -701h-73l350 701h73z" />
    <glyph glyph-name="uni2219" unicode="&#x2219;" horiz-adv-x="292" 
d="M146 507q43 0 72 -29.5t29 -71.5q0 -43 -29 -72t-72 -29t-72 29t-29 72q0 42 29 71.5t72 29.5z" />
    <glyph glyph-name="radical" unicode="&#x221a;" horiz-adv-x="654" 
d="M644 700l-351 -700h-16l-210 423l-77 17v30l157 46l174 -361l264 545h59z" />
    <glyph glyph-name="infinity" unicode="&#x221e;" horiz-adv-x="926" 
d="M675 600q90 0 150.5 -68.5t60.5 -177.5q0 -114 -64 -182t-149 -68q-74 0 -130.5 50.5t-80.5 122.5q-28 -70 -79.5 -121.5t-131.5 -51.5q-90 0 -150.5 68.5t-60.5 177.5q0 113 64.5 181.5t148.5 68.5q74 0 130 -51t80 -123q29 73 81.5 123.5t130.5 50.5zM245 230
q42 0 77.5 13t59 34.5t36.5 38t23 34.5q-51 125 -190 125q-75 0 -118 -34.5t-43 -86.5t41.5 -88t113.5 -36zM676 230q73 0 116 36t43 90q0 53 -40.5 86t-112.5 33q-80 0 -128.5 -38t-68.5 -82q58 -125 191 -125z" />
    <glyph glyph-name="integral" unicode="&#x222b;" horiz-adv-x="312" 
d="M386 700l8 -19q-83 -48 -125.5 -117t-42.5 -174v-321q0 -123 -68 -203.5t-201 -103.5l-7 19q82 47 125 116t43 175v321q0 123 67.5 203.5t200.5 103.5z" />
    <glyph glyph-name="approxequal" unicode="&#x2248;" horiz-adv-x="641" 
d="M177 453q49 0 144 -30.5t140 -30.5q62 0 120 54v-62q-52 -45 -113 -45q-49 -1 -144.5 30t-143.5 31q-68 0 -120 -48v58q54 43 117 43zM177 302q49 0 144 -29.5t140 -29.5q63 0 120 54v-63q-51 -45 -113 -45q-49 -1 -144 30t-144 31q-68 0 -120 -48v58q53 42 117 42z" />
    <glyph glyph-name="notequal" unicode="&#x2260;" horiz-adv-x="570" 
d="M510 418h-169l-89 -136h258v-50h-291l-85 -128l-32 22l70 106h-112v50h145l89 136h-234v50h267l92 139l32 -23l-77 -116h136v-50z" />
    <glyph glyph-name="lessequal" unicode="&#x2264;" horiz-adv-x="581" 
d="M507 547l19 -50l-401 -162l401 -162l-19 -50l-442 188v48zM531 0h-481v50h481v-50z" />
    <glyph glyph-name="greaterequal" unicode="&#x2265;" horiz-adv-x="581" 
d="M74 547l442 -188v-48l-442 -188l-19 50l401 162l-401 162zM50 0v50h481v-50h-481z" />
    <glyph glyph-name="lozenge" unicode="&#x25ca;" horiz-adv-x="615" 
d="M308 600l262 -263l-262 -262l-263 262zM308 497l-161 -159l161 -162l160 162z" />
    <glyph glyph-name="fl" unicode="&#xfb02;" horiz-adv-x="682" 
d="M573 67l79 -37v-30h-266v30l79 37v558h-66l-84 72q-35 -2 -61.5 -33.5t-26.5 -95.5v-62h171v-50h-171v-389l99 -37v-30h-286v30l79 37v389h-109v50h109v53q0 85 59 133t142 48q79 0 143 -34l110 27v-666z" />
    <glyph glyph-name="ffl" unicode="&#xfb04;" horiz-adv-x="1028" 
d="M919 67l79 -37v-30h-266v30l79 37v558h-66l-84 72q-35 -2 -61.5 -33.5t-26.5 -95.5v-62h171v-50h-171v-389l99 -37v-30h-286v30l79 37v389h-238v-389l99 -37v-30h-286v30l79 37v389h-109v50h109v53q0 85 59 133t142 48q79 0 151 -38l-65 -83l-91 78q-35 -2 -61.5 -33.5
t-26.5 -95.5v-62h238v53q0 85 57.5 133t139.5 48q73 0 147 -34l110 27v-666z" />
    <glyph glyph-name="E.ss01" horiz-adv-x="712" 
d="M633 250l29 -11l-25 -239h-602v34l85 34v564l-85 34v34h589l23 -231l-29 -10l-140 193h-236v-603h241zM498 284l-132 38l-53 -29l-25 16l65 122l127 -44l51 47l22 -13z" />
    <glyph glyph-name="F.ss01" horiz-adv-x="657" 
d="M614 700l23 -231l-29 -10l-140 193h-226v-584l104 -34v-34h-311v34l85 34v564l-85 34v34h579zM498 285l-132 38l-53 -30l-25 16l65 122l127 -44l51 47l22 -13z" />
    <glyph glyph-name="T_h" horiz-adv-x="1206" 
d="M1107 67l79 -37v-30h-266v30l79 37v245q0 59 -28 87t-73 28q-35 0 -67 -17t-50 -44v-299l79 -37v-30h-266v30l79 37v585h-259v-584l105 -34v-34h-332v34l105 34v584h-113l-140 -193l-29 10l24 231h747v-283q30 48 75 73.5t96 25.5q68 0 111.5 -45t43.5 -132v-272z" />
    <glyph glyph-name="f_b" horiz-adv-x="971" 
d="M725 516q97 0 151.5 -73.5t54.5 -178.5q0 -71 -25 -132t-79 -102t-128 -41q-82 0 -158 66l-46 -66h-30v636h-66l-84 72q-35 -2 -61.5 -33.5t-26.5 -95.5v-62h171v-50h-171v-389l99 -37v-30h-286v30l79 37v389h-109v50h109v53q0 85 59 133t142 48q79 0 143 -34l110 27
v-308q52 91 152 91zM680 35q63 0 99.5 58.5t36.5 138.5q0 79 -37 134t-105 55q-63 0 -101 -38v-184q0 -84 29 -124t78 -40z" />
    <glyph glyph-name="f_f_b" horiz-adv-x="1317" 
d="M1071 516q97 0 151.5 -73.5t54.5 -178.5q0 -71 -25 -132t-79 -102t-128 -41q-82 0 -158 66l-46 -66h-30v636h-66l-84 72q-35 -2 -61.5 -33.5t-26.5 -95.5v-62h171v-50h-171v-389l99 -37v-30h-286v30l79 37v389h-238v-389l99 -37v-30h-286v30l79 37v389h-109v50h109v53
q0 85 59 133t142 48q79 0 151 -38l-65 -83l-91 78q-35 -2 -61.5 -33.5t-26.5 -95.5v-62h238v53q0 85 57.5 133t139.5 48q73 0 147 -34l110 27v-308q52 91 152 91zM1026 35q63 0 99.5 58.5t36.5 138.5q0 79 -37 134t-105 55q-63 0 -101 -38v-184q0 -84 29 -124t78 -40z" />
    <glyph glyph-name="f_f_h" horiz-adv-x="1344" 
d="M1245 67l79 -37v-30h-266v30l79 37v245q0 59 -28 87t-73 28q-35 0 -67 -17t-50 -44v-299l79 -37v-30h-266v30l79 37v558h-66l-84 72q-35 -2 -61.5 -33.5t-26.5 -95.5v-62h171v-50h-171v-389l99 -37v-30h-286v30l79 37v389h-238v-389l99 -37v-30h-286v30l79 37v389h-109
v50h109v53q0 85 59 133t142 48q79 0 151 -38l-65 -83l-91 78q-35 -2 -61.5 -33.5t-26.5 -95.5v-62h238v53q0 85 57.5 133t139.5 48q73 0 147 -34l110 27v-316q30 48 75 73.5t96 25.5q68 0 111.5 -45t43.5 -132v-272z" />
    <glyph glyph-name="f_f_k" horiz-adv-x="1305" 
d="M919 67l79 -37v-30h-266v30l79 37v558h-66l-84 72q-35 -2 -61.5 -33.5t-26.5 -95.5v-62h171v-50h-171v-389l99 -37v-30h-286v30l79 37v389h-238v-389l99 -37v-30h-286v30l79 37v389h-109v50h109v53q0 85 59 133t142 48q79 0 151 -38l-65 -83l-91 78q-35 -2 -61.5 -33.5
t-26.5 -95.5v-62h238v53q0 85 57.5 133t139.5 48q73 0 147 -34l110 27v-666zM1160 153q35 -49 61.5 -78t63.5 -50v-29q-33 -12 -65 -12q-51 0 -92 31t-82 97l-104 165l174 157l-96 43v29h233v-29l-205 -166z" />
    <glyph glyph-name="f_h" horiz-adv-x="998" 
d="M899 67l79 -37v-30h-266v30l79 37v245q0 59 -28 87t-73 28q-35 0 -67 -17t-50 -44v-299l79 -37v-30h-266v30l79 37v558h-66l-84 72q-35 -2 -61.5 -33.5t-26.5 -95.5v-62h171v-50h-171v-389l99 -37v-30h-286v30l79 37v389h-109v50h109v53q0 85 59 133t142 48q79 0 143 -34
l110 27v-316q30 48 75 73.5t96 25.5q68 0 111.5 -45t43.5 -132v-272z" />
    <glyph glyph-name="f_k" horiz-adv-x="959" 
d="M573 67l79 -37v-30h-266v30l79 37v558h-66l-84 72q-35 -2 -61.5 -33.5t-26.5 -95.5v-62h171v-50h-171v-389l99 -37v-30h-286v30l79 37v389h-109v50h109v53q0 85 59 133t142 48q79 0 143 -34l110 27v-666zM814 153q35 -49 61.5 -78t63.5 -50v-29q-33 -12 -65 -12
q-51 0 -92 31t-82 97l-104 165l174 157l-96 43v29h233v-29l-205 -166z" />
    <glyph glyph-name="t_f" horiz-adv-x="733" 
d="M631 697q-35 -2 -61.5 -33.5t-26.5 -95.5v-62h171v-50h-171v-389l99 -37v-30h-276v30l69 27v399h-237v-298q0 -104 92 -104q18 0 33 6l9 -25q-56 -46 -113 -46q-58 0 -93.5 41t-35.5 119v307h-85v30l163 148h30v-128h237v53q0 85 60 133t144 48q92 0 176 -53l-69 -88z
" />
    <glyph glyph-name="t_t" horiz-adv-x="745" 
d="M718 91l17 -25q-72 -77 -157 -77q-63 0 -103 41.5t-40 118.5v307h-237v-288q0 -53 18.5 -77t63.5 -24q35 0 73 24l17 -25q-72 -77 -137 -77q-63 0 -103 41.5t-40 118.5v307h-85v30l163 148h30v-128h174l141 128h30v-128h159v-50h-159v-288q0 -101 92 -101q45 0 83 24z
" />
    <glyph glyph-name="zero.dnom" 
d="M174 426q83 0 128.5 -62t45.5 -159q0 -95 -43.5 -152.5t-123.5 -57.5q-82 0 -127.5 62t-45.5 159q0 94 43.5 152t122.5 58zM243 199q0 89 -18 142.5t-53 53.5q-59 0 -59 -173q0 -196 70 -196q60 0 60 173z" />
    <glyph glyph-name="one.dnom" 
d="M227 42l76 -20v-20h-251v20l76 20v302h-76v21l175 61v-384z" />
    <glyph glyph-name="two.dnom" 
d="M348 133l-19 -131h-313v20q199 145 199 266q0 35 -16.5 68t-42.5 46l-80 -106l-69 63q70 67 164 67q64 0 107 -32t43 -87q0 -52 -45.5 -102.5t-138.5 -113.5h157l37 48z" />
    <glyph glyph-name="three.dnom" 
d="M213 225q58 -10 91.5 -40t33.5 -70q0 -46 -42.5 -83t-116.5 -37q-89 0 -162 61l66 71l97 -108q24 11 40.5 38t16.5 57q0 38 -25.5 62.5t-67.5 24.5h-30v33h10q42 0 69 22.5t27 65.5q0 51 -44 80l-92 -96l-61 65q63 55 158 55q63 0 103 -30.5t40 -70.5q0 -35 -30.5 -63
t-80.5 -37z" />
    <glyph glyph-name="four.dnom" 
d="M283 113v-71l76 -20v-20h-251v20l76 20v71h-191v18l142 285h145l-239 -270h143v81l99 22v-103h79v-33h-79z" />
    <glyph glyph-name="five.dnom" 
d="M153 274q89 0 136 -39.5t47 -97.5t-42 -100.5t-114 -42.5q-87 0 -161 61l67 71l96 -108q32 9 49 31t17 47q0 39 -35.5 67t-99.5 28q-24 0 -52 -5l24 230h228l-16 -90h-190l-6 -55q26 3 52 3z" />
    <glyph glyph-name="six.dnom" 
d="M209 275q57 0 97 -36.5t40 -95.5t-40.5 -103.5t-113.5 -44.5q-86 0 -134 62t-48 148q0 89 50.5 155t139.5 66q76 0 142 -56l-69 -63l-73 95q-36 -18 -60.5 -65.5t-26.5 -106.5q37 45 96 45zM187 26q27 0 41 29.5t14 69.5q0 47 -19.5 73.5t-52.5 26.5q-31 0 -56 -20
q0 -75 19.5 -127t53.5 -52z" />
    <glyph glyph-name="seven.dnom" 
d="M29 418h311v-13l-149 -401h-123v18l217 306h-210l-44 -51l-16 5z" />
    <glyph glyph-name="eight.dnom" 
d="M224 243q60 -26 91.5 -55t31.5 -75q0 -58 -49.5 -88t-121.5 -30q-70 0 -119.5 28t-49.5 84q0 79 117 93q-96 46 -96 118q0 50 40.5 79t107.5 29q61 0 106 -24t45 -70q0 -63 -103 -89zM171 394q-23 0 -38 -15t-15 -39q0 -16 6.5 -29.5t20 -24t24 -16.5t28.5 -14
q30 26 30 70q0 33 -15.5 50.5t-40.5 17.5zM182 26q28 0 49 17.5t21 49.5q0 11 -3 20.5t-6.5 16.5t-11.5 14l-13.5 11.5t-17 10.5t-16 8l-18 8t-16.5 7q-41 -24 -41 -81q0 -40 21.5 -61t51.5 -21z" />
    <glyph glyph-name="nine.dnom" 
d="M147 146q-57 0 -97 36.5t-40 95.5t40.5 103.5t113.5 44.5q86 0 134 -62t48 -148q0 -89 -50.5 -155t-139.5 -66q-76 0 -142 56l69 63l73 -95q36 18 60.5 65.5t26.5 106.5q-37 -45 -96 -45zM169 395q-27 0 -41 -29.5t-14 -69.5q0 -47 19.5 -73.5t52.5 -26.5q31 0 56 20
q0 75 -19.5 127t-53.5 52z" />
    <glyph glyph-name="zero.numr" 
d="M174 700q83 0 128.5 -62t45.5 -159q0 -95 -43.5 -152.5t-123.5 -57.5q-82 0 -127.5 62t-45.5 159q0 94 43.5 152t122.5 58zM243 473q0 89 -18 142.5t-53 53.5q-59 0 -59 -173q0 -196 70 -196q60 0 60 173z" />
    <glyph glyph-name="one.numr" 
d="M227 316l76 -20v-20h-251v20l76 20v302h-76v21l175 61v-384z" />
    <glyph glyph-name="two.numr" 
d="M348 407l-19 -131h-313v20q199 145 199 266q0 35 -16.5 68t-42.5 46l-80 -106l-69 63q70 67 164 67q64 0 107 -32t43 -87q0 -52 -45.5 -102.5t-138.5 -113.5h157l37 48z" />
    <glyph glyph-name="three.numr" 
d="M213 499q58 -10 91.5 -40t33.5 -70q0 -46 -42.5 -83t-116.5 -37q-89 0 -162 61l66 71l97 -108q24 11 40.5 38t16.5 57q0 38 -25.5 62.5t-67.5 24.5h-30v33h10q42 0 69 22.5t27 65.5q0 51 -44 80l-92 -96l-61 65q63 55 158 55q63 0 103 -30.5t40 -70.5q0 -35 -30.5 -63
t-80.5 -37z" />
    <glyph glyph-name="four.numr" 
d="M283 387v-71l76 -20v-20h-251v20l76 20v71h-191v18l142 285h145l-239 -270h143v81l99 22v-103h79v-33h-79z" />
    <glyph glyph-name="five.numr" 
d="M153 548q89 0 136 -39.5t47 -97.5t-42 -100.5t-114 -42.5q-87 0 -161 61l67 71l96 -108q32 9 49 31t17 47q0 39 -35.5 67t-99.5 28q-24 0 -52 -5l24 230h228l-16 -90h-190l-6 -55q25 3 52 3z" />
    <glyph glyph-name="six.numr" 
d="M209 549q57 0 97 -36.5t40 -95.5t-40.5 -103.5t-113.5 -44.5q-86 0 -134 62t-48 148q0 89 50.5 155t139.5 66q76 0 142 -56l-69 -63l-73 95q-36 -18 -60.5 -65.5t-26.5 -106.5q37 45 96 45zM187 300q27 0 41 29.5t14 69.5q0 47 -19.5 73.5t-52.5 26.5q-31 0 -56 -20
q0 -75 19.5 -127t53.5 -52z" />
    <glyph glyph-name="seven.numr" 
d="M29 690h311v-13l-149 -401h-123v18l217 306h-210l-44 -51l-16 5z" />
    <glyph glyph-name="eight.numr" 
d="M224 517q60 -26 91.5 -55t31.5 -75q0 -58 -49.5 -88t-121.5 -30q-70 0 -119.5 28t-49.5 84q0 79 117 93q-96 46 -96 118q0 50 40.5 79t107.5 29q61 0 106 -24t45 -70q0 -63 -103 -89zM171 668q-23 0 -38 -15t-15 -39q0 -16 6.5 -29.5t20 -24t24 -16.5t28.5 -14
q30 26 30 70q0 33 -15.5 50.5t-40.5 17.5zM182 300q28 0 49 17.5t21 49.5q0 11 -3 20.5t-6.5 16.5t-11.5 14l-13.5 11.5t-17 10.5t-16 8l-18 8t-16.5 7q-41 -24 -41 -81q0 -40 21.5 -61t51.5 -21z" />
    <glyph glyph-name="nine.numr" 
d="M147 420q-57 0 -97 36.5t-40 95.5t40.5 103.5t113.5 44.5q86 0 134 -62t48 -148q0 -89 -50.5 -155t-139.5 -66q-76 0 -142 56l69 63l73 -95q36 18 60.5 65.5t26.5 106.5q-37 -45 -96 -45zM169 669q-27 0 -41 -29.5t-14 -69.5q0 -47 19.5 -73.5t52.5 -26.5q31 0 56 20
q0 75 -19.5 127t-53.5 52z" />
    <glyph glyph-name="acute.cap" horiz-adv-x="275" 
d="M229 926l46 -110l-264 -59l-11 26z" />
    <glyph glyph-name="breve.cap" horiz-adv-x="295" 
d="M295 938q-5 -76 -45.5 -119t-102.5 -43q-61 0 -101.5 43t-45.5 119l29 8q37 -80 118 -80q84 0 119 80z" />
    <glyph glyph-name="caron.cap" horiz-adv-x="319" 
d="M159 766l-159 137l18 25l141 -53l141 53l19 -25z" />
    <glyph glyph-name="cedilla.cap" horiz-adv-x="208" 
d="M106 -61q47 1 74.5 -21t27.5 -56q0 -33 -26.5 -58.5t-74.5 -25.5q-60 0 -107 42l24 34q41 -38 84 -38q57 0 57 44q0 55 -107 55l16 85h32v-61z" />
    <glyph glyph-name="circumflex.cap" horiz-adv-x="319" 
d="M159 938l160 -137l-19 -25l-141 53l-141 -53l-18 25z" />
    <glyph glyph-name="dieresis.cap" horiz-adv-x="338" 
d="M64 906q29 0 47.5 -18.5t18.5 -45.5q0 -28 -18.5 -47t-47.5 -19q-27 0 -45.5 19t-18.5 47q0 27 18.5 45.5t45.5 18.5zM272 906q28 0 47 -18.5t19 -45.5q0 -28 -19 -47t-47 -19t-46 19t-18 47q0 27 18 45.5t46 18.5z" />
    <glyph glyph-name="dotaccent.cap" horiz-adv-x="156" 
d="M78 776q-33 0 -55.5 23t-22.5 57q0 33 22.5 55t55.5 22q32 0 55 -22t23 -55q0 -34 -23 -57t-55 -23z" />
    <glyph glyph-name="grave.cap" horiz-adv-x="275" 
d="M46 926l229 -143l-11 -26l-264 59z" />
    <glyph glyph-name="hungarumlaut.cap" horiz-adv-x="380" 
d="M114 950l65 -56l-148 -155l-31 26zM323 929l57 -60l-187 -130l-28 27z" />
    <glyph glyph-name="macron.cap" horiz-adv-x="331" 
d="M331 776h-331v66h331v-66z" />
    <glyph glyph-name="ring.cap" horiz-adv-x="190" 
d="M190 855q0 45 -29 70t-66 25t-66 -25t-29 -70q0 -44 29 -69t66 -25t66 25t29 69zM145 855q0 -24 -14.5 -38t-35.5 -14t-35.5 14t-14.5 38q0 26 14.5 40t35.5 14t35.5 -14t14.5 -40z" />
    <glyph glyph-name="tilde.cap" horiz-adv-x="332" 
d="M273 776l-187 66l-61 -67l-25 14l71 161l162 -87l75 83l24 -14z" />
    <glyph glyph-name="NULL" horiz-adv-x="75" 
 />
    </font>
</defs>
</svg>
